<svg width="34" height="34" viewBox="0 0 34 34" fill="none" xmlns="http://www.w3.org/2000/svg">
<g id="Group 14785">
<path id="Vector" d="M32.9302 17.1828C32.9302 15.9915 32.8233 14.846 32.6247 13.7463H16.8013V20.2452H25.8433C25.4538 22.3453 24.2701 24.1247 22.4907 25.316V29.5316H27.9205C31.0974 26.6067 32.9302 22.2995 32.9302 17.1828Z" fill="#4285F4"/>
<path id="Vector_2" d="M16.8011 33.6025C21.3373 33.6025 25.1405 32.0981 27.9203 29.5321L22.4905 25.3166C20.986 26.3246 19.0616 26.9203 16.8011 26.9203C12.4252 26.9203 8.72133 23.9649 7.40016 19.9937H1.78711V24.3467C4.55163 29.8376 10.2334 33.6025 16.8011 33.6025Z" fill="#34A853"/>
<path id="Vector_3" d="M7.40007 19.9934C7.06405 18.9853 6.87313 17.9085 6.87313 16.8012C6.87313 15.6939 7.06405 14.6171 7.40007 13.609V9.25604H1.78701C0.610945 11.5973 -0.00103651 14.1812 1.31779e-06 16.8012C1.31779e-06 19.5123 0.64913 22.0782 1.78701 24.3464L7.40007 19.9934Z" fill="#FBBC05"/>
<path id="Vector_4" d="M16.8011 6.68221C19.2678 6.68221 21.4824 7.52989 23.2236 9.19472L28.0425 4.37589C25.1328 1.66482 21.3297 0 16.8011 0C10.2334 0 4.55163 3.76495 1.78711 9.25581L7.40016 13.6088C8.72133 9.63765 12.4252 6.68221 16.8011 6.68221Z" fill="#EA4335"/>
</g>
</svg>
