<svg width="100" height="90" viewBox="0 0 100 90" fill="none" xmlns="http://www.w3.org/2000/svg">
<path id="Vector" d="M64.85 17.5313C64.5138 16.4223 63.7051 15.478 62.6001 14.904C61.495 14.33 60.1831 14.1728 58.95 14.4667L41.95 18.5679L19.75 0L13.6 1.48723L26.9 22.1733L10.95 26.004L4.65 21.5874L0 22.7141L8.3 35.6935L61.4 22.8943C64 22.2183 65.5 19.8297 64.85 17.5313ZM95 35.9189L90 44.9324H65L60 35.9189L65 31.4121H75V22.3986H80V31.4121H90L95 35.9189ZM100 80.9865V90H0V80.9865H65V49.4392H90V80.9865H100Z" fill="#FD5901"/>
</svg>
