<svg width="113" height="90" viewBox="0 0 113 90" fill="none" xmlns="http://www.w3.org/2000/svg">
<path id="Vector" d="M27.12 0C20.1281 0 15.0166 0.717188 11.5119 3.15C8.00711 5.58281 6.78 9.41484 6.78 14.4V21.6H4.52C2.04813 21.6 0 23.2312 0 25.2V39.6C0 41.5687 2.04813 43.2 4.52 43.2H6.78V73.8C6.78 76.0008 7.64516 77.85 9.04 79.2562V84.6C9.04 87.5602 12.1034 90 15.82 90H24.86C28.5766 90 31.64 87.5602 31.64 84.6V82.8H81.36V84.6C81.36 87.5602 84.4234 90 88.14 90H97.18C100.897 90 103.96 87.5602 103.96 84.6V79.2562C105.355 77.85 106.22 76.0008 106.22 73.8V43.2H108.48C110.952 43.2 113 41.5687 113 39.6V25.2C113 23.2312 110.952 21.6 108.48 21.6H106.22V16.2C106.22 11.4398 105.743 7.54453 103.324 4.55625C100.905 1.56797 96.4737 0 90.4 0H27.12ZM27.12 3.6H90.4C95.6263 3.6 97.9745 4.57734 99.5106 6.46875C101.047 8.36016 101.7 11.6719 101.7 16.2V73.8C101.7 76.2961 100.8 77.2805 98.9456 78.075C97.0917 78.8695 93.9842 79.2 90.4 79.2H22.6C19.0158 79.2 15.9083 78.8695 14.0544 78.075C12.2005 77.2805 11.3 76.2961 11.3 73.8V14.4C11.3 9.87187 12.3329 7.39687 14.4781 5.90625C16.6234 4.41563 20.5519 3.6 27.12 3.6ZM33.9 5.4C31.4281 5.4 29.38 7.03125 29.38 9V12.6C29.38 14.5687 31.4281 16.2 33.9 16.2H81.36C83.8319 16.2 85.88 14.5687 85.88 12.6V9C85.88 7.03125 83.8319 5.4 81.36 5.4H33.9ZM33.9 9H81.36V12.6H33.9V9ZM24.86 18C22.2204 18 19.8103 18.5344 18.1506 19.8562C16.4909 21.1781 15.82 23.0977 15.82 25.2V46.8C15.82 48.9023 16.4909 50.8219 18.1506 52.1437C19.8103 53.4656 22.2204 54 24.86 54L88.14 53.8875C89.9851 53.8875 91.9714 53.325 93.79 52.2C95.6086 51.075 97.18 49.1836 97.18 46.8V25.2C97.18 23.0977 96.5091 21.1781 94.8494 19.8562C93.1897 18.5344 90.7796 18 88.14 18H24.86ZM24.86 21.6H88.14C90.0204 21.6 91.0003 21.9656 91.6006 22.4437C92.2009 22.9219 92.66 23.7023 92.66 25.2V46.8C92.66 48.0164 92.0155 48.7266 91.0356 49.3312C90.0557 49.9359 88.6609 50.2875 88.14 50.2875L24.86 50.4C22.9796 50.4 21.9997 50.0344 21.3994 49.5562C20.7991 49.0781 20.34 48.2977 20.34 46.8V25.2C20.34 23.7023 20.7991 22.9219 21.3994 22.4437C21.9997 21.9656 22.9796 21.6 24.86 21.6ZM4.52 25.2H6.78V39.6H4.52V25.2ZM106.22 25.2H108.48V39.6H106.22V25.2ZM25.99 59.4C20.4018 59.4 15.82 63.0492 15.82 67.5C15.82 71.9508 20.4018 75.6 25.99 75.6C31.5782 75.6 36.16 71.9508 36.16 67.5C36.16 63.0492 31.5782 59.4 25.99 59.4ZM87.01 59.4C81.4218 59.4 76.84 63.0492 76.84 67.5C76.84 71.9508 81.4218 75.6 87.01 75.6C92.5982 75.6 97.18 71.9508 97.18 67.5C97.18 63.0492 92.5982 59.4 87.01 59.4ZM25.99 63C29.1328 63 31.64 64.9969 31.64 67.5C31.64 70.0031 29.1328 72 25.99 72C22.8472 72 20.34 70.0031 20.34 67.5C20.34 64.9969 22.8472 63 25.99 63ZM87.01 63C90.1528 63 92.66 64.9969 92.66 67.5C92.66 70.0031 90.1528 72 87.01 72C83.8672 72 81.36 70.0031 81.36 67.5C81.36 64.9969 83.8672 63 87.01 63ZM13.56 81.7875C16.2702 82.6031 19.3601 82.8 22.6 82.8H27.12V84.6C27.12 85.6125 26.1313 86.4 24.86 86.4H15.82C14.5487 86.4 13.56 85.6125 13.56 84.6V81.7875ZM99.44 81.7875V84.6C99.44 85.6125 98.4512 86.4 97.18 86.4H88.14C86.8688 86.4 85.88 85.6125 85.88 84.6V82.8H90.4C93.6399 82.8 96.7298 82.6031 99.44 81.7875Z" fill="#FD5901"/>
</svg>
