<svg width="27" height="28" viewBox="0 0 27 28" fill="none" xmlns="http://www.w3.org/2000/svg">
<path id="Combined-Shape" fill-rule="evenodd" clip-rule="evenodd" d="M18.6972 0C19.2364 0 19.6739 0.437582 19.6739 0.976747L19.6745 2.08087C21.5761 2.21124 23.1554 2.86258 24.2731 3.98265C25.4934 5.20814 26.1354 6.97019 26.129 9.08387V20.965C26.129 25.3044 23.3732 28.0002 18.9388 28.0002H7.92368C3.48925 28.0002 0.733521 25.2666 0.733521 20.866V9.08127C0.733521 4.9883 3.19109 2.36104 7.19917 2.08132L7.19997 0.976747C7.19997 0.437582 7.63756 0 8.17672 0C8.71588 0 9.15347 0.437582 9.15347 0.976747L9.15308 2.05638H17.7198L17.7204 0.976747C17.7204 0.437582 18.158 0 18.6972 0ZM24.1754 11.5959H2.68701V20.866C2.68701 24.2078 4.54674 26.0467 7.92368 26.0467H18.9388C22.3157 26.0467 24.1755 24.2417 24.1755 20.965L24.1754 11.5959ZM19.2282 19.7906C19.7673 19.7906 20.2049 20.2282 20.2049 20.7673C20.2049 21.3065 19.7673 21.7441 19.2282 21.7441C18.689 21.7441 18.2462 21.3065 18.2462 20.7673C18.2462 20.2282 18.6773 19.7906 19.2164 19.7906H19.2282ZM13.4491 19.7906C13.9882 19.7906 14.4258 20.2282 14.4258 20.7673C14.4258 21.3065 13.9882 21.7441 13.4491 21.7441C12.9099 21.7441 12.4671 21.3065 12.4671 20.7673C12.4671 20.2282 12.8982 19.7906 13.4373 19.7906H13.4491ZM7.65787 19.7906C8.19704 19.7906 8.63462 20.2282 8.63462 20.7673C8.63462 21.3065 8.19704 21.7441 7.65787 21.7441C7.11871 21.7441 6.67461 21.3065 6.67461 20.7673C6.67461 20.2282 7.10699 19.7906 7.64615 19.7906H7.65787ZM19.2282 14.7288C19.7673 14.7288 20.2049 15.1664 20.2049 15.7056C20.2049 16.2447 19.7673 16.6823 19.2282 16.6823C18.689 16.6823 18.2462 16.2447 18.2462 15.7056C18.2462 15.1664 18.6773 14.7288 19.2164 14.7288H19.2282ZM13.4491 14.7288C13.9882 14.7288 14.4258 15.1664 14.4258 15.7056C14.4258 16.2447 13.9882 16.6823 13.4491 16.6823C12.9099 16.6823 12.4671 16.2447 12.4671 15.7056C12.4671 15.1664 12.8982 14.7288 13.4373 14.7288H13.4491ZM7.65787 14.7288C8.19704 14.7288 8.63462 15.1664 8.63462 15.7056C8.63462 16.2447 8.19704 16.6823 7.65787 16.6823C7.11871 16.6823 6.67461 16.2447 6.67461 15.7056C6.67461 15.1664 7.10699 14.7288 7.64615 14.7288H7.65787ZM17.7198 4.00987H9.15308L9.15347 5.26271C9.15347 5.80187 8.71588 6.23946 8.17672 6.23946C7.63756 6.23946 7.19997 5.80187 7.19997 5.26271L7.19928 4.03944C4.28176 4.28452 2.68701 6.05304 2.68701 9.08127V9.64244H24.1754L24.1755 9.08127C24.1806 7.47289 23.7483 6.22266 22.89 5.36312C22.1367 4.60752 21.0353 4.15625 19.675 4.04006L19.6739 5.26271C19.6739 5.80187 19.2364 6.23946 18.6972 6.23946C18.158 6.23946 17.7204 5.80187 17.7204 5.26271L17.7198 4.00987Z" fill="#BDBDBD"/>
</svg>
