<svg width="17" height="20" viewBox="0 0 17 20" fill="none" xmlns="http://www.w3.org/2000/svg">
<path id="Vector" d="M15.9175 6.34291L10.4584 0.883805C10.3197 0.744917 10.1315 0.666799 9.93517 0.666626H7.49684C6.77684 0.666626 6.08634 0.952643 5.57722 1.46176C5.06811 1.97087 4.78209 2.66137 4.78209 3.38137V4.61534H3.54812C2.82812 4.61534 2.13762 4.90136 1.6285 5.41047C1.11939 5.91959 0.833374 6.61009 0.833374 7.33009V17.2019C0.833374 17.9219 1.11939 18.6124 1.6285 19.1215C2.13762 19.6306 2.82812 19.9166 3.54812 19.9166H10.4584C11.1784 19.9166 11.8689 19.6306 12.378 19.1215C12.8871 18.6124 13.1731 17.9219 13.1731 17.2019V15.9679H13.4199C14.1399 15.9679 14.8304 15.6819 15.3395 15.1728C15.8486 14.6637 16.1347 13.9732 16.1347 13.2532V6.8365C16.1269 6.65052 16.0493 6.47429 15.9175 6.34291ZM10.7052 3.19381L13.6075 6.09611H10.7052V3.19381ZM11.6923 17.2019C11.6923 17.5292 11.5623 17.843 11.3309 18.0744C11.0995 18.3058 10.7856 18.4359 10.4584 18.4359H3.54812C3.22085 18.4359 2.90698 18.3058 2.67557 18.0744C2.44415 17.843 2.31414 17.5292 2.31414 17.2019V7.33009C2.31414 7.00282 2.44415 6.68895 2.67557 6.45754C2.90698 6.22612 3.22085 6.09611 3.54812 6.09611H4.78209V13.2532C4.78209 13.9732 5.06811 14.6637 5.57722 15.1728C6.08634 15.6819 6.77684 15.9679 7.49684 15.9679H11.6923V17.2019ZM13.4199 14.4871H7.49684C7.16957 14.4871 6.8557 14.3571 6.62428 14.1257C6.39287 13.8943 6.26286 13.5804 6.26286 13.2532V3.38137C6.26286 3.0541 6.39287 2.74023 6.62428 2.50882C6.8557 2.2774 7.16957 2.1474 7.49684 2.1474H9.2244V6.8365C9.22696 7.03206 9.30578 7.2189 9.44408 7.3572C9.58238 7.4955 9.76922 7.57433 9.96478 7.57688H14.6539V13.2532C14.6539 13.5804 14.5239 13.8943 14.2925 14.1257C14.0611 14.3571 13.7472 14.4871 13.4199 14.4871Z" fill="#BCBCBC"/>
</svg>
