<svg width="77" height="87" viewBox="0 0 77 87" fill="none" xmlns="http://www.w3.org/2000/svg">
<g id="Group">
<path id="Vector" d="M58.6055 45.9546H18.6951C17.0641 45.9546 15.8169 44.6114 16.0088 42.9805L17.9276 23.0253C17.8316 10.3614 27.1377 0 38.6503 0C50.1629 0 59.469 10.3614 59.469 23.0253L61.3877 42.9805C61.4837 44.6114 60.1405 45.9546 58.6055 45.9546Z" fill="#FFAC5A"/>
<g id="Group_2">
<path id="Vector_2" d="M58.3177 22.0657H55.4396V31.6595H58.3177C59.9487 31.6595 61.2918 30.6042 61.2918 29.1651V24.4641C61.2918 23.2169 60.0446 22.0657 58.3177 22.0657Z" fill="#3A485E"/>
<path id="Vector_3" d="M15.9129 24.5601V29.2611C15.9129 30.6042 17.256 31.7555 18.887 31.7555H21.7651V22.0657H18.887C17.256 22.0657 15.9129 23.2169 15.9129 24.5601Z" fill="#3A485E"/>
</g>
<path id="Vector_4" d="M76.8338 86.3445H0.274857V64.9502C0.274857 60.0573 3.82458 55.6442 9.1012 54.0132L31.1671 47.2975C36.0599 45.7625 41.2406 45.7625 46.0375 47.2975L68.1034 54.0132C73.38 55.6442 76.9298 60.0573 76.9298 64.9502L76.8338 86.3445Z" fill="#FD5901"/>
<path id="Vector_5" d="M56.4949 69.2673H43.735V72.0496H56.4949V69.2673Z" fill="#FFD551"/>
<path id="Vector_6" d="M46.7091 33.9622H30.4955V56.5077H46.7091V33.9622Z" fill="#EDBF9A"/>
<path id="Vector_7" d="M56.9745 22.7374C56.9745 35.2095 48.7238 47.8733 38.5543 47.8733C28.3849 47.8733 20.2301 35.2095 20.2301 22.7374C20.2301 10.2654 28.4808 2.78223 38.6503 2.78223C48.8198 2.78223 56.9745 10.2654 56.9745 22.7374Z" fill="#FFD9B6"/>
<g id="Group_3">
<path id="Vector_8" d="M45.9416 39.5267C44.5985 39.5267 44.3106 39.5267 42.6797 39.4307H41.0487V38.1835H42.6797C50.0669 38.2795 52.5614 38.3754 54.8639 36.4566C57.2623 34.5379 56.7827 29.5491 56.7827 29.4531L58.0299 29.3572C58.0299 29.5491 58.6055 35.0176 55.6314 37.416C53.5207 39.2388 50.7385 39.5267 45.9416 39.5267Z" fill="#3A485E"/>
</g>
<g id="Group_4">
<path id="Vector_9" d="M17.9276 73.585H17.3519C16.7763 73.585 16.2966 74.0647 16.2966 74.6403V86.3448H18.9829V74.6403C18.9829 74.0647 18.5032 73.585 17.9276 73.585Z" fill="#FF778E"/>
<path id="Vector_10" d="M59.9486 73.585H59.373C58.7974 73.585 58.3177 74.0647 58.3177 74.6403V86.3448H61.004V74.6403C61.0999 74.0647 60.6202 73.585 59.9486 73.585Z" fill="#FF778E"/>
<path id="Vector_11" d="M46.7091 48.9284L38.6503 56.3156L30.4955 48.9284L29.2483 47.873L20.6138 50.5593L33.5655 62.0719L38.6503 56.5075L43.6391 62.0719L56.5908 50.5593L47.9563 47.873L46.7091 48.9284Z" fill="#FF778E"/>
<path id="Vector_12" d="M39.8015 40.9657H44.2147C44.8863 40.9657 45.4619 40.3901 45.366 39.8144V38.1835C45.366 37.6079 44.8863 37.0322 44.2147 37.0322H39.8015C39.2259 37.0322 38.6503 37.5119 38.6503 38.1835V39.8144C38.6503 40.3901 39.13 40.9657 39.8015 40.9657Z" fill="#FF778E"/>
</g>
<path id="Vector_13" d="M51.5061 7.86697C50.3548 10.4573 48.7238 12.7598 46.8051 14.7745C42.0081 19.8593 35.1965 23.0253 27.6174 23.0253C25.027 23.0253 22.5326 22.6415 20.1342 21.9699C20.5179 10.2654 28.2889 3.07004 38.0747 2.78223C38.2665 2.78223 38.4584 2.78223 38.6503 2.78223C43.735 2.78223 48.1482 4.60506 51.5061 7.86697Z" fill="#FFAC5A"/>
<path id="Vector_14" d="M56.8786 19.5714C53.137 18.708 49.6832 17.077 46.8051 14.7745C48.7238 12.7598 50.3548 10.4573 51.506 7.86694C54.2883 10.7451 56.303 14.6786 56.8786 19.5714Z" fill="#FFAC5A"/>
</g>
</svg>
