<svg width="88" height="87" viewBox="0 0 88 87" fill="none" xmlns="http://www.w3.org/2000/svg">
<g id="Group 24">
<path id="Vector" d="M84.5477 74.0523L63.4809 54.153C63.3417 54.023 63.1611 53.918 62.9537 53.8462C62.7464 53.7745 62.5181 53.7382 62.2872 53.7401H33.3554C32.989 53.7376 32.6365 53.6405 32.3648 53.467C32.093 53.2935 31.9208 53.0558 31.8807 52.7988L28.1589 28.837" stroke="#FD5901" stroke-width="6.11549" stroke-linecap="round"/>
<path id="Vector_2" d="M65.8919 38.1344H29.6102" stroke="#FD5901" stroke-width="6.11549" stroke-linecap="round"/>
<path id="Vector_3" d="M68.8451 73.4711C65.7514 76.3353 61.8322 78.7043 57.346 80.422C52.8599 82.1397 47.9086 83.1671 42.8186 83.4363C37.7286 83.7056 32.6155 83.2107 27.8164 81.9842C23.0173 80.7577 18.6412 78.8275 14.9766 76.3209C11.3119 73.8142 8.44202 70.788 6.556 67.4418C4.66998 64.0956 3.81071 60.5053 4.03484 56.9078C4.25896 53.3102 5.56139 49.787 7.85625 46.5704C10.1511 43.3538 13.3863 40.5169 17.3485 38.2468" stroke="#FD5901" stroke-width="6.11549" stroke-linecap="round"/>
<path id="Vector_4" d="M24.8818 20.0186C31.1517 20.0186 36.2345 16.4327 36.2345 12.0093C36.2345 7.58588 31.1517 4 24.8818 4C18.6119 4 13.5292 7.58588 13.5292 12.0093C13.5292 16.4327 18.6119 20.0186 24.8818 20.0186Z" stroke="#FD5901" stroke-width="6.11549" stroke-linecap="round"/>
</g>
</svg>
