<svg width="22" height="29" viewBox="0 0 22 29" xmlns="http://www.w3.org/2000/svg">
  <path d="M14.7329 7.00009C14.7329 7.33912 14.481 7.61931 14.1541 7.66366L14.0632 7.66977L2.29114 7.66923L6.54405 11.9048C6.80614 12.1657 6.80705 12.5897 6.54609 12.8518C6.30885 13.0901 5.93685 13.1125 5.67427 12.9186L5.59902 12.8539L0.196929 7.475C0.162381 7.4406 0.132375 7.40337 0.106907 7.36406C0.0997143 7.35222 0.092392 7.34012 0.0854502 7.32777C0.0790644 7.31718 0.0732946 7.30619 0.067852 7.29508C0.0602922 7.27891 0.0529051 7.2622 0.0461988 7.24515C0.0407495 7.23201 0.0361996 7.21923 0.0320492 7.20634C0.0271158 7.19037 0.0223217 7.17334 0.018198 7.15605C0.0151329 7.14398 0.0127048 7.13237 0.0105877 7.12071C0.00760937 7.10336 0.0050745 7.0854 0.00326538 7.06724C0.00170422 7.05338 0.000763893 7.03965 0.000244141 7.02591C0.000110626 7.01758 -5.91278e-05 7.00885 -5.91278e-05 7.00009L0.000276566 6.97415C0.000790596 6.961 0.001688 6.94787 0.0029707 6.93477L-5.91278e-05 7.00009C-5.91278e-05 6.95783 0.00385571 6.91648 0.011342 6.87639C0.0130777 6.86682 0.0151463 6.85699 0.017437 6.8472C0.0221939 6.82704 0.0276918 6.80763 0.0340214 6.7886C0.0371284 6.77914 0.0407486 6.76904 0.0446167 6.75901C0.0524426 6.73886 0.0609484 6.71965 0.0703058 6.70094C0.0746536 6.69214 0.0795221 6.68293 0.0846205 6.67381C0.092989 6.65894 0.10161 6.6448 0.110727 6.63103C0.117159 6.62128 0.124282 6.61113 0.13172 6.60114L0.137515 6.59342C0.155557 6.56985 0.17513 6.54751 0.196086 6.52655L0.19689 6.52593L5.59898 1.14617C5.86104 0.885181 6.28506 0.886059 6.54605 1.14813C6.78331 1.38637 6.80415 1.75846 6.60908 2.02022L6.54409 2.0952L2.29293 6.32987L14.0632 6.33041C14.4331 6.33041 14.7329 6.63024 14.7329 7.00009Z" fill="#fd5901"/>
  <path d="M7.00049 22.0001C7.00049 22.33912 7.25243 22.6193 7.5793 22.6637L7.67017 22.6698L19.4423 22.6692L15.1894 26.9048C14.9273 27.1657 14.9263 27.5897 15.1873 27.8518C15.4246 28.0901 15.7965 28.1125 16.0591 27.9186L16.1344 27.8539L21.5365 22.475C21.571 22.4406 21.601 22.4034 21.6265 22.3641C21.6337 22.3522 21.641 22.3401 21.6479 22.3278C21.6543 22.3172 21.6601 22.3062 21.6655 22.2951C21.6731 22.2789 21.6805 22.2622 21.6872 22.2452C21.6926 22.232 21.6972 22.2192 21.7013 22.2063C21.7063 22.1904 21.7111 22.1733 21.7152 22.1561C21.7183 22.144 21.7207 22.1324 21.7228 22.1207C21.7258 22.1034 21.7283 22.0854 21.7301 22.0672C21.7317 22.0534 21.7326 22.0397 21.7332 22.0259C21.7333 22.0176 21.7335 22.0089 21.7335 22.0001L21.7331 21.9741C21.7326 21.961 21.7317 21.9479 21.7304 21.9348L21.7335 22.0001C21.7335 21.9578 21.7295 21.9165 21.7221 21.8764C21.7203 21.8668 21.7183 21.857 21.716 21.8472C21.7112 21.827 21.7057 21.8076 21.6994 21.7886C21.6963 21.7791 21.6926 21.769 21.6888 21.759C21.681 21.7389 21.6725 21.7197 21.6631 21.7009C21.6587 21.6921 21.6539 21.6829 21.6488 21.6738C21.6404 21.6589 21.6318 21.6448 21.6227 21.631C21.6162 21.6213 21.6091 21.6111 21.6017 21.6011L21.5959 21.5934C21.5778 21.5698 21.5583 21.5475 21.5373 21.5266L21.5365 21.5259L16.1344 16.1462C15.8724 15.8852 15.4483 15.8861 15.1874 16.1481C14.9501 16.3864 14.9292 16.7585 15.1243 17.0202L15.1893 17.0952L19.4405 21.3299L7.67017 21.3304C7.30031 21.3304 7.00049 21.6302 7.00049 22.0001Z" fill="#fd5901"/>
</svg>
