<svg width="29" height="23" viewBox="0 0 29 23" fill="none" xmlns="http://www.w3.org/2000/svg">
<path id="Vector" d="M20.8323 0H7.42301C6.47041 0 5.55683 0.378418 4.88324 1.05201C4.20965 1.7256 3.83123 2.63918 3.83123 3.59178V20.8323C3.83123 21.2769 4.00782 21.7032 4.32217 22.0175C4.63651 22.3319 5.06285 22.5085 5.50739 22.5085H8.38081C8.82536 22.5085 9.2517 22.3319 9.56604 22.0175C9.88038 21.7032 10.057 21.2769 10.057 20.8323V18.6772H18.1983V20.8323C18.1983 21.2769 18.3749 21.7032 18.6893 22.0175C19.0036 22.3319 19.43 22.5085 19.8745 22.5085H22.7479C23.1925 22.5085 23.6188 22.3319 23.9332 22.0175C24.2475 21.7032 24.4241 21.2769 24.4241 20.8323V3.59178C24.4241 2.63918 24.0457 1.7256 23.3721 1.05201C22.6985 0.378418 21.7849 0 20.8323 0ZM5.26794 17.2405V10.057H22.9874V17.2405H5.26794ZM5.26794 5.26794H22.9874V8.62027H5.26794V5.26794ZM7.42301 1.43671H20.8323C21.4039 1.43671 21.952 1.66376 22.3562 2.06792C22.7603 2.47207 22.9874 3.02022 22.9874 3.59178V3.83123H5.26794V3.59178C5.26794 3.02022 5.49499 2.47207 5.89915 2.06792C6.3033 1.66376 6.85145 1.43671 7.42301 1.43671ZM8.62027 20.8323C8.62027 20.8958 8.59504 20.9567 8.55013 21.0016C8.50523 21.0465 8.44432 21.0718 8.38081 21.0718H5.50739C5.44389 21.0718 5.38298 21.0465 5.33807 21.0016C5.29317 20.9567 5.26794 20.8958 5.26794 20.8323V18.6772H8.62027V20.8323ZM22.7479 21.0718H19.8745C19.811 21.0718 19.7501 21.0465 19.7052 21.0016C19.6603 20.9567 19.6351 20.8958 19.6351 20.8323V18.6772H22.9874V20.8323C22.9874 20.8958 22.9621 20.9567 22.9172 21.0016C22.8723 21.0465 22.8114 21.0718 22.7479 21.0718ZM11.0148 13.6488C11.0148 13.8856 10.9446 14.117 10.813 14.3139C10.6815 14.5108 10.4945 14.6643 10.2757 14.7549C10.0569 14.8455 9.8162 14.8692 9.58395 14.823C9.35171 14.7768 9.13838 14.6628 8.97094 14.4953C8.8035 14.3279 8.68947 14.1146 8.64327 13.8823C8.59707 13.6501 8.62078 13.4094 8.7114 13.1906C8.80202 12.9718 8.95548 12.7848 9.15236 12.6533C9.34925 12.5217 9.58073 12.4515 9.81753 12.4515C10.1351 12.4515 10.4396 12.5776 10.6641 12.8022C10.8886 13.0267 11.0148 13.3312 11.0148 13.6488ZM19.6351 13.6488C19.6351 13.8856 19.5648 14.117 19.4333 14.3139C19.3017 14.5108 19.1147 14.6643 18.896 14.7549C18.6772 14.8455 18.4365 14.8692 18.2042 14.823C17.972 14.7768 17.7586 14.6628 17.5912 14.4953C17.4238 14.3279 17.3097 14.1146 17.2635 13.8823C17.2173 13.6501 17.2411 13.4094 17.3317 13.1906C17.4223 12.9718 17.5757 12.7848 17.7726 12.6533C17.9695 12.5217 18.201 12.4515 18.4378 12.4515C18.7553 12.4515 19.0599 12.5776 19.2844 12.8022C19.5089 13.0267 19.6351 13.3312 19.6351 13.6488ZM28.2553 5.50739V8.38081C28.2553 8.57133 28.1796 8.75405 28.0449 8.88877C27.9102 9.02349 27.7275 9.09917 27.537 9.09917C27.3464 9.09917 27.1637 9.02349 27.029 8.88877C26.8943 8.75405 26.8186 8.57133 26.8186 8.38081V5.50739C26.8186 5.31687 26.8943 5.13416 27.029 4.99944C27.1637 4.86472 27.3464 4.78904 27.537 4.78904C27.7275 4.78904 27.9102 4.86472 28.0449 4.99944C28.1796 5.13416 28.2553 5.31687 28.2553 5.50739ZM1.43671 5.50739V8.38081C1.43671 8.57133 1.36103 8.75405 1.22631 8.88877C1.09159 9.02349 0.908875 9.09917 0.718356 9.09917C0.527836 9.09917 0.345119 9.02349 0.210401 8.88877C0.0756837 8.75405 0 8.57133 0 8.38081V5.50739C0 5.31687 0.0756837 5.13416 0.210401 4.99944C0.345119 4.86472 0.527836 4.78904 0.718356 4.78904C0.908875 4.78904 1.09159 4.86472 1.22631 4.99944C1.36103 5.13416 1.43671 5.31687 1.43671 5.50739Z" fill="#949494"/>
</svg>
