<svg width="100" height="90" viewBox="0 0 100 90" fill="none" xmlns="http://www.w3.org/2000/svg">
<path id="Vector" d="M15.4691 0C8.70668 0 1.93576 4.59696 1.93576 13.7909L15.4691 38.308L28.9941 13.7909C28.9941 4.59696 22.2316 0 15.4691 0ZM75.1268 7.47007C73.6686 7.52561 72.2528 7.77653 71.0693 8.00638L71.8724 11.3775C73.0558 11.1381 74.2815 10.9867 75.317 10.9178L75.1268 7.47007ZM15.4691 7.66161C19.2096 7.66161 22.2316 10.4064 22.2316 13.7909C22.2316 17.1812 19.2096 19.9202 15.4691 19.9202C11.735 19.9202 8.70668 17.1812 8.70668 13.7909C8.70668 10.4064 11.735 7.66161 15.4691 7.66161ZM79.3322 7.69992L78.6982 11.0902C79.7337 11.2875 80.7692 11.5346 81.6779 12.0287L83.5165 9.00239C82.2274 8.37988 80.7904 7.82059 79.3322 7.69992ZM67.1809 8.98324C65.8918 9.4391 64.6027 9.84708 63.5038 10.2474L65.0042 13.4078C66.1665 12.9596 67.3922 12.5689 68.4277 12.2394L67.1809 8.98324ZM86.9823 11.5499L84.0871 13.7909C84.8478 14.58 85.4396 15.5531 85.9045 16.3384L89.3068 14.7869C88.5883 13.5323 87.9544 12.5823 86.9823 11.5499ZM59.9746 11.7223C58.6856 12.3179 57.6289 12.8485 56.4877 13.3695L58.3474 16.3958C59.4463 15.8212 60.6509 15.2658 61.623 14.8252L59.9746 11.7223ZM53.1488 15.1508C52.0287 15.7446 50.9298 16.3384 49.8521 16.9896L51.9231 19.8627C52.9586 19.2498 54.0364 18.6752 55.093 18.1005L53.1488 15.1508ZM90.6171 18.5794C89.3702 18.7709 88.1023 18.905 86.8555 19.0391C86.94 19.9968 86.8766 21.0311 86.6653 21.8356L90.3635 22.6209C90.5748 21.2418 90.765 19.8244 90.6171 18.5794ZM46.6399 18.905C45.5833 19.5563 44.5478 20.2266 43.4911 20.8779L45.6889 23.6935C46.7033 23.0231 47.7388 22.391 48.7743 21.7398L46.6399 18.905ZM40.3846 22.9465C39.328 23.6361 38.2291 24.4022 37.3204 25.0343L39.6238 27.7733C40.7861 27.0072 41.5892 26.4325 42.6458 25.7238L40.3846 22.9465ZM85.3973 24.4788C84.7633 25.3599 84.0237 26.241 83.284 26.9114L86.0524 29.3057C86.9611 28.3288 87.9332 27.3328 88.6095 26.3368L85.3973 24.4788ZM34.2984 27.1796C33.2629 27.9074 32.2274 28.6544 31.3187 29.344L33.7278 32.0064C34.7211 31.2594 35.7354 30.4932 36.6653 29.8803L34.2984 27.1796ZM80.6636 29.1141C79.6915 29.8228 78.6771 30.5124 77.7473 31.087L79.9239 33.9218C81.044 33.2322 82.1429 32.4852 83.0938 31.7957L80.6636 29.1141ZM28.3812 31.585C27.388 32.3128 26.437 33.079 25.4649 33.826L27.9375 36.4501C28.8884 35.7031 29.8394 34.9561 30.8115 34.2282L28.3812 31.585ZM74.6407 32.9258C73.563 33.5004 72.4429 34.0942 71.4286 34.5922L73.246 37.6376C74.3872 37.0056 75.6762 36.4501 76.6272 35.8755L74.6407 32.9258ZM22.5697 36.1053C21.6188 36.8715 20.6889 37.6376 19.738 38.423L22.295 40.9896C23.2249 40.2234 24.1758 39.4573 25.1057 38.6911L22.5697 36.1053ZM68.1107 36.1819C66.9907 36.6799 65.8707 37.1971 64.7506 37.6951L66.3779 40.7981C67.6881 40.2234 68.6602 39.7446 69.8436 39.2466L68.1107 36.1819ZM61.3483 39.1317C60.186 39.6105 59.0659 40.0702 57.8825 40.5107L59.4252 43.6712C60.5875 43.2115 61.7498 42.7326 62.9121 42.2538L61.3483 39.1317ZM16.9484 40.7981C15.8707 41.66 15.1205 42.3304 14.1378 43.1923L16.8216 45.6823C17.8149 44.8204 18.6179 44.0734 19.5478 43.3455L16.9484 40.7981ZM54.4167 41.909C53.2544 42.3495 52.0921 42.8092 50.9298 43.2498L52.4091 46.4485C53.5926 46.008 54.7549 45.5483 55.9172 45.0886L54.4167 41.909ZM47.4218 44.5906C46.2595 45.0503 45.0972 45.5099 43.9138 45.9313L45.3931 49.1301C46.5554 48.6895 47.7388 48.2298 48.9011 47.7893L47.4218 44.5906ZM86.4751 45.9696C79.7126 45.9696 72.9501 50.5666 72.9501 59.7605L86.4751 84.2777L100 59.7605C100 50.5666 93.2375 45.9696 86.4751 45.9696ZM40.4058 47.2721C39.2012 47.7701 37.9332 48.2298 36.8977 48.6321L38.3981 51.8116C39.645 51.3328 40.8284 50.8731 41.885 50.4517L40.4058 47.2721ZM33.3897 49.992C32.2485 50.4708 30.9172 51.0072 29.9028 51.4285L31.4666 54.5698C32.7134 54.0718 33.8123 53.5738 34.9112 53.1524L33.3897 49.992ZM26.4159 52.8651C25.2325 53.3823 24.0068 53.9186 22.9501 54.3974L24.6619 57.4812C25.803 56.9449 26.9865 56.4469 28.022 55.9872L26.4159 52.8651ZM86.4751 53.6313C90.2156 53.6313 93.2375 56.3703 93.2375 59.7605C93.2375 63.1508 90.2156 65.8898 86.4751 65.8898C82.7346 65.8898 79.7126 63.1508 79.7126 59.7605C79.7126 56.3703 82.7346 53.6313 86.4751 53.6313ZM19.5266 55.9872C18.4066 56.5427 17.2866 57.1173 16.1454 57.7111L18.0473 60.6991C19.1251 60.1245 20.224 59.5882 21.3229 59.0518L19.5266 55.9872ZM12.8276 59.569C11.642 60.1819 10.4966 61.0056 9.50972 61.5993L11.8132 64.3575C12.8635 63.668 13.9941 62.9593 14.8986 62.4613L12.8276 59.569ZM6.50888 63.8978C5.49451 64.7406 4.49493 65.7174 3.71936 66.5411L6.61454 68.7821C7.42815 67.8818 8.1361 67.2115 9.08707 66.4453L6.50888 63.8978ZM52.5359 64.1468L52.8741 67.5754C53.973 67.403 55.0719 67.5179 56.1708 67.6712L56.8259 64.2809C55.4311 64.0893 53.9518 63.9553 52.5359 64.1468ZM44.6746 66.0622L46.1116 69.2609C47.2105 68.8204 48.3517 68.4756 49.514 68.15C49.1124 67.0582 48.8166 65.9473 48.4996 64.8364C47.1682 65.1811 45.8369 65.6408 44.6746 66.0622ZM61.0524 65.8898L58.8969 68.7246C59.7845 69.3184 60.6509 69.9505 61.3483 70.7358L64.2223 68.4756C63.1445 67.4796 62.3204 66.5411 61.0524 65.8898ZM41.082 67.6137C39.9197 68.15 38.7997 68.7629 37.6796 69.3567L39.6027 72.3256C40.7016 71.7893 41.7794 71.1572 42.8571 70.64L41.082 67.6137ZM1.39687 69.7206C0.758665 70.9656 0.240913 72.3064 0 73.494L3.74049 74.0877C3.96872 72.996 4.29628 72.2107 4.77599 71.2721C3.61581 70.8124 2.50845 70.2569 1.39687 69.7206ZM34.3829 71.2146C33.3052 71.8467 32.2485 72.4788 31.1919 73.13L33.3052 76.0032C34.3618 75.3711 35.3973 74.7198 36.4539 74.0877L34.3829 71.2146ZM66.6526 71.4445L63.4615 73.3216C64.1378 74.241 64.7929 75.1987 65.4057 76.1755L68.7025 74.4517C67.9628 73.3791 67.4345 72.4213 66.6526 71.4445ZM28.0431 75.0838C26.9865 75.7158 25.9298 76.3288 24.8943 76.9992L27.0076 79.8723C28.022 79.2019 29.0997 78.5698 30.1775 77.9185L28.0431 75.0838ZM3.78276 76.9034C2.55917 77.1332 1.32502 77.3248 0.0950974 77.5355C0.316991 78.8763 0.91082 80.1787 1.44759 81.213L4.88166 79.719C4.42308 78.7613 3.98774 77.7653 3.78276 76.9034ZM70.5833 77.4397L67.2866 79.1636C67.9417 80.1979 68.7025 81.3088 69.3153 82.1899L72.5063 80.332C71.7878 79.3168 71.175 78.3591 70.5833 77.4397ZM21.7667 78.8763C20.7101 79.47 19.6746 80.0446 18.5757 80.6001L20.4565 83.6073C21.5765 83.0135 22.6965 82.4197 23.7743 81.7877L21.7667 78.8763ZM6.69907 81.9984L4.09975 84.5267C5.27473 85.5418 6.72443 86.2122 8.30516 86.5187L9.15047 83.1668C8.21217 82.9944 7.33516 82.573 6.69907 81.9984ZM15.3635 82.0558C14.3047 82.4964 13.2058 82.8411 12.0668 83.0518L12.9332 86.4229C14.2899 86.1739 15.5664 85.7142 16.8428 85.2354L15.3635 82.0558ZM74.5985 82.9752L71.661 85.1396C72.5697 86.1548 73.6898 87.1316 74.6619 87.8212L77.0076 85.1013C76.0778 84.4501 75.2747 83.6648 74.5985 82.9752ZM79.6915 86.3272L78.7405 89.6791C80.41 89.9856 81.6568 90.0814 83.2206 89.9281L82.7557 86.4996C81.7202 86.6528 80.7058 86.557 79.6915 86.3272Z" fill="#FD5901"/>
</svg>
