<svg width="100" height="90" viewBox="0 0 100 90" fill="none" xmlns="http://www.w3.org/2000/svg">
<path id="Vector" d="M81.095 4.7203C84.36 7.28013 86.61 11.4149 87.53 15.7446C87.6414 15.7798 87.75 15.8233 87.855 15.8746L98.08 20.6042C98.6515 20.8667 99.136 21.2872 99.4762 21.8161C99.8165 22.345 99.9982 22.9602 100 23.589V85.4199C99.9963 85.9336 99.8737 86.4394 99.6418 86.8976C99.4098 87.3559 99.0748 87.7542 98.6631 88.0613C98.2513 88.3684 97.774 88.5759 97.2686 88.6676C96.7632 88.7593 96.2434 88.7326 95.75 88.5897L67.405 80.5903L33.705 89.8796C33.097 90.0466 32.4543 90.0397 31.85 89.8596L2.37 81.0852C1.6886 80.8851 1.08995 80.4705 0.662977 79.9031C0.236005 79.3356 0.0034983 78.6456 0 77.9354L0 14.9946C0 12.7948 2.14 11.2149 4.275 11.8348L32.785 20.1393L47.275 15.7046C47.4744 15.6457 47.6785 15.6039 47.885 15.5796C48.445 12.2998 50.01 9.15001 52.635 6.08021C55.75 2.43045 61.215 0.290595 66.54 0.0356122C72.065 -0.22937 76.285 0.950551 81.09 4.7153L81.095 4.7203ZM6.665 19.4093V75.4806L31.015 82.7251V26.4939L6.665 19.4093ZM47.71 22.4791L37.68 25.5439V81.9352L63.005 74.9656V58.4917C63.005 56.6719 64.5 55.1969 66.34 55.1969C68.18 55.1969 69.67 56.6719 69.67 58.4967V74.3807L93.335 81.0552V25.6839L87.735 23.0841C87.64 23.634 87.52 24.174 87.37 24.699C86.2827 28.5325 84.4587 32.1174 82 35.2533L69.615 50.7172C69.2889 51.1238 68.8724 51.4487 68.3987 51.6661C67.925 51.8835 67.4071 51.9873 66.8861 51.9693C66.3652 51.9514 65.8557 51.8121 65.398 51.5626C64.9404 51.3132 64.5473 50.9603 64.25 50.5323L52.675 33.7684C50.765 31.0985 49.425 28.7187 48.67 26.5889C48.1961 25.2595 47.874 23.8808 47.71 22.4791ZM66.86 6.62517C63.23 6.80016 59.5 8.26007 57.725 10.3349C55.59 12.8348 54.54 15.1746 54.33 17.5444C54.08 20.3993 54.25 22.4141 54.96 24.409C55.485 25.8839 56.53 27.7538 58.145 30.0086L67.2 43.1178L76.75 31.1935C78.6766 28.7315 80.1049 25.9175 80.955 22.9091C82.155 18.7094 80.345 12.5398 76.955 9.88996C73.48 7.16514 70.855 6.43019 66.865 6.62517H66.86ZM67.55 10.1099C73.07 10.1099 77.55 14.5347 77.55 19.9943C77.5428 21.3 77.2784 22.5914 76.7719 23.7949C76.2654 24.9984 75.5267 26.0903 74.598 27.0082C73.6694 27.9261 72.5689 28.652 71.3596 29.1446C70.1503 29.6371 68.8558 29.8865 67.55 29.8786C62.03 29.8786 57.55 25.4539 57.55 19.9943C57.55 14.5347 62.03 10.1099 67.55 10.1099ZM67.55 16.6995C67.1147 16.6969 66.6831 16.78 66.2799 16.9442C65.8767 17.1083 65.5098 17.3503 65.2001 17.6562C64.8904 17.9622 64.644 18.3261 64.475 18.7273C64.306 19.1285 64.2176 19.559 64.215 19.9943C64.215 21.8142 65.71 23.2891 67.55 23.2891C67.9853 23.291 68.4168 23.2073 68.8197 23.0425C69.2227 22.8777 69.5892 22.6352 69.8985 22.3288C70.2077 22.0224 70.4535 21.6581 70.6219 21.2567C70.7903 20.8552 70.878 20.4246 70.88 19.9893C70.8734 19.1119 70.5192 18.2729 69.895 17.6562C69.2707 17.0396 68.4275 16.6955 67.55 16.6995Z" fill="#FD5901"/>
</svg>
