<svg width="40" height="26" viewBox="0 0 40 26" fill="none" xmlns="http://www.w3.org/2000/svg">
<g id="Mastercard svg">
<g clip-path="url(#clip0_9_375)">
<g id="Group">
<g id="Group_2">
<path id="Vector" d="M25.4552 3.54199H15.0452V22.2244H25.4552V3.54199Z" fill="#FF5F00"/>
<path id="Vector_2" d="M15.7061 12.8836C15.7061 9.25275 17.3916 5.78693 20.2336 3.5424C15.0782 -0.517565 7.6095 0.373646 3.54466 5.55587C-0.52018 10.7051 0.372102 18.1649 5.56056 22.2248C9.88978 25.6246 15.9375 25.6246 20.2667 22.2248C17.3916 19.9803 15.7061 16.5145 15.7061 12.8836Z" fill="#EB001B"/>
<path id="Vector_3" d="M39.5003 12.8836C39.5003 19.4522 34.1797 24.7664 27.6032 24.7664C24.9264 24.7664 22.3487 23.8752 20.2667 22.2248C25.4221 18.1649 26.3144 10.7051 22.2495 5.52286C21.6547 4.79669 20.9937 4.10353 20.2667 3.5424C25.4221 -0.517565 32.9238 0.373646 36.9556 5.55587C38.608 7.63536 39.5003 10.21 39.5003 12.8836Z" fill="#F79E1B"/>
<path id="Vector_4" d="M38.377 20.2443V19.8482H38.5423V19.7822H38.1457V19.8482H38.3109V20.2443H38.377ZM39.1371 20.2443V19.7822H39.0049L38.8727 20.1123L38.7405 19.7822H38.6084V20.2443H38.7075V19.8812L38.8397 20.1783H38.9388L39.071 19.8812V20.2443H39.1371Z" fill="#F79E1B"/>
</g>
</g>
</g>
<rect x="0.75" y="0.75" width="39.0003" height="24.2656" stroke="#F7F7F7" stroke-width="0.5"/>
</g>
<defs>
<clipPath id="clip0_9_375">
<rect x="1" y="1" width="38.5003" height="23.7656" fill="white"/>
</clipPath>
</defs>
</svg>
