<svg width="82" height="81" viewBox="0 0 82 81" fill="none" xmlns="http://www.w3.org/2000/svg">
<g id="Group 14841">
<circle id="Ellipse 84" cx="41.2335" cy="40.5" r="40" fill="white" stroke="#E8E8E8"/>
<g id="Group">
<path id="Vector" fill-rule="evenodd" clip-rule="evenodd" d="M51.5439 40.5146C51.7338 40.5414 51.9165 40.6054 52.0816 40.7029C52.2467 40.8005 52.3909 40.9296 52.5061 41.0829C52.6212 41.2363 52.705 41.4108 52.7526 41.5965C52.8002 41.7823 52.8107 41.9756 52.7835 42.1654C52.418 44.6942 51.2328 47.0332 49.4098 48.8235C47.5868 50.6138 45.2268 51.7565 42.6918 52.0763V53.625C42.6918 54.0118 42.5382 54.3827 42.2647 54.6562C41.9912 54.9297 41.6203 55.0833 41.2335 55.0833C40.8467 55.0833 40.4758 54.9297 40.2023 54.6562C39.9288 54.3827 39.7752 54.0118 39.7752 53.625V52.0763C37.2405 51.756 34.8809 50.6131 33.0583 48.8228C31.2357 47.0326 30.0506 44.6939 29.6849 42.1654C29.63 41.7825 29.7295 41.3935 29.9614 41.0839C30.1933 40.7743 30.5387 40.5695 30.9216 40.5146C31.3045 40.4597 31.6936 40.5591 32.0032 40.791C32.3127 41.0229 32.5175 41.3683 32.5724 41.7513C32.8762 43.8314 33.9186 45.7328 35.5089 47.1077C37.0992 48.4827 39.1312 49.2393 41.2335 49.2393C43.3358 49.2393 45.3678 48.4827 46.9581 47.1077C48.5484 45.7328 49.5907 43.8314 49.8945 41.7513C49.9217 41.5616 49.986 41.3792 50.0836 41.2145C50.1813 41.0497 50.3105 40.9058 50.4638 40.791C50.6171 40.6761 50.7915 40.5926 50.9771 40.5452C51.1627 40.4978 51.3543 40.4874 51.5439 40.5146ZM41.2335 25.9167C43.1674 25.9167 45.022 26.6849 46.3895 28.0523C47.7569 29.4198 48.5252 31.2745 48.5252 33.2083V40.5C48.5252 42.4339 47.7569 44.2885 46.3895 45.656C45.022 47.0234 43.1674 47.7917 41.2335 47.7917C39.2996 47.7917 37.445 47.0234 36.0775 45.656C34.7101 44.2885 33.9418 42.4339 33.9418 40.5V33.2083C33.9418 31.2745 34.7101 29.4198 36.0775 28.0523C37.445 26.6849 39.2996 25.9167 41.2335 25.9167ZM41.2335 28.8333C40.0732 28.8333 38.9604 29.2943 38.1399 30.1147C37.3194 30.9352 36.8585 32.048 36.8585 33.2083V40.5C36.8585 41.6603 37.3194 42.7731 38.1399 43.5936C38.9604 44.4141 40.0732 44.875 41.2335 44.875C42.3938 44.875 43.5066 44.4141 44.3271 43.5936C45.1476 42.7731 45.6085 41.6603 45.6085 40.5V33.2083C45.6085 32.048 45.1476 30.9352 44.3271 30.1147C43.5066 29.2943 42.3938 28.8333 41.2335 28.8333Z" fill="#222222"/>
</g>
</g>
</svg>
