<svg width="28" height="28" viewBox="0 0 28 28" fill="none" xmlns="http://www.w3.org/2000/svg">
<path id="Vector" fill-rule="evenodd" clip-rule="evenodd" d="M13.9271 0H14.0729C16.4666 0 18.3628 0 19.8461 0.199256C21.3725 0.405023 22.6084 0.837395 23.5838 1.81153C24.558 2.78698 24.9903 4.02288 25.1961 5.54921C25.3302 6.54419 25.3732 7.72409 25.3875 9.11628H25.7209C26.979 9.11628 28 10.1373 28 11.3953V12.6977C28 13.414 27.6614 14.0912 27.0884 14.5209L25.3914 15.7933C25.3823 17.3978 25.3446 18.7366 25.1961 19.8461C24.9903 21.3725 24.558 22.6084 23.5838 23.5838C23.3364 23.8313 23.072 24.0435 22.7907 24.2259V25.7209C22.7907 26.3254 22.5506 26.9051 22.1232 27.3325C21.6958 27.7599 21.1161 28 20.5116 28H18.5581C17.9537 28 17.374 27.7599 16.9466 27.3325C16.5192 26.9051 16.2791 26.3254 16.2791 25.7209V25.3875C15.5953 25.3953 14.8621 25.3953 14.0729 25.3953H13.9271C13.1379 25.3953 12.4033 25.3953 11.7209 25.3875V25.7209C11.7209 26.3254 11.4808 26.9051 11.0534 27.3325C10.626 27.7599 10.0463 28 9.44186 28H7.48837C6.88393 28 6.30424 27.7599 5.87683 27.3325C5.44942 26.9051 5.2093 26.3254 5.2093 25.7209V24.2259C4.92314 24.0403 4.6573 23.8251 4.41619 23.5838C3.44205 22.6084 3.00967 21.3725 2.80391 19.8461C2.65544 18.7366 2.61767 17.3978 2.60856 15.7933L0.911628 14.5209C0.338605 14.0912 0 13.414 0 12.6977V11.3953C0 10.1373 1.02102 9.11628 2.27907 9.11628H2.61116C2.62679 7.72409 2.66977 6.54419 2.80391 5.54921C3.00967 4.02288 3.44205 2.78698 4.41619 1.81153C5.39163 0.837395 6.62754 0.405023 8.15386 0.199256C9.63851 0 11.5334 0 13.9271 0ZM2.60465 11.0698H2.27907C2.19272 11.0698 2.10991 11.1041 2.04885 11.1651C1.98779 11.2262 1.95349 11.309 1.95349 11.3953V12.6977C1.95349 12.7482 1.96526 12.7981 1.98786 12.8433C2.01047 12.8885 2.04328 12.9278 2.08372 12.9581L2.60465 13.3488V11.0698ZM4.56595 16.2791C4.57898 17.6257 4.62065 18.6988 4.74047 19.587C4.91628 20.8958 5.24707 21.6512 5.79795 22.202C6.34884 22.7529 7.10419 23.0837 8.41433 23.2595C9.75312 23.4393 11.5165 23.4419 14 23.4419C16.4835 23.4419 18.2469 23.4393 19.587 23.2595C20.8958 23.0837 21.6512 22.7529 22.202 22.202C22.7529 21.6512 23.0837 20.8958 23.2595 19.5857C23.3794 18.7001 23.4197 17.6257 23.434 16.2791H4.56595ZM23.4419 14.3256H4.55814V11.3953C4.55814 8.94307 4.56074 7.19274 4.73395 5.86047H23.266C23.4393 7.19274 23.4419 8.94307 23.4419 11.3953V14.3256ZM25.3953 13.3488L25.9163 12.9581C25.9567 12.9278 25.9895 12.8885 26.0121 12.8433C26.0347 12.7981 26.0465 12.7482 26.0465 12.6977V11.3953C26.0465 11.309 26.0122 11.2262 25.9512 11.1651C25.8901 11.1041 25.8073 11.0698 25.7209 11.0698H25.3953V13.3488ZM22.7269 3.90698C22.5891 3.64387 22.4121 3.40323 22.202 3.1933C21.6512 2.64242 20.8958 2.31163 19.5857 2.13581C18.2469 1.95609 16.4835 1.95349 14 1.95349C11.5165 1.95349 9.75312 1.95609 8.41302 2.13581C7.10419 2.31163 6.34884 2.64242 5.79795 3.1933C5.588 3.40335 5.41105 3.64397 5.27312 3.90698H22.7269ZM7.16279 25.0177V25.7209C7.16279 25.9007 7.30865 26.0465 7.48837 26.0465H9.44186C9.52821 26.0465 9.61102 26.0122 9.67208 25.9512C9.73314 25.8901 9.76744 25.8073 9.76744 25.7209V25.3354C9.2279 25.3112 8.68958 25.2647 8.15386 25.1961C7.8209 25.1521 7.49018 25.0926 7.16279 25.0177ZM18.2326 25.3354V25.7209C18.2326 25.9007 18.3784 26.0465 18.5581 26.0465H20.5116C20.598 26.0465 20.6808 26.0122 20.7418 25.9512C20.8029 25.8901 20.8372 25.8073 20.8372 25.7209V25.0177C20.5099 25.093 20.1792 25.1525 19.8461 25.1961C19.3104 25.2647 18.7721 25.3112 18.2326 25.3354ZM6.51163 19.2093C6.51163 18.9503 6.61453 18.7018 6.79771 18.5186C6.98088 18.3355 7.22932 18.2326 7.48837 18.2326H9.44186C9.70091 18.2326 9.94935 18.3355 10.1325 18.5186C10.3157 18.7018 10.4186 18.9503 10.4186 19.2093C10.4186 19.4684 10.3157 19.7168 10.1325 19.9C9.94935 20.0831 9.70091 20.186 9.44186 20.186H7.48837C7.22932 20.186 6.98088 20.0831 6.79771 19.9C6.61453 19.7168 6.51163 19.4684 6.51163 19.2093ZM17.5814 19.2093C17.5814 18.9503 17.6843 18.7018 17.8675 18.5186C18.0507 18.3355 18.2991 18.2326 18.5581 18.2326H20.5116C20.7707 18.2326 21.0191 18.3355 21.2023 18.5186C21.3855 18.7018 21.4884 18.9503 21.4884 19.2093C21.4884 19.4684 21.3855 19.7168 21.2023 19.9C21.0191 20.0831 20.7707 20.186 20.5116 20.186H18.5581C18.2991 20.186 18.0507 20.0831 17.8675 19.9C17.6843 19.7168 17.5814 19.4684 17.5814 19.2093Z" fill="#BDBDBD"/>
</svg>
