<svg width="24" height="28" viewBox="0 0 24 28" fill="none" xmlns="http://www.w3.org/2000/svg">
<path id="Vector" d="M3 2H14.75C15.44 2 16 2.56 16 3.25V12C16 12.2652 16.1054 12.5196 16.2929 12.7071C16.4804 12.8946 16.7348 13 17 13H20.75C21.44 13 22 13.56 22 14.25V26H19V22.5C19 22.1022 18.842 21.7206 18.5607 21.4393C18.2794 21.158 17.8978 21 17.5 21H6.5C6.10218 21 5.72064 21.158 5.43934 21.4393C5.15804 21.7206 5 22.1022 5 22.5V26H2V3C2 2.73478 2.10536 2.48043 2.29289 2.29289C2.48043 2.10536 2.73478 2 3 2ZM17 26H13V23H17V26ZM11 26H7V23H11V26ZM23 28C23.2652 28 23.5196 27.8946 23.7071 27.7071C23.8946 27.5196 24 27.2652 24 27V14.25C24 13.8232 23.9159 13.4006 23.7526 13.0063C23.5893 12.612 23.3499 12.2537 23.0481 11.9519C22.7463 11.6501 22.388 11.4107 21.9937 11.2474C21.5994 11.0841 21.1768 11 20.75 11H18V3.25C18 2.8232 17.9159 2.40059 17.7526 2.00628C17.5893 1.61197 17.3499 1.25369 17.0481 0.951903C16.7463 0.650112 16.388 0.410719 15.9937 0.247391C15.5994 0.0840637 15.1768 0 14.75 0H3C2.20435 0 1.44129 0.316071 0.87868 0.87868C0.316071 1.44129 0 2.20435 0 3V27C0 27.2652 0.105357 27.5196 0.292893 27.7071C0.48043 27.8946 0.734784 28 1 28H23ZM6.5 8C6.89782 8 7.27936 7.84196 7.56066 7.56066C7.84196 7.27936 8 6.89782 8 6.5C8 6.10218 7.84196 5.72064 7.56066 5.43934C7.27936 5.15804 6.89782 5 6.5 5C6.10218 5 5.72064 5.15804 5.43934 5.43934C5.15804 5.72064 5 6.10218 5 6.5C5 6.89782 5.15804 7.27936 5.43934 7.56066C5.72064 7.84196 6.10218 8 6.5 8ZM6.5 13C6.89782 13 7.27936 12.842 7.56066 12.5607C7.84196 12.2794 8 11.8978 8 11.5C8 11.1022 7.84196 10.7206 7.56066 10.4393C7.27936 10.158 6.89782 10 6.5 10C6.10218 10 5.72064 10.158 5.43934 10.4393C5.15804 10.7206 5 11.1022 5 11.5C5 11.8978 5.15804 12.2794 5.43934 12.5607C5.72064 12.842 6.10218 13 6.5 13ZM8 16.5C8 16.8978 7.84196 17.2794 7.56066 17.5607C7.27936 17.842 6.89782 18 6.5 18C6.10218 18 5.72064 17.842 5.43934 17.5607C5.15804 17.2794 5 16.8978 5 16.5C5 16.1022 5.15804 15.7206 5.43934 15.4393C5.72064 15.158 6.10218 15 6.5 15C6.89782 15 7.27936 15.158 7.56066 15.4393C7.84196 15.7206 8 16.1022 8 16.5ZM11.5 8C11.8978 8 12.2794 7.84196 12.5607 7.56066C12.842 7.27936 13 6.89782 13 6.5C13 6.10218 12.842 5.72064 12.5607 5.43934C12.2794 5.15804 11.8978 5 11.5 5C11.1022 5 10.7206 5.15804 10.4393 5.43934C10.158 5.72064 10 6.10218 10 6.5C10 6.89782 10.158 7.27936 10.4393 7.56066C10.7206 7.84196 11.1022 8 11.5 8ZM13 11.5C13 11.8978 12.842 12.2794 12.5607 12.5607C12.2794 12.842 11.8978 13 11.5 13C11.1022 13 10.7206 12.842 10.4393 12.5607C10.158 12.2794 10 11.8978 10 11.5C10 11.1022 10.158 10.7206 10.4393 10.4393C10.7206 10.158 11.1022 10 11.5 10C11.8978 10 12.2794 10.158 12.5607 10.4393C12.842 10.7206 13 11.1022 13 11.5ZM11.5 18C11.8978 18 12.2794 17.842 12.5607 17.5607C12.842 17.2794 13 16.8978 13 16.5C13 16.1022 12.842 15.7206 12.5607 15.4393C12.2794 15.158 11.8978 15 11.5 15C11.1022 15 10.7206 15.158 10.4393 15.4393C10.158 15.7206 10 16.1022 10 16.5C10 16.8978 10.158 17.2794 10.4393 17.5607C10.7206 17.842 11.1022 18 11.5 18ZM18 16.5C18 16.8978 17.842 17.2794 17.5607 17.5607C17.2794 17.842 16.8978 18 16.5 18C16.1022 18 15.7206 17.842 15.4393 17.5607C15.158 17.2794 15 16.8978 15 16.5C15 16.1022 15.158 15.7206 15.4393 15.4393C15.7206 15.158 16.1022 15 16.5 15C16.8978 15 17.2794 15.158 17.5607 15.4393C17.842 15.7206 18 16.1022 18 16.5Z" fill="#AEAEAE"/>
</svg>
