<svg width="91" height="90" viewBox="0 0 91 90" fill="none" xmlns="http://www.w3.org/2000/svg">
<g id="Group 29">
<g id="Group">
<g id="Group_2">
<path id="Vector" d="M23.1242 78.1106H14.7596V86.4751H23.1242V78.1106Z" fill="#506C7F"/>
<path id="Vector_2" d="M76.0997 78.1106H67.7352V86.4751H76.0997V78.1106Z" fill="#506C7F"/>
</g>
<path id="Vector_3" d="M81.676 72.5342C81.676 74.0733 80.4269 75.3224 78.8878 75.3224H11.9714C10.4323 75.3224 9.18323 74.0733 9.18323 72.5342V13.9823C9.18323 7.82323 14.1769 2.82959 20.336 2.82959H70.5233C76.6824 2.82959 81.676 7.82323 81.676 13.9823V72.5342Z" fill="#FD5901"/>
<g id="Group_3">
<path id="Vector_4" d="M3.60693 39.076C3.60693 40.6151 4.85604 41.8642 6.39512 41.8642V27.9219H3.60693V39.076Z" fill="#B4CCB9"/>
<path id="Vector_5" d="M84.4644 27.9219V41.8642C86.0034 41.8642 87.2525 40.6151 87.2525 39.076V27.9219H84.4644Z" fill="#B4CCB9"/>
</g>
<path id="Vector_6" d="M76.0997 16.7705H14.7596V50.2287H76.0997V16.7705Z" fill="#F9EBB2"/>
<path id="Vector_7" d="M71.9174 58.5933C68.8379 58.5933 66.3411 61.0901 66.3411 64.1696C66.3411 67.2492 68.8379 69.746 71.9174 69.746C74.997 69.746 77.4938 67.2492 77.4938 64.1696C77.4938 61.0901 74.997 58.5933 71.9174 58.5933ZM71.9174 66.9578C70.3784 66.9578 69.1292 65.7087 69.1292 64.1696C69.1292 62.6306 70.3784 61.3814 71.9174 61.3814C73.4565 61.3814 74.7056 62.6306 74.7056 64.1696C74.7056 65.7087 73.4565 66.9578 71.9174 66.9578Z" fill="#394240"/>
<path id="Vector_8" d="M18.942 58.5933C15.8624 58.5933 13.3656 61.0901 13.3656 64.1696C13.3656 67.2492 15.8624 69.746 18.942 69.746C22.0215 69.746 24.5183 67.2492 24.5183 64.1696C24.5183 61.0901 22.0215 58.5933 18.942 58.5933ZM18.942 66.9578C17.4029 66.9578 16.1538 65.7087 16.1538 64.1696C16.1538 62.6306 17.4029 61.3814 18.942 61.3814C20.481 61.3814 21.7302 62.6306 21.7302 64.1696C21.7302 65.7087 20.481 66.9578 18.942 66.9578Z" fill="#394240"/>
<path id="Vector_9" d="M39.8533 9.7999H51.0061C51.777 9.7999 52.4002 9.17674 52.4002 8.40581C52.4002 7.63488 51.777 7.01172 51.0061 7.01172H39.8533C39.0824 7.01172 38.4592 7.63488 38.4592 8.40581C38.4592 9.17674 39.0824 9.7999 39.8533 9.7999Z" fill="#394240"/>
<path id="Vector_10" d="M70.9319 24.7281C71.2037 24.9999 71.5606 25.1365 71.9175 25.1365C72.2744 25.1365 72.6313 24.9999 72.9031 24.7281C73.4482 24.183 73.4482 23.3019 72.9031 22.7568L70.1149 19.9686C69.5698 19.4235 68.6888 19.4235 68.1437 19.9686C67.5986 20.5137 67.5986 21.3948 68.1437 21.9399L70.9319 24.7281Z" fill="#394240"/>
<path id="Vector_11" d="M70.9318 31.6971C71.2037 31.9689 71.5605 32.1055 71.9174 32.1055C72.2743 32.1055 72.6312 31.9689 72.9031 31.6971C73.4481 31.152 73.4481 30.2709 72.9031 29.7258L63.1444 19.9672C62.5993 19.4221 61.7183 19.4221 61.1732 19.9672C60.6281 20.5123 60.6281 21.3933 61.1732 21.9384L70.9318 31.6971Z" fill="#394240"/>
<path id="Vector_12" d="M13.3655 13.9824C12.5946 13.9824 11.9714 14.6056 11.9714 15.3765V51.6229C11.9714 52.3938 12.5946 53.017 13.3655 53.017H77.4938C78.2647 53.017 78.8879 52.3938 78.8879 51.6229V15.3765C78.8879 14.6056 78.2647 13.9824 77.4938 13.9824H13.3655ZM25.9124 50.2288C25.9124 47.1493 28.4092 44.6525 31.4887 44.6525C34.5683 44.6525 37.0651 47.1493 37.0651 50.2288H25.9124ZM44.0356 50.2288H39.8533C39.8533 45.6088 36.1087 41.8643 31.4887 41.8643C26.8687 41.8643 23.1242 45.6088 23.1242 50.2288H14.7596V16.7706H44.0356V50.2288ZM76.0997 50.2288H46.8237V16.7706H76.0997V50.2288Z" fill="#394240"/>
<path id="Vector_13" d="M60.7647 57.1992H30.0947C29.3238 57.1992 28.7006 57.8224 28.7006 58.5933V69.746C28.7006 70.517 29.3238 71.1401 30.0947 71.1401H60.7647C61.5357 71.1401 62.1588 70.517 62.1588 69.746V58.5933C62.1588 57.8224 61.5357 57.1992 60.7647 57.1992ZM59.3706 68.352H31.4888V59.9874H59.3706V68.352Z" fill="#394240"/>
<path id="Vector_14" d="M90.0406 26.5279C90.0406 25.7569 89.4175 25.1338 88.6465 25.1338H84.4643V13.9824C84.4643 6.28286 78.2215 0.0415039 70.5233 0.0415039H20.336C12.6364 0.0415039 6.39509 6.28425 6.39509 13.9824V25.1338H2.21282C1.44188 25.1338 0.818726 25.7569 0.818726 26.5279V39.0747C0.818726 42.1542 3.31554 44.6525 6.39509 44.6525V72.5343C6.39509 75.6166 8.88913 78.1107 11.9715 78.1107V87.8693C11.9715 88.6403 12.5946 89.2634 13.3656 89.2634H24.5183C25.2892 89.2634 25.9124 88.6403 25.9124 87.8693V78.1107H64.947V87.8693C64.947 88.6403 65.5701 89.2634 66.3411 89.2634H77.4938C78.2647 89.2634 78.8879 88.6403 78.8879 87.8693V78.1107C81.9702 78.1107 84.4643 75.6166 84.4643 72.5343V44.6525C87.5438 44.6525 90.0406 42.1556 90.0406 39.0761V26.5279ZM3.60691 39.0761V27.922H6.39509V41.8643C4.85602 41.8643 3.60691 40.6152 3.60691 39.0761ZM23.1242 86.4752H14.7596V78.1107H23.1242V86.4752ZM76.0997 86.4752H67.7352V78.1107H76.0997V86.4752ZM81.6761 72.5343C81.6761 74.0734 80.427 75.3225 78.8879 75.3225H11.9715C10.4324 75.3225 9.18328 74.0734 9.18328 72.5343V13.9824C9.18328 7.82333 14.1769 2.82969 20.336 2.82969H70.5233C76.6824 2.82969 81.6761 7.82333 81.6761 13.9824V72.5343ZM87.2524 39.0761C87.2524 40.6152 86.0033 41.8643 84.4643 41.8643V27.922H87.2524V39.0761Z" fill="#394240"/>
<path id="Vector_15" d="M59.3706 59.9873H31.4887V68.3519H59.3706V59.9873Z" fill="#B4CCB9"/>
<g id="Group_4">
<path id="Vector_16" d="M71.9174 66.958C73.4573 66.958 74.7056 65.7096 74.7056 64.1698C74.7056 62.6299 73.4573 61.3816 71.9174 61.3816C70.3775 61.3816 69.1292 62.6299 69.1292 64.1698C69.1292 65.7096 70.3775 66.958 71.9174 66.958Z" fill="#F9EBB2"/>
<path id="Vector_17" d="M18.942 66.958C20.4819 66.958 21.7302 65.7096 21.7302 64.1698C21.7302 62.6299 20.4819 61.3816 18.942 61.3816C17.4021 61.3816 16.1538 62.6299 16.1538 64.1698C16.1538 65.7096 17.4021 66.958 18.942 66.958Z" fill="#F9EBB2"/>
</g>
</g>
</g>
</svg>
