<svg width="85" height="82" viewBox="0 0 85 82" fill="none" xmlns="http://www.w3.org/2000/svg">
<g id="Group">
<path id="Vector" d="M74.0871 55.6028H45.4224C43.2444 55.6028 41.4723 53.9149 41.4723 51.8402C41.4723 49.7656 43.2444 48.0776 45.4224 48.0776H68.4356C67.9735 47.0733 67.7151 45.9653 67.7151 44.8004C67.7151 43.6355 67.9733 42.5275 68.4354 41.5232H45.4224C39.4499 41.5232 34.591 46.1514 34.591 51.8402C34.591 57.5291 39.4499 62.1572 45.4224 62.1572H74.0871C76.2652 62.1572 78.0373 63.8452 78.0373 65.9198C78.0373 67.9944 76.2652 69.6824 74.0871 69.6824H26.5768C27.0389 70.6867 27.2972 71.7947 27.2972 72.9596C27.2972 74.1245 27.039 75.2325 26.5768 76.2368H74.0871C80.0595 76.2368 84.9186 71.6086 84.9186 65.9198C84.9186 60.231 80.0594 55.6028 74.0871 55.6028Z" fill="#FD5901"/>
<path id="Vector_2" d="M72.8763 0.0415039H51.7234V23.1878H72.8763V0.0415039Z" fill="#FF3501"/>
<path id="Vector_3" d="M79.7576 37.2937V0.0415039H72.8763V37.2935C73.9307 36.8534 75.0938 36.6074 76.3168 36.6074C77.5398 36.6074 78.703 36.8534 79.7576 37.2937Z" fill="#FF3E56"/>
<path id="Vector_4" d="M68.4356 48.0777C69.7655 50.9684 72.7967 52.9935 76.3168 52.9935V36.6074C75.0939 36.6074 73.9308 36.8534 72.8764 37.2935C70.896 38.1202 69.3036 39.6369 68.4356 41.5233C67.9735 42.5276 67.7153 43.6356 67.7153 44.8005C67.7153 45.9652 67.9735 47.0734 68.4356 48.0777Z" fill="#2488FF"/>
<path id="Vector_5" d="M76.3169 52.9935C81.0598 52.9935 84.9186 49.3181 84.9186 44.8005C84.9186 41.4477 82.7925 38.5606 79.7577 37.2937C78.7033 36.8534 77.5399 36.6074 76.3169 36.6074V52.9935Z" fill="#005ECE"/>
<path id="Vector_6" d="M10.0939 72.9596C10.0939 77.4773 13.9525 81.1527 18.6954 81.1527V64.7666C13.9525 64.7666 10.0939 68.442 10.0939 72.9596Z" fill="#2488FF"/>
<path id="Vector_7" d="M26.5768 69.6824C25.2468 66.7918 22.2155 64.7666 18.6956 64.7666V81.1527C22.2155 81.1527 25.2468 79.1275 26.5768 76.2369C27.0389 75.2326 27.2973 74.1245 27.2973 72.9596C27.2971 71.7948 27.0389 70.6867 26.5768 69.6824Z" fill="#005ECE"/>
<path id="Vector_8" d="M25.3402 31.9124C25.3402 35.5255 22.2523 38.4668 18.459 38.4668V60.1472L32.9423 42.8026C35.5055 39.7154 36.9179 35.8467 36.9179 31.9124C36.9179 22.2167 28.6363 14.3301 18.459 14.3301V25.3579C22.2523 25.3579 25.3402 28.2976 25.3402 31.9124Z" fill="#CD2A00"/>
<path id="Vector_9" d="M25.3402 31.9123C25.3402 28.2976 22.2523 25.3579 18.459 25.3579V38.4668C22.2523 38.4668 25.3402 35.5255 25.3402 31.9123Z" fill="#D8D7DA"/>
<path id="Vector_10" d="M18.4589 38.4668C14.6639 38.4668 11.5777 35.5255 11.5777 31.9124C11.5777 28.2976 14.6639 25.3579 18.4589 25.3579V14.3301C8.27986 14.3301 0 22.2167 0 31.9124C0 35.8467 1.41238 39.7154 3.98252 42.8107L18.4589 60.1472V38.4668Z" fill="#FF3501"/>
<path id="Vector_11" d="M11.5778 31.9123C11.5778 35.5255 14.664 38.4668 18.459 38.4668V25.3579C14.6638 25.3579 11.5778 28.2976 11.5778 31.9123Z" fill="white"/>
</g>
</svg>
