<svg width="100" height="90" viewBox="0 0 100 90" fill="none" xmlns="http://www.w3.org/2000/svg">
<path id="Vector" d="M97.4576 42.353H92.1525L80.2881 20.7574C79.7666 19.8168 79.016 19.036 78.1121 18.4938C77.2082 17.9516 76.183 17.6672 75.1398 17.6691H65.267L59.9915 3.88239C59.5545 2.73376 58.7952 1.74892 57.8126 1.05637C56.8299 0.363812 55.6696 -0.00430616 54.4831 3.80104e-05H45.5169C44.3304 -0.00430616 43.1701 0.363812 42.1874 1.05637C41.2048 1.74892 40.4455 2.73376 40.0085 3.88239L34.7203 17.6471H24.8475C23.8043 17.6451 22.7791 17.9295 21.8752 18.4717C20.9713 19.0139 20.2207 19.7947 19.6992 20.7353L7.83475 42.353H2.54237C1.86809 42.353 1.22143 42.6318 0.744644 43.1283C0.267856 43.6247 0 44.298 0 45C0 45.7021 0.267856 46.3753 0.744644 46.8718C1.22143 47.3682 1.86809 47.6471 2.54237 47.6471H6.77966V83.8235C6.77966 85.4616 7.40466 87.0326 8.51716 88.1909C9.62967 89.3493 11.1385 90 12.7119 90H22.8814C24.4547 90 25.9636 89.3493 27.0761 88.1909C28.1886 87.0326 28.8136 85.4616 28.8136 83.8235V75.8824H71.1864V83.8235C71.1864 85.4616 71.8114 87.0326 72.924 88.1909C74.0365 89.3493 75.5453 90 77.1186 90H87.2881C88.8615 90 90.3703 89.3493 91.4828 88.1909C92.5953 87.0326 93.2203 85.4616 93.2203 83.8235V47.6471H97.4576C98.1319 47.6471 98.7786 47.3682 99.2554 46.8718C99.7321 46.3753 100 45.7021 100 45C100 44.298 99.7321 43.6247 99.2554 43.1283C98.7786 42.6318 98.1319 42.353 97.4576 42.353ZM44.7288 5.85004C44.7916 5.68586 44.9003 5.5451 45.0408 5.44599C45.1814 5.34688 45.3472 5.29398 45.5169 5.29415H54.4831C54.6528 5.29398 54.8186 5.34688 54.9592 5.44599C55.0997 5.5451 55.2084 5.68586 55.2712 5.85004L59.8051 17.6471H40.1949L44.7288 5.85004ZM24.1144 23.3824C24.1887 23.2484 24.2956 23.1371 24.4242 23.0596C24.5529 22.9822 24.6988 22.9414 24.8475 22.9412H75.1525C75.3012 22.9414 75.4471 22.9822 75.5758 23.0596C75.7044 23.1371 75.8113 23.2484 75.8856 23.3824L86.2966 42.353H13.7034L24.1144 23.3824ZM23.7288 83.8235C23.7288 84.0575 23.6395 84.282 23.4806 84.4474C23.3217 84.6129 23.1061 84.7059 22.8814 84.7059H12.7119C12.4871 84.7059 12.2716 84.6129 12.1126 84.4474C11.9537 84.282 11.8644 84.0575 11.8644 83.8235V75.8824H23.7288V83.8235ZM87.2881 84.7059H77.1186C76.8939 84.7059 76.6783 84.6129 76.5194 84.4474C76.3605 84.282 76.2712 84.0575 76.2712 83.8235V75.8824H88.1356V83.8235C88.1356 84.0575 88.0463 84.282 87.8874 84.4474C87.7285 84.6129 87.5129 84.7059 87.2881 84.7059ZM88.1356 70.5882H11.8644V47.6471H88.1356V70.5882ZM20.339 59.1177C20.339 58.4156 20.6068 57.7423 21.0836 57.2459C21.5604 56.7495 22.2071 56.4706 22.8814 56.4706H29.661C30.3353 56.4706 30.982 56.7495 31.4587 57.2459C31.9355 57.7423 32.2034 58.4156 32.2034 59.1177C32.2034 59.8197 31.9355 60.493 31.4587 60.9894C30.982 61.4858 30.3353 61.7647 29.661 61.7647H22.8814C22.2071 61.7647 21.5604 61.4858 21.0836 60.9894C20.6068 60.493 20.339 59.8197 20.339 59.1177ZM67.7966 59.1177C67.7966 58.4156 68.0645 57.7423 68.5413 57.2459C69.018 56.7495 69.6647 56.4706 70.339 56.4706H77.1186C77.7929 56.4706 78.4396 56.7495 78.9164 57.2459C79.3932 57.7423 79.661 58.4156 79.661 59.1177C79.661 59.8197 79.3932 60.493 78.9164 60.9894C78.4396 61.4858 77.7929 61.7647 77.1186 61.7647H70.339C69.6647 61.7647 69.018 61.4858 68.5413 60.9894C68.0645 60.493 67.7966 59.8197 67.7966 59.1177Z" fill="#FD5901"/>
</svg>
