<svg width="49" height="49" viewBox="0 0 49 49" fill="none" xmlns="http://www.w3.org/2000/svg">
<path id="Vector" fill-rule="evenodd" clip-rule="evenodd" d="M0 24.0188C0 17.6486 2.53055 11.5394 7.03495 7.03495C11.5394 2.53055 17.6486 0 24.0188 0C30.389 0 36.4983 2.53055 41.0027 7.03495C45.5071 11.5394 48.0376 17.6486 48.0376 24.0188C48.0376 30.389 45.5071 36.4983 41.0027 41.0027C36.4983 45.5071 30.389 48.0376 24.0188 48.0376C17.6486 48.0376 11.5394 45.5071 7.03495 41.0027C2.53055 36.4983 0 30.389 0 24.0188ZM22.6481 34.2989L36.4766 17.0117L33.9786 15.0134L22.187 29.7481L13.8348 22.7891L11.7852 25.2486L22.6481 34.3021V34.2989Z" fill="#45CB80"/>
</svg>
