<svg width="72" height="24" viewBox="0 0 72 24" fill="none" xmlns="http://www.w3.org/2000/svg">
<path id="path3789" d="M46.9112 0C41.8056 0 37.2215 2.65666 37.2215 7.53176C37.2215 13.1464 45.3191 13.5298 45.3191 16.3234C45.3191 17.5011 43.9466 18.5692 41.6409 18.5692C38.3469 18.5692 35.8765 17.0903 35.8765 17.0903L34.8334 22.0201C34.8334 22.0201 37.6607 23.28 41.4487 23.28C47.0484 23.28 51.4403 20.5138 51.4403 15.5291C51.4403 9.61327 43.3153 9.22983 43.3153 6.62795C43.3153 5.69675 44.4407 4.68339 46.7465 4.68339C49.3542 4.68339 51.4952 5.75153 51.4952 5.75153L52.5383 0.985976C52.5109 0.985976 50.1777 0 46.9112 0ZM0.137247 0.356047L0 1.06814C0 1.06814 2.14106 1.45158 4.08997 2.24584C6.58788 3.14965 6.75257 3.67002 7.19177 5.28593L11.7758 22.8966H17.9245L27.3397 0.356047H21.2185L15.1521 15.6935L12.6817 2.68405C12.4621 1.20508 11.3092 0.356047 9.88181 0.356047H0.137247ZM29.8101 0.356047L25.0065 22.8966H30.8532L35.6294 0.356047H29.8101ZM62.3652 0.356047C60.9653 0.356047 60.2242 1.09553 59.6752 2.41016L51.1109 22.8966H57.2322L58.4125 19.473H65.8788L66.5925 22.8966H72L67.3061 0.356047H62.3652ZM63.1613 6.46362L64.9729 14.9266H60.1144L63.1613 6.46362Z" fill="#1434CB"/>
</svg>
