<svg width="113" height="90" viewBox="0 0 113 90" fill="none" xmlns="http://www.w3.org/2000/svg">
<g id="Group 23">
<g id="Group">
<path id="Vector" d="M56.5 0C35.1572 0 15.0917 7.86748 0 22.1528L5.74572 27.5916C19.3027 14.7589 37.3275 7.6916 56.5 7.6916C75.6724 7.6916 93.6973 14.7589 107.254 27.5916L113 22.1528C97.9086 7.86748 77.8431 0 56.5 0Z" fill="#FD5901"/>
<path id="Vector_2" d="M15.3218 36.6561L21.0675 42.0948C30.5318 33.1362 43.1151 28.2025 56.4998 28.2025C69.8846 28.2025 82.4679 33.1362 91.9322 42.0948L97.6779 36.6561C86.6789 26.2448 72.055 20.5109 56.4998 20.5109C40.9447 20.5109 26.3208 26.2448 15.3218 36.6561Z" fill="#FD5901"/>
<path id="Vector_3" d="M30.644 51.1596L36.3898 56.5984C47.4784 46.1024 65.5217 46.1024 76.6104 56.5984L82.3561 51.1596C68.0989 37.6642 44.901 37.6642 30.644 51.1596Z" fill="#FD5901"/>
<path id="Vector_4" d="M56.5001 61.5327C48.2858 61.5327 41.6029 67.8586 41.6029 75.634C41.6029 83.4094 48.2858 89.7353 56.5001 89.7353C64.7144 89.7353 71.3973 83.4094 71.3973 75.634C71.3973 67.8586 64.7144 61.5327 56.5001 61.5327ZM56.5001 82.0437C52.7663 82.0437 49.7287 79.1683 49.7287 75.634C49.7287 72.0997 52.7663 69.2243 56.5001 69.2243C60.2339 69.2243 63.2716 72.0997 63.2716 75.634C63.2716 79.1683 60.2339 82.0437 56.5001 82.0437Z" fill="#FD5901"/>
</g>
</g>
</svg>
