<svg width="13" height="11" viewBox="0 0 13 11" fill="none" xmlns="http://www.w3.org/2000/svg">
<path id="Vector" d="M5.27475 10.5939C5.21192 10.5317 4.94325 10.297 4.72225 10.0784C3.33233 8.79679 1.05733 5.45339 0.362917 3.70346C0.251333 3.4377 0.0151667 2.76581 0 2.40682C0 2.06283 0.078 1.73492 0.236167 1.42202C0.457167 1.03195 0.804917 0.719045 1.2155 0.547589C1.50042 0.437214 2.353 0.265757 2.36817 0.265757C3.30092 0.094301 4.8165 0 6.49133 0C8.08708 0 9.54092 0.094301 10.4878 0.234681C10.5029 0.250755 11.5624 0.422211 11.9253 0.609742C12.5883 0.953726 13 1.62562 13 2.34467V2.40682C12.9838 2.87511 12.5721 3.85991 12.5569 3.85991C11.8614 5.51554 9.698 8.78178 8.26042 10.0945C8.26042 10.0945 7.891 10.4642 7.66025 10.6249C7.32875 10.8757 6.91817 11 6.50758 11C6.04933 11 5.6225 10.8596 5.27475 10.5939Z" fill="#B5B5B5"/>
</svg>
