<svg width="22" height="22" viewBox="0 0 22 22" fill="none" xmlns="http://www.w3.org/2000/svg">
<path id="Vector" fill-rule="evenodd" clip-rule="evenodd" d="M10.75 0C10.9489 0 11.1397 0.0790177 11.2803 0.21967C11.421 0.360322 11.5 0.551088 11.5 0.75V2.032C13.5538 2.20905 15.4793 3.10539 16.9369 4.56306C18.3946 6.02073 19.291 7.94616 19.468 10H20.75C20.9489 10 21.1397 10.079 21.2803 10.2197C21.421 10.3603 21.5 10.5511 21.5 10.75C21.5 10.9489 21.421 11.1397 21.2803 11.2803C21.1397 11.421 20.9489 11.5 20.75 11.5H19.468C19.291 13.5538 18.3946 15.4793 16.9369 16.9369C15.4793 18.3946 13.5538 19.291 11.5 19.468V20.75C11.5 20.9489 11.421 21.1397 11.2803 21.2803C11.1397 21.421 10.9489 21.5 10.75 21.5C10.5511 21.5 10.3603 21.421 10.2197 21.2803C10.079 21.1397 10 20.9489 10 20.75V19.468C7.94616 19.291 6.02073 18.3946 4.56306 16.9369C3.10539 15.4793 2.20905 13.5538 2.032 11.5H0.75C0.551088 11.5 0.360322 11.421 0.21967 11.2803C0.0790177 11.1397 0 10.9489 0 10.75C0 10.5511 0.0790177 10.3603 0.21967 10.2197C0.360322 10.079 0.551088 10 0.75 10H2.032C2.20905 7.94616 3.10539 6.02073 4.56306 4.56306C6.02073 3.10539 7.94616 2.20905 10 2.032V0.75C10 0.551088 10.079 0.360322 10.2197 0.21967C10.3603 0.0790177 10.5511 0 10.75 0ZM10.75 3.5C9.79792 3.5 8.85516 3.68753 7.97554 4.05187C7.09593 4.41622 6.2967 4.95025 5.62348 5.62348C4.95025 6.2967 4.41622 7.09593 4.05187 7.97554C3.68753 8.85516 3.5 9.79792 3.5 10.75C3.5 11.7021 3.68753 12.6448 4.05187 13.5245C4.41622 14.4041 4.95025 15.2033 5.62348 15.8765C6.2967 16.5497 7.09593 17.0838 7.97554 17.4481C8.85516 17.8125 9.79792 18 10.75 18C12.6728 18 14.5169 17.2362 15.8765 15.8765C17.2362 14.5169 18 12.6728 18 10.75C18 8.82718 17.2362 6.98311 15.8765 5.62348C14.5169 4.26384 12.6728 3.5 10.75 3.5ZM10.75 8.5C10.1533 8.5 9.58097 8.73705 9.15901 9.15901C8.73705 9.58097 8.5 10.1533 8.5 10.75C8.5 11.3467 8.73705 11.919 9.15901 12.341C9.58097 12.7629 10.1533 13 10.75 13C11.3467 13 11.919 12.7629 12.341 12.341C12.7629 11.919 13 11.3467 13 10.75C13 10.1533 12.7629 9.58097 12.341 9.15901C11.919 8.73705 11.3467 8.5 10.75 8.5ZM7 10.75C7 9.75544 7.39509 8.80161 8.09835 8.09835C8.80161 7.39509 9.75544 7 10.75 7C11.7446 7 12.6984 7.39509 13.4017 8.09835C14.1049 8.80161 14.5 9.75544 14.5 10.75C14.5 11.7446 14.1049 12.6984 13.4017 13.4017C12.6984 14.1049 11.7446 14.5 10.75 14.5C9.75544 14.5 8.80161 14.1049 8.09835 13.4017C7.39509 12.6984 7 11.7446 7 10.75Z" fill="black"/>
</svg>
