<svg width="21" height="17" viewBox="0 0 21 17" fill="none" xmlns="http://www.w3.org/2000/svg">
<g id="Iconly/Light-Outline/Arrow---Right">
<g id="Arrow---Right">
<path id="Combined-Shape" d="M0 8.49987C0 8.02347 0.359105 7.62975 0.825019 7.56744L0.954545 7.55885L17.7342 7.5596L11.6722 1.60787C11.2986 1.24116 11.2973 0.64534 11.6693 0.277054C12.0074 -0.0577507 12.5377 -0.0892487 12.912 0.183302L13.0192 0.274189L20.7192 7.83253C20.7685 7.88087 20.8112 7.93318 20.8475 7.98843C20.8578 8.00506 20.8682 8.02207 20.8781 8.03942C20.8872 8.0543 20.8954 8.06975 20.9032 8.08536C20.914 8.10808 20.9245 8.13156 20.9341 8.15551C20.9418 8.17398 20.9483 8.19194 20.9542 8.21005C20.9613 8.2325 20.9681 8.25642 20.974 8.28071C20.9783 8.29767 20.9818 8.314 20.9848 8.33038C20.9891 8.35476 20.9927 8.37999 20.9953 8.40552C20.9975 8.42499 20.9988 8.44428 20.9996 8.46359C20.9998 8.4753 21 8.48756 21 8.49987L20.9995 8.53633C20.9988 8.5548 20.9975 8.57325 20.9957 8.59166L21 8.49987C21 8.55926 20.9944 8.61736 20.9837 8.67369C20.9813 8.68714 20.9783 8.70096 20.9751 8.71471C20.9683 8.74304 20.9604 8.77032 20.9514 8.79706C20.947 8.81035 20.9418 8.82454 20.9363 8.83864C20.9252 8.86695 20.913 8.89394 20.8997 8.92024C20.8935 8.9326 20.8866 8.94554 20.8793 8.95835C20.8674 8.97925 20.8551 8.99912 20.8421 9.01848C20.8329 9.03218 20.8228 9.04644 20.8122 9.06048L20.8039 9.07132C20.7782 9.10445 20.7503 9.13584 20.7204 9.16528L20.7193 9.16616L13.0193 16.7258C12.6457 17.0925 12.0413 17.0913 11.6693 16.723C11.3312 16.3882 11.3015 15.8654 11.5795 15.4975L11.6721 15.3922L17.7316 9.44166L0.954545 9.4409C0.427365 9.4409 0 9.01959 0 8.49987Z" fill="black"/>
</g>
</g>
</svg>
