<svg width="30" height="37" viewBox="0 0 30 37" fill="none" xmlns="http://www.w3.org/2000/svg">
<g id="Group 14722">
<g id="Group 3">
<g id="Iconly/Light-Outline/Arrow---Left">
<g id="Arrow---Left">
<path id="Combined-Shape" d="M20.3151 8.62509C20.3151 9.07149 19.9833 9.4404 19.553 9.49879L19.4333 9.50684L3.9334 9.50613L9.53306 15.0829C9.87814 15.4265 9.87935 15.9848 9.53575 16.3299C9.22338 16.6436 8.73359 16.6731 8.38785 16.4177L8.28877 16.3326L1.17602 9.25039C1.13054 9.2051 1.09103 9.15609 1.05749 9.10432C1.04802 9.08874 1.03838 9.0728 1.02924 9.05654C1.02083 9.0426 1.01324 9.02813 1.00607 9.01349C0.996117 8.9922 0.986391 8.97021 0.977562 8.94776C0.970387 8.93046 0.964396 8.91363 0.958931 8.89666C0.952435 8.87563 0.946123 8.85321 0.940695 8.83045C0.936657 8.81456 0.93346 8.79926 0.930674 8.78391C0.926752 8.76107 0.923414 8.73743 0.921032 8.7135C0.918976 8.69526 0.917738 8.67718 0.917055 8.65909C0.916878 8.64812 0.916656 8.63663 0.916656 8.62509L0.917097 8.59094C0.917772 8.57363 0.918955 8.55634 0.920645 8.53909L0.916656 8.62509C0.916656 8.56945 0.92181 8.51501 0.931665 8.46223C0.933952 8.44962 0.936676 8.43668 0.939692 8.42379C0.945955 8.39725 0.953194 8.37169 0.961529 8.34663C0.965618 8.33418 0.970385 8.32088 0.975477 8.30767C0.985783 8.28114 0.996981 8.25585 1.0093 8.23122C1.01503 8.21963 1.02144 8.2075 1.02815 8.1955C1.03917 8.17591 1.05052 8.1573 1.06252 8.13916C1.07099 8.12632 1.08037 8.11296 1.09016 8.09981L1.09779 8.08965C1.12155 8.05861 1.14732 8.0292 1.17491 8.00161L1.17597 8.00079L8.28872 0.917429C8.63377 0.5738 9.19206 0.574956 9.53569 0.920011C9.84808 1.2337 9.87553 1.72361 9.61869 2.06827L9.53311 2.16699L3.93575 7.74264L19.4333 7.74335C19.9203 7.74335 20.3151 8.13812 20.3151 8.62509Z" fill="#fd5901"/>
<path id="Combined-Shape_2" d="M10.1342 28.3751C10.1342 28.8215 10.4659 29.1904 10.8963 29.2488L11.0159 29.2568L26.5158 29.2561L20.9162 34.8329C20.5711 35.1765 20.5699 35.7348 20.9135 36.0799C21.2258 36.3936 21.7156 36.4231 22.0614 36.1677L22.1604 36.0826L29.2732 29.0004C29.3187 28.9551 29.3582 28.9061 29.3917 28.8543C29.4012 28.8387 29.4108 28.8228 29.42 28.8065C29.4284 28.7926 29.436 28.7781 29.4431 28.7635C29.4531 28.7422 29.4628 28.7202 29.4717 28.6978C29.4788 28.6805 29.4848 28.6636 29.4903 28.6467C29.4968 28.6256 29.5031 28.6032 29.5085 28.5804C29.5126 28.5646 29.5158 28.5493 29.5185 28.5339C29.5225 28.5111 29.5258 28.4874 29.5282 28.4635C29.5302 28.4453 29.5315 28.4272 29.5322 28.4091C29.5323 28.3981 29.5326 28.3866 29.5326 28.3751L29.5321 28.3409C29.5314 28.3236 29.5303 28.3063 29.5286 28.2891L29.5326 28.3751C29.5326 28.3195 29.5274 28.265 29.5176 28.2122C29.5153 28.1996 29.5125 28.1867 29.5095 28.1738C29.5033 28.1473 29.496 28.1217 29.4877 28.0966C29.4836 28.0842 29.4788 28.0709 29.4737 28.0577C29.4634 28.0311 29.4522 28.0059 29.4399 27.9812C29.4342 27.9696 29.4278 27.9575 29.4211 27.9455C29.41 27.9259 29.3987 27.9073 29.3867 27.8892C29.3782 27.8763 29.3688 27.863 29.3591 27.8498L29.3514 27.8396C29.3277 27.8086 29.3019 27.7792 29.2743 27.7516L29.2732 27.7508L22.1605 20.6674C21.8154 20.3238 21.2572 20.325 20.9135 20.67C20.6011 20.9837 20.5737 21.4736 20.8305 21.8183L20.9161 21.917L26.5135 27.4926L11.0159 27.4933C10.5289 27.4933 10.1342 27.8881 10.1342 28.3751Z" fill="#fd5901"/>
</g>
</g>
</g>
</g>
</svg>
