<svg width="136" height="136" viewBox="0 0 136 136" fill="none" xmlns="http://www.w3.org/2000/svg">
<path id="Vector" d="M43.52 102L68 77.52L92.48 102L102 92.48L77.52 68L102 43.52L92.48 34L68 58.48L43.52 34L34 43.52L58.48 68L34 92.48L43.52 102ZM68 136C58.5933 136 49.7533 134.214 41.48 130.642C33.2067 127.069 26.01 122.225 19.89 116.11C13.77 109.99 8.92613 102.793 5.3584 94.52C1.79067 86.2467 0.00453333 77.4067 0 68C0 58.5933 1.78613 49.7533 5.3584 41.48C8.93067 33.2067 13.7745 26.01 19.89 19.89C26.01 13.77 33.2067 8.92613 41.48 5.3584C49.7533 1.79067 58.5933 0.00453333 68 0C77.4067 0 86.2467 1.78613 94.52 5.3584C102.793 8.93067 109.99 13.7745 116.11 19.89C122.23 26.01 127.076 33.2067 130.648 41.48C134.221 49.7533 136.005 58.5933 136 68C136 77.4067 134.214 86.2467 130.642 94.52C127.069 102.793 122.225 109.99 116.11 116.11C109.99 122.23 102.793 127.076 94.52 130.648C86.2467 134.221 77.4067 136.005 68 136ZM68 122.4C83.1867 122.4 96.05 117.13 106.59 106.59C117.13 96.05 122.4 83.1867 122.4 68C122.4 52.8133 117.13 39.95 106.59 29.41C96.05 18.87 83.1867 13.6 68 13.6C52.8133 13.6 39.95 18.87 29.41 29.41C18.87 39.95 13.6 52.8133 13.6 68C13.6 83.1867 18.87 96.05 29.41 106.59C39.95 117.13 52.8133 122.4 68 122.4Z" fill="#FF0000"/>
</svg>
