<svg width="20" height="20" viewBox="0 0 20 20" fill="none" xmlns="http://www.w3.org/2000/svg">
<path id="Vector" d="M18.7384 9.98797L19.8424 8.07997C19.9751 7.85041 20.0112 7.57756 19.9427 7.3214C19.8743 7.06524 19.7069 6.84675 19.4774 6.71397L17.5674 5.60997V3.40997C17.5674 3.14476 17.462 2.8904 17.2745 2.70287C17.087 2.51533 16.8326 2.40997 16.5674 2.40997H14.3684L13.2654 0.500973C13.1322 0.271889 12.9141 0.104478 12.6584 0.0349725C12.5316 0.000588391 12.3992 -0.0082777 12.2689 0.00888808C12.1386 0.0260539 12.013 0.0689102 11.8994 0.134973L9.98939 1.23897L8.07939 0.133972C7.84971 0.00137018 7.57677 -0.0345644 7.32059 0.0340734C7.06442 0.102711 6.846 0.2703 6.71339 0.499973L5.60939 2.40997H3.41039C3.14517 2.40997 2.89082 2.51533 2.70328 2.70287C2.51575 2.8904 2.41039 3.14476 2.41039 3.40997V5.60897L0.50039 6.71297C0.386423 6.77853 0.286531 6.86596 0.206455 6.97023C0.126379 7.07451 0.0676967 7.19359 0.0337796 7.32061C-0.00013759 7.44764 -0.00862102 7.58012 0.00881666 7.71043C0.0262543 7.84075 0.0692693 7.96633 0.13539 8.07997L1.23939 9.98797L0.13539 11.896C0.00337926 12.1257 -0.0324375 12.3984 0.0357489 12.6545C0.103935 12.9105 0.270595 13.1293 0.499391 13.263L2.40939 14.367V16.566C2.40939 16.8312 2.51475 17.0855 2.70228 17.2731C2.88982 17.4606 3.14417 17.566 3.40939 17.566H5.60939L6.71339 19.476C6.80192 19.6273 6.92833 19.753 7.08017 19.8407C7.23201 19.9283 7.40406 19.975 7.57939 19.976C7.75339 19.976 7.92639 19.93 8.08039 19.841L9.98839 18.737L11.8984 19.841C12.128 19.9734 12.4008 20.0093 12.6569 19.9409C12.9129 19.8725 13.1314 19.7053 13.2644 19.476L14.3674 17.566H16.5664C16.8316 17.566 17.086 17.4606 17.2735 17.2731C17.461 17.0855 17.5664 16.8312 17.5664 16.566V14.367L19.4764 13.263C19.5902 13.1972 19.6899 13.1097 19.7698 13.0054C19.8497 12.9011 19.9083 12.7821 19.9422 12.6551C19.9761 12.5282 19.9846 12.3958 19.9673 12.2655C19.95 12.1353 19.9072 12.0097 19.8414 11.896L18.7384 9.98797ZM7.48839 4.97797C7.88635 4.97811 8.26795 5.13632 8.54926 5.41781C8.83056 5.6993 8.98852 6.08102 8.98839 6.47897C8.98826 6.87693 8.83004 7.25854 8.54855 7.53984C8.26706 7.82114 7.88535 7.97911 7.48739 7.97897C7.08943 7.97884 6.70783 7.82062 6.42652 7.53913C6.14522 7.25764 5.98726 6.87593 5.98739 6.47797C5.98752 6.08002 6.14574 5.69841 6.42723 5.41711C6.70872 5.1358 7.09043 4.97784 7.48839 4.97797ZM7.78839 14.578L6.18839 13.379L12.1884 5.37897L13.7884 6.57797L7.78839 14.578ZM12.4884 14.978C12.2913 14.9779 12.0962 14.939 11.9142 14.8636C11.7322 14.7881 11.5668 14.6775 11.4275 14.5381C11.2882 14.3988 11.1778 14.2333 11.1024 14.0512C11.0271 13.8692 10.9883 13.674 10.9884 13.477C10.9885 13.2799 11.0273 13.0848 11.1028 12.9028C11.1783 12.7208 11.2888 12.5554 11.4282 12.4161C11.5676 12.2768 11.7331 12.1663 11.9151 12.091C12.0972 12.0157 12.2923 11.9769 12.4894 11.977C12.8873 11.9771 13.269 12.1353 13.5503 12.4168C13.8316 12.6983 13.9895 13.08 13.9894 13.478C13.9893 13.8759 13.831 14.2575 13.5496 14.5388C13.2681 14.8201 12.8863 14.9781 12.4884 14.978Z" fill="#FD5901" fill-opacity="0.56"/>
</svg>
