<svg width="107" height="107" viewBox="0 0 107 107" fill="none" xmlns="http://www.w3.org/2000/svg">
<path id="Vector" fill-rule="evenodd" clip-rule="evenodd" d="M0 53.5C0 39.3109 5.63659 25.703 15.6698 15.6698C25.703 5.63659 39.3109 0 53.5 0C67.6891 0 81.297 5.63659 91.3302 15.6698C101.363 25.703 107 39.3109 107 53.5C107 67.6891 101.363 81.297 91.3302 91.3302C81.297 101.363 67.6891 107 53.5 107C39.3109 107 25.703 101.363 15.6698 91.3302C5.63659 81.297 0 67.6891 0 53.5ZM50.4469 76.398L81.2487 37.8923L75.6847 33.4411L49.4197 66.2615L30.816 50.7608L26.2507 56.2392L50.4469 76.4051V76.398Z" fill="#00F06E"/>
</svg>
