<svg width="22" height="18" viewBox="0 0 22 18" fill="none" xmlns="http://www.w3.org/2000/svg">
<path d="M12.75 7.75C12.75 7.48478 12.8554 7.23043 13.0429 7.04289C13.2304 6.85536 13.4848 6.75 13.75 6.75C14.0152 6.75 14.2696 6.85536 14.4571 7.04289C14.6446 7.23043 14.75 7.48478 14.75 7.75V9.75C14.75 10.0152 14.6446 10.2696 14.4571 10.4571C14.2696 10.6446 14.0152 10.75 13.75 10.75C13.4848 10.75 13.2304 10.6446 13.0429 10.4571C12.8554 10.2696 12.75 10.0152 12.75 9.75V7.75Z" stroke="black" stroke-width="1.5"/>
<path d="M12.7651 13.75L13.5151 13.752V13.75H12.7651ZM1.90111 15.578L1.37111 16.109L1.90111 15.579V15.578ZM0.76211 11.76L1.51111 11.729L0.76111 11.761L0.76211 11.76ZM19.6011 15.578L20.1311 16.109L19.6011 15.579V15.578ZM12.7651 3.75H13.5151V3.748L12.7651 3.75ZM13.5091 15.755L13.5151 13.752L12.0151 13.748L12.0091 15.751L13.5091 15.755ZM13.7671 13.5C13.9081 13.5 14.0201 13.614 14.0201 13.75H15.5201C15.5201 12.782 14.7331 12 13.7671 12V13.5ZM13.7671 12C12.8011 12 12.0151 12.782 12.0151 13.75H13.5151C13.5151 13.614 13.6261 13.5 13.7671 13.5V12ZM8.74611 1.5H12.2561V1.26556e-06H8.74611V1.5ZM11.7591 16H8.74611V17.5H11.7591V16ZM8.74611 16C6.83511 16 5.47611 15.998 4.44611 15.86C3.43611 15.725 2.85511 15.471 2.43011 15.047L1.37111 16.11C2.12111 16.858 3.07311 17.19 4.24711 17.348C5.40111 17.503 6.87711 17.501 8.74711 17.501V16.001L8.74611 16ZM8.74611 1.26556e-06C6.87611 1.26556e-06 5.40011 -0.00199862 4.24611 0.153001C3.07211 0.311001 2.12111 0.643001 1.37111 1.391L2.43111 2.453C2.85511 2.029 3.43711 1.775 4.44611 1.64C5.47611 1.502 6.83511 1.5 8.74611 1.5V1.26556e-06ZM1.33811 7.659C1.72411 7.874 1.98111 8.283 1.98111 8.75H3.48111C3.48114 8.2605 3.35046 7.77988 3.10258 7.35778C2.8547 6.93568 2.49861 6.58743 2.07111 6.349L1.33911 7.659H1.33811ZM1.51111 5.77C1.58911 3.914 1.84211 3.039 2.43111 2.453L1.37111 1.391C0.34111 2.419 0.0911096 3.83 0.0111096 5.708L1.51011 5.771L1.51111 5.77ZM1.98111 8.75C1.98111 9.217 1.72411 9.626 1.33811 9.841L2.07011 11.151C2.4978 10.9127 2.85409 10.5645 3.10215 10.1424C3.35021 9.72029 3.48104 9.2396 3.48111 8.75H1.98111ZM0.0121097 11.792C0.0921097 13.668 0.342109 15.082 1.37111 16.109L2.43111 15.047C1.84211 14.461 1.58911 13.585 1.51111 11.729L0.0121097 11.792ZM19.5211 8.75C19.5211 8.283 19.7781 7.874 20.1641 7.659L19.4321 6.349C19.0044 6.5873 18.6481 6.9355 18.4001 7.3576C18.152 7.77971 18.0212 8.2604 18.0211 8.75H19.5211ZM21.4901 5.708C21.4101 3.832 21.1601 2.418 20.1311 1.391L19.0711 2.453C19.6591 3.039 19.9131 3.915 19.9911 5.771L21.4901 5.708ZM20.1641 9.841C19.9694 9.73297 19.8071 9.57486 19.6941 9.38304C19.581 9.19121 19.5213 8.97266 19.5211 8.75H18.0211C18.0211 9.784 18.5921 10.682 19.4321 11.151L20.1641 9.841ZM19.9911 11.729C19.9131 13.585 19.6601 14.461 19.0711 15.047L20.1311 16.109C21.1611 15.082 21.4111 13.669 21.4901 11.792L19.9911 11.729ZM19.4321 11.151C19.7161 11.31 19.9021 11.414 20.0271 11.493C20.0891 11.532 20.1171 11.553 20.1251 11.559C20.1391 11.571 20.0881 11.535 20.0401 11.449L21.3501 10.716C21.2805 10.5963 21.1893 10.4905 21.0811 10.404C21.0004 10.3386 20.9155 10.2785 20.8271 10.224C20.6601 10.118 20.4311 9.991 20.1641 9.841L19.4321 11.151ZM21.4901 11.792C21.4971 11.621 21.5051 11.444 21.4991 11.296C21.4957 11.0935 21.4443 10.8947 21.3491 10.716L20.0401 11.448C19.9901 11.358 19.9971 11.296 20.0001 11.362C20.0011 11.39 20.0021 11.432 20.0001 11.496L19.9911 11.729L21.4901 11.792ZM20.1641 7.659C20.4311 7.509 20.6601 7.382 20.8271 7.276C20.9154 7.22123 21.0002 7.16112 21.0811 7.096C21.1889 7.00944 21.2798 6.90365 21.3491 6.784L20.0401 6.052C20.0881 5.965 20.1391 5.929 20.1241 5.941C20.093 5.9648 20.0606 5.98683 20.0271 6.007C19.9021 6.087 19.7171 6.19 19.4321 6.349L20.1641 7.659ZM19.9911 5.771L20.0001 6.003C20.0021 6.067 20.0011 6.109 20.0001 6.137C19.9971 6.203 19.9901 6.141 20.0401 6.051L21.3501 6.783C21.4446 6.60403 21.4956 6.40535 21.4991 6.203C21.5026 6.0376 21.4992 5.87213 21.4891 5.707L19.9911 5.771ZM1.33811 9.841C1.07111 9.991 0.84211 10.117 0.67511 10.223C0.586698 10.2775 0.501858 10.3377 0.42111 10.403C0.313282 10.4896 0.222417 10.5963 0.15311 10.716L1.46211 11.447C1.41411 11.534 1.36311 11.57 1.37711 11.558C1.38611 11.551 1.41311 11.531 1.47511 11.492C1.60011 11.412 1.78511 11.309 2.07011 11.15L1.33811 9.841ZM1.51111 11.728C1.50751 11.6504 1.50451 11.5727 1.50211 11.495C1.50063 11.4503 1.50063 11.4057 1.50211 11.361C1.50511 11.295 1.51211 11.357 1.46211 11.447L0.15211 10.715C0.0572811 10.8938 0.00621705 11.0926 0.0031096 11.295C-0.0028904 11.443 0.00510959 11.62 0.0131096 11.791L1.51111 11.728ZM2.07011 6.348C1.78611 6.189 1.60011 6.085 1.47511 6.006C1.44125 5.98582 1.40853 5.96379 1.37711 5.94C1.36311 5.928 1.41411 5.964 1.46211 6.05L0.15211 6.783C0.23611 6.931 0.34711 7.033 0.42111 7.095C0.50111 7.161 0.59011 7.221 0.67511 7.275C0.84211 7.381 1.07111 7.508 1.33811 7.658L2.07011 6.348ZM0.0111096 5.708C0.00410961 5.879 -0.00389033 6.056 0.00210967 6.204C0.00910967 6.354 0.0321096 6.571 0.15211 6.784L1.46211 6.052C1.51211 6.142 1.50411 6.204 1.50111 6.138C1.49963 6.09335 1.49963 6.04866 1.50111 6.004L1.51011 5.771L0.0111096 5.708ZM13.5141 3.748L13.5061 1.246L12.0071 1.251L12.0141 3.752L13.5141 3.748ZM13.7661 4C13.7331 4.00013 13.7005 3.99377 13.67 3.98128C13.6395 3.96879 13.6117 3.95041 13.5883 3.92719C13.5649 3.90398 13.5463 3.87638 13.5336 3.84598C13.5209 3.81558 13.5142 3.78296 13.5141 3.75H12.0141C12.0141 4.718 12.8001 5.5 13.7661 5.5V4ZM14.0211 3.75C14.0211 3.886 13.9091 4 13.7681 4V5.5C14.7341 5.5 15.5211 4.718 15.5211 3.75H14.0211ZM14.0211 1.266V3.75H15.5211V1.266H14.0211ZM15.2611 1.519C17.4491 1.575 18.4301 1.811 19.0731 2.453L20.1331 1.391C19.0201 0.281001 17.4461 0.0750013 15.2991 0.0190013L15.2611 1.519ZM15.5211 1.266C15.5211 1.406 15.4051 1.522 15.2611 1.519L15.2991 0.0190013C15.1328 0.0148647 14.9673 0.044063 14.8124 0.104876C14.6575 0.165689 14.5163 0.256886 14.3972 0.373095C14.2781 0.489304 14.1835 0.628175 14.1189 0.781524C14.0543 0.934874 14.0211 1.0996 14.0211 1.266H15.5211ZM12.2561 1.5C12.19 1.49974 12.1276 1.47328 12.081 1.42643C12.0343 1.37957 12.0081 1.31613 12.0081 1.25L13.5081 1.246C13.5071 0.915174 13.3749 0.598259 13.1406 0.364703C12.9063 0.131146 12.5889 -4.2829e-07 12.2581 1.26556e-06V1.5H12.2561ZM15.8171 17.463C17.6921 17.384 19.1051 17.134 20.1321 16.109L19.0711 15.047C18.4851 15.633 17.6081 15.887 15.7541 15.965L15.8171 17.463ZM14.0211 13.75V15.727H15.5211V13.75H14.0211ZM12.0101 15.75C12.0101 15.871 12.0101 15.964 12.0071 16.043C12.0051 16.123 12.0011 16.169 11.9971 16.198C11.9931 16.226 11.9921 16.217 12.0031 16.188C12.0218 16.1449 12.0486 16.1059 12.0821 16.073L13.1411 17.135C13.3338 16.9358 13.4542 16.6777 13.4831 16.402C13.5101 16.205 13.5081 15.969 13.5091 15.755L12.0101 15.75ZM11.7591 17.5C11.9731 17.5 12.2101 17.502 12.4071 17.475C12.6261 17.445 12.9051 17.37 13.1411 17.135L12.0811 16.073C12.1147 16.0397 12.1544 16.0132 12.1981 15.995C12.2261 15.983 12.2361 15.985 12.2081 15.988C12.1563 15.994 12.1042 15.9973 12.0521 15.998C11.9721 16 11.8791 16 11.7591 16V17.5ZM15.7541 15.965C15.6341 15.97 15.5411 15.974 15.4621 15.975C15.3831 15.976 15.3371 15.975 15.3101 15.972C15.2831 15.969 15.2951 15.967 15.3251 15.979C15.3621 15.993 15.4051 16.019 15.4441 16.055L14.4061 17.138C14.6501 17.372 14.9351 17.442 15.1631 17.464C15.3651 17.484 15.6021 17.473 15.8161 17.464L15.7541 15.965ZM14.0211 15.727C14.0211 15.945 14.0191 16.187 14.0471 16.39C14.0781 16.616 14.1591 16.901 14.4061 17.138L15.4441 16.055C15.4841 16.093 15.5101 16.136 15.5261 16.172C15.5381 16.202 15.5361 16.212 15.5331 16.184C15.527 16.1312 15.5237 16.0781 15.5231 16.025C15.5211 15.945 15.5211 15.85 15.5211 15.727H14.0211Z" fill="black"/>
</svg>
