<svg width="16" height="20" viewBox="0 0 16 20" fill="none" xmlns="http://www.w3.org/2000/svg">
<path d="M8 13.9239C10.1511 13.9239 12.0446 14.1017 13.3766 14.5734C14.0376 14.8075 14.5077 15.0961 14.8071 15.423C15.0912 15.7329 15.25 16.1061 15.25 16.599C15.25 17.0906 15.0908 17.4614 14.8062 17.769C14.5056 18.0939 14.0338 18.3802 13.3707 18.6118C12.0348 19.0784 10.1404 19.25 8 19.25C5.84942 19.25 3.95586 19.0723 2.62375 18.6005C1.9627 18.3664 1.49251 18.0778 1.19294 17.7509C0.90886 17.4409 0.75 17.0678 0.75 16.575C0.75 16.0833 0.909245 15.7126 1.19383 15.4049C1.49438 15.08 1.96625 14.7937 2.6293 14.5621C3.96519 14.0956 5.85958 13.9239 8 13.9239ZM8 0.75C10.5252 0.75 12.544 2.76859 12.544 5.29105C12.544 7.8137 10.5251 9.83311 8 9.83311C5.47585 9.83311 3.45601 7.81361 3.45601 5.29105C3.45601 2.76868 5.47567 0.75 8 0.75Z" fill="white" stroke="white" stroke-width="1.5"/>
</svg>
