<svg width="80" height="80" viewBox="0 0 80 80" fill="none" xmlns="http://www.w3.org/2000/svg">
<rect width="80" height="80" fill="#1E1E1E"/>
<circle cx="40" cy="40" r="40" fill="#F37230"/>
<path d="M27.4188 24.4185C30.8882 20.9491 35.5937 19 40.5001 19C45.4066 19 50.1121 20.9491 53.5815 24.4185C57.0509 27.8879 59 32.5934 59 37.4999C59 42.4063 57.0509 47.1118 53.5815 50.5812L51.0596 53.0756C49.2005 54.8985 46.7891 57.2441 43.8231 60.1124C42.9316 60.9743 41.7401 61.4561 40.5001 61.4561C39.2601 61.4561 38.0686 60.9743 37.1772 60.1124L29.7601 52.8971C28.8253 51.9814 28.0477 51.2101 27.4188 50.5812C25.7008 48.8634 24.338 46.824 23.4083 44.5795C22.4785 42.335 22 39.9293 22 37.4999C22 35.0704 22.4785 32.6647 23.4083 30.4202C24.338 28.1757 25.7008 26.1363 27.4188 24.4185ZM51.3273 26.6706C49.9052 25.2486 48.2169 24.1207 46.3588 23.3512C44.5008 22.5816 42.5094 22.1856 40.4983 22.1857C38.4872 22.1858 36.4959 22.582 34.6379 23.3517C32.78 24.1214 31.0918 25.2495 29.6698 26.6717C28.2478 28.0938 27.1199 29.7821 26.3504 31.6401C25.5808 33.4981 25.1848 35.4895 25.1849 37.5006C25.185 39.5117 25.5812 41.5031 26.3509 43.361C27.1206 45.219 28.2488 46.9071 29.6709 48.3291L32.8323 51.4481C34.5703 53.1499 36.7587 55.2746 39.3932 57.822C39.6903 58.1089 40.0871 58.2692 40.5001 58.2692C40.9131 58.2692 41.31 58.1089 41.6071 57.822L48.8202 50.8107C49.8188 49.8312 50.6538 49.0048 51.3273 48.3291C54.1987 45.4575 55.8119 41.5629 55.8119 37.502C55.8119 33.441 54.1987 29.5464 51.3273 26.6748V26.6706ZM40.5001 31.7081C41.3377 31.7081 42.1671 31.8731 42.941 32.1936C43.7148 32.5141 44.4179 32.984 45.0102 33.5762C45.6024 34.1685 46.0722 34.8716 46.3928 35.6454C46.7133 36.4193 46.8783 37.2487 46.8783 38.0863C46.8783 38.9239 46.7133 39.7532 46.3928 40.5271C46.0722 41.3009 45.6024 42.004 45.0102 42.5963C44.4179 43.1886 43.7148 43.6584 42.941 43.9789C42.1671 44.2994 41.3377 44.4644 40.5001 44.4644C38.829 44.4339 37.2366 43.7486 36.0655 42.556C34.8945 41.3634 34.2384 39.7588 34.2384 38.0873C34.2384 36.4159 34.8945 34.8112 36.0655 33.6186C37.2366 32.426 38.829 31.7407 40.5001 31.7102V31.7081ZM40.5001 34.8951C39.6538 34.8951 38.8421 35.2313 38.2436 35.8297C37.6451 36.4282 37.3089 37.2399 37.3089 38.0863C37.3089 38.9326 37.6451 39.7443 38.2436 40.3428C38.8421 40.9412 39.6538 41.2775 40.5001 41.2775C41.332 41.256 42.1225 40.9105 42.7032 40.3145C43.284 39.7186 43.609 38.9194 43.609 38.0873C43.609 37.2552 43.284 36.456 42.7032 35.8601C42.1225 35.2642 41.332 34.9187 40.5001 34.8972V34.8951Z" fill="white"/>
</svg>
