<svg width="27" height="50" viewBox="0 0 27 50" fill="none" xmlns="http://www.w3.org/2000/svg">
<path d="M21.5563 6.58176L16.8301 2.59325C15.7009 1.64026 14.2781 1.12889 12.8749 1.17163C11.4716 1.21437 10.2028 1.80772 9.34755 2.82115L6.12284 6.64231C-2.78221 17.1944 -0.469512 33.7916 11.2886 43.7143L15.5464 47.3076C16.6757 48.2606 18.0984 48.772 19.5017 48.7292C20.9049 48.6865 22.1737 48.0931 23.029 47.0797L25.2573 44.4393C25.5564 44.0844 25.7396 43.6437 25.7862 43.1665C25.8329 42.6894 25.7412 42.1946 25.5214 41.7377L22.3257 35.0891C22.1562 34.7364 21.915 34.4157 21.6184 34.1487C21.3218 33.8817 20.9767 33.6746 20.6065 33.5415C20.2363 33.4084 19.8497 33.3523 19.4727 33.3772C19.0958 33.402 18.7374 33.507 18.4217 33.6853L16.3496 34.8578C15.7 35.2248 14.9102 35.3306 14.1285 35.1553C13.3469 34.9799 12.6272 34.5355 12.1047 33.9056C9.99036 31.3549 8.62959 28.3239 8.19387 25.1946C7.75815 22.0652 8.26697 18.9774 9.65621 16.3204C9.99947 15.6641 10.5898 15.1798 11.3162 14.9586C12.0425 14.7373 12.855 14.7943 13.601 15.1188L16.5564 16.4025C17.1931 16.6793 17.8877 16.72 18.5014 16.5163C19.1152 16.3127 19.6029 15.8797 19.8674 15.3039L22.4009 9.7708C22.6342 9.26031 22.6778 8.66923 22.5248 8.09144C22.3718 7.51366 22.0309 6.98229 21.5563 6.58176Z" stroke="#FD5901"/>
</svg>
