<svg width="27" height="34" viewBox="0 0 27 34" fill="none" xmlns="http://www.w3.org/2000/svg">
<path d="M13.3005 3.04749L8.9719 1.44431C7.93765 1.06125 6.8092 1.0626 5.8348 1.44806C4.8604 1.83351 4.11986 2.5715 3.77609 3.49967L2.47992 6.99934C-1.09946 16.6637 4.72839 27.7308 15.4972 31.7192L19.3969 33.1635C20.4311 33.5466 21.5596 33.5452 22.534 33.1598C23.5084 32.7743 24.2489 32.0363 24.5927 31.1082L25.4883 28.6899C25.6085 28.365 25.6254 28.0091 25.5373 27.6623C25.4492 27.3155 25.2595 26.9914 24.9895 26.7262L21.0616 22.8677C20.8533 22.663 20.6027 22.4989 20.3268 22.3866C20.051 22.2743 19.7562 22.2163 19.4626 22.2166C19.169 22.2169 18.8833 22.2755 18.6249 22.3884C18.3666 22.5013 18.1415 22.6659 17.9651 22.871L16.8072 24.2191C16.4441 24.6413 15.9164 24.9156 15.3231 24.9905C14.7299 25.0654 14.1121 24.9357 13.5857 24.6258C11.4551 23.3705 9.73193 21.5871 8.63333 19.5003C7.53473 17.4136 7.10984 15.1168 7.4122 12.8994C7.48696 12.3516 7.77873 11.8621 8.23269 11.5227C8.68664 11.1834 9.27153 11.0176 9.87745 11.0565L12.2776 11.2092C12.7948 11.2422 13.2927 11.0948 13.6721 10.7964C14.0514 10.498 14.2842 10.0704 14.324 9.59915L14.7012 5.0726C14.7357 4.65509 14.6166 4.22903 14.3629 3.86212C14.1091 3.49521 13.7352 3.20849 13.3005 3.04749Z" fill="#FD5901" stroke="#FD5901"/>
</svg>
