<svg width="987" height="34" viewBox="0 0 987 34" fill="none" xmlns="http://www.w3.org/2000/svg">
<path d="M13.5 18.1875C16.0888 18.1875 18.1875 16.0888 18.1875 13.5C18.1875 10.9112 16.0888 8.8125 13.5 8.8125C10.9112 8.8125 8.8125 10.9112 8.8125 13.5C8.8125 16.0888 10.9112 18.1875 13.5 18.1875Z" stroke="black" stroke-width="2" stroke-linecap="round" stroke-linejoin="round"/>
<path d="M973.5 18.1875C976.089 18.1875 978.188 16.0888 978.188 13.5C978.188 10.9112 976.089 8.8125 973.5 8.8125C970.911 8.8125 968.812 10.9112 968.812 13.5C968.812 16.0888 970.911 18.1875 973.5 18.1875Z" stroke="black" stroke-width="2" stroke-linecap="round" stroke-linejoin="round"/>
<path d="M13.5 1C10.1848 1 7.00537 2.31696 4.66117 4.66117C2.31696 7.00537 1 10.1848 1 13.5C1 16.4562 1.62812 18.3906 3.34375 20.5312L13.5 32.25L23.6562 20.5312C25.3719 18.3906 26 16.4562 26 13.5C26 10.1848 24.683 7.00537 22.3388 4.66117C19.9946 2.31696 16.8152 1 13.5 1Z" stroke="black" stroke-width="2" stroke-linecap="round" stroke-linejoin="round"/>
<path d="M973.5 1C970.185 1 967.005 2.31696 964.661 4.66117C962.317 7.00537 961 10.1848 961 13.5C961 16.4562 961.628 18.3906 963.344 20.5312L973.5 32.25L983.656 20.5312C985.372 18.3906 986 16.4562 986 13.5C986 10.1848 984.683 7.00537 982.339 4.66117C979.995 2.31696 976.815 1 973.5 1Z" stroke="black" stroke-width="2" stroke-linecap="round" stroke-linejoin="round"/>
</svg>
