<svg width="100" height="100" viewBox="0 0 100 100" fill="none" xmlns="http://www.w3.org/2000/svg">
<circle cx="50" cy="50" r="50" fill="#5956E9"/>
<g clip-path="url(#clip0_85_203)">
<path d="M65 57.3667V63.26C65.0002 63.682 64.8403 64.0883 64.5527 64.397C64.265 64.7057 63.8709 64.8938 63.45 64.9233C62.7217 64.9733 62.1267 65 61.6667 65C46.9383 65 35 53.0617 35 38.3333C35 37.8733 35.025 37.2783 35.0767 36.55C35.1062 36.1291 35.2943 35.735 35.603 35.4473C35.9117 35.1597 36.318 34.9998 36.74 35H42.6333C42.8401 34.9998 43.0395 35.0764 43.1929 35.215C43.3463 35.3536 43.4427 35.5443 43.4633 35.75C43.5017 36.1333 43.5367 36.4383 43.57 36.67C43.9012 38.9815 44.58 41.2297 45.5833 43.3383C45.7417 43.6717 45.6383 44.07 45.3383 44.2833L41.7417 46.8533C43.9408 51.9774 48.0242 56.0609 53.1483 58.26L55.715 54.67C55.8199 54.5233 55.973 54.4181 56.1475 54.3728C56.322 54.3274 56.5069 54.3447 56.67 54.4217C58.7784 55.4231 61.026 56.1002 63.3367 56.43C63.5683 56.4633 63.8733 56.5 64.2533 56.5367C64.4587 56.5577 64.649 56.6543 64.7873 56.8076C64.9255 56.961 65.0019 57.1602 65.0017 57.3667H65Z" fill="white"/>
</g>
<defs>
<clipPath id="clip0_85_203">
<rect width="40" height="40" fill="white" transform="translate(30 30)"/>
</clipPath>
</defs>
</svg>
