<svg width="367" height="299" viewBox="0 0 367 299" fill="none" xmlns="http://www.w3.org/2000/svg">
<path d="M0.375 14.5146C0.375 6.49839 6.87339 0 14.8896 0H351.627C359.644 0 366.142 6.49839 366.142 14.5146V284.485C366.142 292.502 359.644 299 351.627 299H14.8896C6.8734 299 0.375 292.502 0.375 284.485V14.5146Z" fill="#272727"/>
<path d="M152.795 36.2868C139.909 36.2526 125.395 37.2891 108.503 39.8902C106.509 40.1691 87.3 51.1264 82.1212 58.6891C76.9423 66.2522 75.1708 80.6483 75.1708 80.6483C73.7726 86.5437 74.622 96.2882 75.012 97.2356C75.5383 99.287 78.5119 101.009 83.6192 102.253C84.2148 92.7806 92.065 85.3993 101.557 85.3876C111.495 85.3876 119.552 93.4446 119.552 103.382C119.545 104.176 119.486 104.968 119.375 105.754C119.641 105.757 119.942 105.765 120.194 105.767L227.831 106.663C227.627 105.581 227.523 104.483 227.519 103.382C227.519 93.4446 235.576 85.3876 245.514 85.3876C255.452 85.3876 263.508 93.4446 263.508 103.382C263.508 104.582 263.389 105.78 263.15 106.956L291.125 107.188C291.718 96.9261 294.211 86.1483 287.966 77.1735C285.511 73.6466 273.601 67.2594 243.416 62.481C227.82 54.6489 212.599 45.7686 196.022 40.6797C183.242 38.1447 169.364 36.3304 152.795 36.2868ZM145.059 41.678C147.757 41.6978 150.232 41.8084 152.263 42.0424L155.541 63.7942C136.903 61.503 117.911 59.4471 107.872 51.4229C108.029 48.9487 111.453 45.3669 115.297 43.9975C117.475 43.2219 133.366 41.5925 145.059 41.678ZM160.635 41.8345C171.887 41.9533 188.541 43.0447 199.999 48.1056C205.489 50.6473 215.823 56.5963 222.734 61.8489L219.877 66.5883C201.115 65.7425 176.111 64.6975 165.849 63.5382L160.635 41.8345ZM101.557 92.5854C98.6936 92.5854 95.9474 93.7229 93.9226 95.7477C91.8979 97.7725 90.7603 100.519 90.7603 103.382C90.7603 106.246 91.8979 108.992 93.9226 111.017C95.9474 113.041 98.6936 114.179 101.557 114.179C104.421 114.179 107.167 113.041 109.191 111.017C111.216 108.992 112.354 106.246 112.354 103.382C112.354 100.519 111.216 97.7725 109.191 95.7477C107.167 93.7229 104.421 92.5854 101.557 92.5854ZM245.513 92.5854C242.65 92.5854 239.904 93.7229 237.879 95.7477C235.854 97.7725 234.717 100.519 234.717 103.382C234.717 106.246 235.854 108.992 237.879 111.017C239.904 113.041 242.65 114.179 245.513 114.179C248.377 114.179 251.123 113.041 253.148 111.017C255.173 108.992 256.31 106.246 256.31 103.382C256.31 100.519 255.173 97.7725 253.148 95.7477C251.123 93.7229 248.377 92.5854 245.513 92.5854Z" fill="#FD5901"/>
<path d="M96.7882 138.128C97.6445 138.288 98.3485 138.716 98.9001 139.412C99.4516 140.109 99.7274 140.907 99.7274 141.807C99.7274 142.62 99.5242 143.339 99.1178 143.963C98.7259 144.572 98.1526 145.051 97.3978 145.4C96.643 145.748 95.7504 145.922 94.7199 145.922H88.1665V130.725H94.4368C95.4674 130.725 96.3527 130.892 97.093 131.226C97.8477 131.56 98.4138 132.024 98.7912 132.62C99.1831 133.215 99.379 133.89 99.379 134.644C99.379 135.53 99.1395 136.27 98.6606 136.865C98.1961 137.46 97.572 137.881 96.7882 138.128ZM91.2146 136.996H94.0014C94.7271 136.996 95.2859 136.836 95.6778 136.517C96.0697 136.183 96.2657 135.711 96.2657 135.102C96.2657 134.492 96.0697 134.02 95.6778 133.686C95.2859 133.353 94.7271 133.186 94.0014 133.186H91.2146V136.996ZM94.2844 143.44C95.0247 143.44 95.598 143.266 96.0044 142.918C96.4253 142.569 96.6358 142.076 96.6358 141.437C96.6358 140.784 96.4181 140.276 95.9826 139.913C95.5472 139.536 94.9594 139.347 94.2191 139.347H91.2146V143.44H94.2844Z" fill="white"/>
<path d="M113.543 133.861V145.922H110.473V144.398C110.082 144.921 109.566 145.334 108.928 145.639C108.304 145.929 107.621 146.075 106.881 146.075C105.938 146.075 105.103 145.879 104.377 145.487C103.652 145.08 103.078 144.492 102.657 143.723C102.251 142.939 102.048 142.011 102.048 140.936V133.861H105.096V140.501C105.096 141.459 105.335 142.199 105.814 142.722C106.293 143.23 106.946 143.484 107.774 143.484C108.616 143.484 109.276 143.23 109.755 142.722C110.234 142.199 110.473 141.459 110.473 140.501V133.861H113.543Z" fill="white"/>
<path d="M121.166 146.118C120.179 146.118 119.294 145.944 118.51 145.596C117.726 145.233 117.102 144.747 116.638 144.137C116.188 143.527 115.941 142.852 115.898 142.112H118.967C119.025 142.577 119.25 142.961 119.642 143.266C120.049 143.571 120.549 143.723 121.145 143.723C121.725 143.723 122.175 143.607 122.494 143.375C122.828 143.143 122.995 142.845 122.995 142.482C122.995 142.09 122.792 141.8 122.386 141.611C121.994 141.408 121.362 141.19 120.491 140.958C119.592 140.74 118.851 140.516 118.271 140.283C117.705 140.051 117.211 139.695 116.79 139.216C116.384 138.737 116.181 138.092 116.181 137.279C116.181 136.611 116.369 136.001 116.747 135.45C117.139 134.898 117.69 134.463 118.401 134.144C119.127 133.824 119.976 133.665 120.949 133.665C122.386 133.665 123.532 134.027 124.389 134.753C125.245 135.464 125.717 136.43 125.804 137.649H122.886C122.843 137.17 122.64 136.793 122.277 136.517C121.928 136.226 121.457 136.081 120.862 136.081C120.31 136.081 119.882 136.183 119.577 136.386C119.287 136.589 119.142 136.872 119.142 137.235C119.142 137.642 119.345 137.954 119.751 138.171C120.158 138.375 120.789 138.585 121.645 138.803C122.516 139.02 123.235 139.245 123.801 139.478C124.367 139.71 124.853 140.073 125.259 140.566C125.68 141.045 125.898 141.684 125.913 142.482C125.913 143.179 125.717 143.803 125.325 144.355C124.947 144.906 124.396 145.342 123.67 145.661C122.959 145.966 122.124 146.118 121.166 146.118Z" fill="white"/>
<path d="M129.96 132.424C129.423 132.424 128.973 132.257 128.611 131.923C128.262 131.575 128.088 131.146 128.088 130.638C128.088 130.13 128.262 129.709 128.611 129.376C128.973 129.027 129.423 128.853 129.96 128.853C130.498 128.853 130.94 129.027 131.289 129.376C131.651 129.709 131.833 130.13 131.833 130.638C131.833 131.146 131.651 131.575 131.289 131.923C130.94 132.257 130.498 132.424 129.96 132.424ZM131.463 133.861V145.922H128.415V133.861H131.463Z" fill="white"/>
<path d="M141.158 133.686C142.595 133.686 143.756 134.144 144.642 135.058C145.527 135.958 145.97 137.221 145.97 138.846V145.922H142.922V139.26C142.922 138.302 142.682 137.569 142.203 137.061C141.724 136.539 141.071 136.277 140.244 136.277C139.402 136.277 138.734 136.539 138.241 137.061C137.762 137.569 137.522 138.302 137.522 139.26V145.922H134.474V133.861H137.522V135.363C137.929 134.84 138.444 134.434 139.068 134.144C139.707 133.839 140.403 133.686 141.158 133.686Z" fill="white"/>
<path d="M160.081 139.63C160.081 140.066 160.052 140.457 159.994 140.806H151.176C151.249 141.677 151.554 142.359 152.091 142.852C152.628 143.346 153.288 143.593 154.072 143.593C155.204 143.593 156.009 143.106 156.488 142.134H159.776C159.428 143.295 158.76 144.253 157.773 145.008C156.786 145.748 155.574 146.118 154.137 146.118C152.976 146.118 151.931 145.864 151.002 145.356C150.088 144.834 149.369 144.101 148.847 143.157C148.339 142.214 148.085 141.125 148.085 139.891C148.085 138.643 148.339 137.547 148.847 136.604C149.355 135.66 150.066 134.935 150.98 134.427C151.895 133.919 152.947 133.665 154.137 133.665C155.284 133.665 156.307 133.911 157.207 134.405C158.121 134.898 158.825 135.602 159.319 136.517C159.827 137.417 160.081 138.454 160.081 139.63ZM156.924 138.759C156.909 137.975 156.626 137.351 156.075 136.887C155.523 136.408 154.848 136.168 154.05 136.168C153.295 136.168 152.657 136.401 152.134 136.865C151.626 137.315 151.314 137.946 151.198 138.759H156.924Z" fill="white"/>
<path d="M166.921 146.118C165.934 146.118 165.049 145.944 164.265 145.596C163.481 145.233 162.857 144.747 162.393 144.137C161.943 143.527 161.696 142.852 161.652 142.112H164.722C164.78 142.577 165.005 142.961 165.397 143.266C165.804 143.571 166.304 143.723 166.899 143.723C167.48 143.723 167.93 143.607 168.249 143.375C168.583 143.143 168.75 142.845 168.75 142.482C168.75 142.09 168.547 141.8 168.14 141.611C167.749 141.408 167.117 141.19 166.246 140.958C165.346 140.74 164.606 140.516 164.026 140.283C163.46 140.051 162.966 139.695 162.545 139.216C162.139 138.737 161.936 138.092 161.936 137.279C161.936 136.611 162.124 136.001 162.502 135.45C162.893 134.898 163.445 134.463 164.156 134.144C164.882 133.824 165.731 133.665 166.704 133.665C168.14 133.665 169.287 134.027 170.143 134.753C171 135.464 171.472 136.43 171.559 137.649H168.641C168.598 137.17 168.394 136.793 168.032 136.517C167.683 136.226 167.212 136.081 166.616 136.081C166.065 136.081 165.637 136.183 165.332 136.386C165.042 136.589 164.896 136.872 164.896 137.235C164.896 137.642 165.1 137.954 165.506 138.171C165.912 138.375 166.544 138.585 167.4 138.803C168.271 139.02 168.99 139.245 169.556 139.478C170.122 139.71 170.608 140.073 171.014 140.566C171.435 141.045 171.653 141.684 171.668 142.482C171.668 143.179 171.472 143.803 171.08 144.355C170.702 144.906 170.151 145.342 169.425 145.661C168.714 145.966 167.879 146.118 166.921 146.118Z" fill="white"/>
<path d="M178.785 146.118C177.798 146.118 176.913 145.944 176.129 145.596C175.345 145.233 174.721 144.747 174.257 144.137C173.807 143.527 173.56 142.852 173.516 142.112H176.586C176.644 142.577 176.869 142.961 177.261 143.266C177.668 143.571 178.168 143.723 178.763 143.723C179.344 143.723 179.794 143.607 180.113 143.375C180.447 143.143 180.614 142.845 180.614 142.482C180.614 142.09 180.411 141.8 180.004 141.611C179.613 141.408 178.981 141.19 178.11 140.958C177.21 140.74 176.47 140.516 175.89 140.283C175.323 140.051 174.83 139.695 174.409 139.216C174.003 138.737 173.799 138.092 173.799 137.279C173.799 136.611 173.988 136.001 174.366 135.45C174.757 134.898 175.309 134.463 176.02 134.144C176.746 133.824 177.595 133.665 178.567 133.665C180.004 133.665 181.151 134.027 182.007 134.753C182.864 135.464 183.336 136.43 183.423 137.649H180.505C180.462 137.17 180.258 136.793 179.896 136.517C179.547 136.226 179.075 136.081 178.48 136.081C177.929 136.081 177.501 136.183 177.196 136.386C176.906 136.589 176.76 136.872 176.76 137.235C176.76 137.642 176.964 137.954 177.37 138.171C177.776 138.375 178.408 138.585 179.264 138.803C180.135 139.02 180.854 139.245 181.42 139.478C181.986 139.71 182.472 140.073 182.878 140.566C183.299 141.045 183.517 141.684 183.531 142.482C183.531 143.179 183.336 143.803 182.944 144.355C182.566 144.906 182.015 145.342 181.289 145.661C180.578 145.966 179.743 146.118 178.785 146.118Z" fill="white"/>
<path d="M190.481 138.302C190.481 136.807 190.815 135.472 191.483 134.296C192.165 133.106 193.086 132.184 194.248 131.531C195.423 130.863 196.737 130.529 198.188 130.529C199.887 130.529 201.374 130.965 202.652 131.836C203.929 132.707 204.822 133.911 205.33 135.45H201.824C201.476 134.724 200.982 134.18 200.344 133.817C199.72 133.454 198.994 133.273 198.167 133.273C197.281 133.273 196.49 133.483 195.793 133.904C195.111 134.311 194.574 134.891 194.182 135.646C193.805 136.401 193.616 137.286 193.616 138.302C193.616 139.304 193.805 140.189 194.182 140.958C194.574 141.713 195.111 142.301 195.793 142.722C196.49 143.128 197.281 143.331 198.167 143.331C198.994 143.331 199.72 143.15 200.344 142.787C200.982 142.41 201.476 141.858 201.824 141.132H205.33C204.822 142.685 203.929 143.897 202.652 144.768C201.389 145.625 199.901 146.053 198.188 146.053C196.737 146.053 195.423 145.726 194.248 145.073C193.086 144.405 192.165 143.484 191.483 142.308C190.815 141.132 190.481 139.797 190.481 138.302Z" fill="white"/>
<path d="M210.981 129.811V145.922H207.933V129.811H210.981Z" fill="white"/>
<path d="M213.209 139.848C213.209 138.629 213.448 137.547 213.927 136.604C214.421 135.66 215.081 134.935 215.908 134.427C216.75 133.919 217.686 133.665 218.717 133.665C219.617 133.665 220.401 133.846 221.068 134.209C221.751 134.572 222.295 135.029 222.701 135.581V133.861H225.771V145.922H222.701V144.159C222.309 144.725 221.765 145.196 221.068 145.574C220.386 145.937 219.595 146.118 218.695 146.118C217.679 146.118 216.75 145.857 215.908 145.334C215.081 144.812 214.421 144.079 213.927 143.135C213.448 142.177 213.209 141.082 213.209 139.848ZM222.701 139.891C222.701 139.151 222.556 138.52 222.266 137.997C221.975 137.46 221.584 137.054 221.09 136.778C220.597 136.488 220.067 136.343 219.501 136.343C218.935 136.343 218.412 136.48 217.933 136.756C217.454 137.032 217.062 137.438 216.758 137.975C216.467 138.498 216.322 139.122 216.322 139.848C216.322 140.574 216.467 141.212 216.758 141.764C217.062 142.301 217.454 142.714 217.933 143.005C218.427 143.295 218.949 143.44 219.501 143.44C220.067 143.44 220.597 143.302 221.09 143.027C221.584 142.736 221.975 142.33 222.266 141.807C222.556 141.27 222.701 140.632 222.701 139.891Z" fill="white"/>
<path d="M233.364 146.118C232.377 146.118 231.491 145.944 230.707 145.596C229.924 145.233 229.3 144.747 228.835 144.137C228.385 143.527 228.138 142.852 228.095 142.112H231.165C231.223 142.577 231.448 142.961 231.84 143.266C232.246 143.571 232.747 143.723 233.342 143.723C233.922 143.723 234.372 143.607 234.692 143.375C235.026 143.143 235.192 142.845 235.192 142.482C235.192 142.09 234.989 141.8 234.583 141.611C234.191 141.408 233.56 141.19 232.689 140.958C231.789 140.74 231.049 140.516 230.468 140.283C229.902 140.051 229.408 139.695 228.988 139.216C228.581 138.737 228.378 138.092 228.378 137.279C228.378 136.611 228.567 136.001 228.944 135.45C229.336 134.898 229.887 134.463 230.599 134.144C231.324 133.824 232.173 133.665 233.146 133.665C234.583 133.665 235.73 134.027 236.586 134.753C237.442 135.464 237.914 136.43 238.001 137.649H235.084C235.04 137.17 234.837 136.793 234.474 136.517C234.126 136.226 233.654 136.081 233.059 136.081C232.507 136.081 232.079 136.183 231.774 136.386C231.484 136.589 231.339 136.872 231.339 137.235C231.339 137.642 231.542 137.954 231.948 138.171C232.355 138.375 232.986 138.585 233.843 138.803C234.714 139.02 235.432 139.245 235.998 139.478C236.564 139.71 237.05 140.073 237.457 140.566C237.878 141.045 238.095 141.684 238.11 142.482C238.11 143.179 237.914 143.803 237.522 144.355C237.145 144.906 236.593 145.342 235.867 145.661C235.156 145.966 234.322 146.118 233.364 146.118Z" fill="white"/>
<path d="M245.228 146.118C244.241 146.118 243.355 145.944 242.571 145.596C241.788 145.233 241.164 144.747 240.699 144.137C240.249 143.527 240.002 142.852 239.959 142.112H243.029C243.087 142.577 243.312 142.961 243.704 143.266C244.11 143.571 244.611 143.723 245.206 143.723C245.786 143.723 246.236 143.607 246.556 143.375C246.89 143.143 247.056 142.845 247.056 142.482C247.056 142.09 246.853 141.8 246.447 141.611C246.055 141.408 245.424 141.19 244.553 140.958C243.653 140.74 242.913 140.516 242.332 140.283C241.766 140.051 241.272 139.695 240.851 139.216C240.445 138.737 240.242 138.092 240.242 137.279C240.242 136.611 240.431 136.001 240.808 135.45C241.2 134.898 241.751 134.463 242.463 134.144C243.188 133.824 244.037 133.665 245.01 133.665C246.447 133.665 247.593 134.027 248.45 134.753C249.306 135.464 249.778 136.43 249.865 137.649H246.948C246.904 137.17 246.701 136.793 246.338 136.517C245.99 136.226 245.518 136.081 244.923 136.081C244.371 136.081 243.943 136.183 243.638 136.386C243.348 136.589 243.203 136.872 243.203 137.235C243.203 137.642 243.406 137.954 243.812 138.171C244.219 138.375 244.85 138.585 245.707 138.803C246.577 139.02 247.296 139.245 247.862 139.478C248.428 139.71 248.914 140.073 249.321 140.566C249.742 141.045 249.959 141.684 249.974 142.482C249.974 143.179 249.778 143.803 249.386 144.355C249.009 144.906 248.457 145.342 247.731 145.661C247.02 145.966 246.186 146.118 245.228 146.118Z" fill="white"/>
<path d="M46.6055 166.995V177.112H45.2847V166.995H46.6055Z" fill="white"/>
<path d="M52.0934 170.247H50.4242V177.112H49.1034V170.247H48.0729V169.158H49.1034V168.592C49.1034 167.702 49.3308 167.053 49.7856 166.647C50.2501 166.231 50.9903 166.023 52.0063 166.023V167.126C51.4257 167.126 51.0145 167.242 50.7726 167.474C50.5404 167.697 50.4242 168.069 50.4242 168.592V169.158H52.0934V170.247Z" fill="white"/>
<path d="M64.3539 169.158L59.5641 180.857H58.1997L59.7673 177.025L56.5596 169.158H58.0256L60.5221 175.603L62.9895 169.158H64.3539Z" fill="white"/>
<path d="M69.1506 177.243C68.4056 177.243 67.7282 177.073 67.1186 176.735C66.5187 176.396 66.0445 175.917 65.6962 175.298C65.3575 174.669 65.1882 173.943 65.1882 173.121C65.1882 172.308 65.3623 171.592 65.7107 170.972C66.0687 170.343 66.5525 169.864 67.1621 169.535C67.7718 169.197 68.4539 169.027 69.2087 169.027C69.9634 169.027 70.6456 169.197 71.2552 169.535C71.8649 169.864 72.3438 170.339 72.6922 170.958C73.0502 171.577 73.2292 172.298 73.2292 173.121C73.2292 173.943 73.0454 174.669 72.6777 175.298C72.3196 175.917 71.831 176.396 71.2117 176.735C70.5924 177.073 69.9054 177.243 69.1506 177.243ZM69.1506 176.082C69.6248 176.082 70.0699 175.97 70.486 175.748C70.9021 175.525 71.2359 175.191 71.4875 174.746C71.7487 174.301 71.8794 173.759 71.8794 173.121C71.8794 172.482 71.7536 171.94 71.502 171.495C71.2504 171.05 70.9214 170.721 70.515 170.508C70.1086 170.285 69.6683 170.174 69.1942 170.174C68.7104 170.174 68.2652 170.285 67.8588 170.508C67.4621 170.721 67.1428 171.05 66.9009 171.495C66.659 171.94 66.538 172.482 66.538 173.121C66.538 173.769 66.6541 174.316 66.8864 174.761C67.1283 175.206 67.4476 175.54 67.8443 175.762C68.2411 175.975 68.6765 176.082 69.1506 176.082Z" fill="white"/>
<path d="M82.02 169.158V177.112H80.6991V175.936C80.4475 176.343 80.0943 176.662 79.6396 176.894C79.1944 177.117 78.701 177.228 78.1591 177.228C77.5398 177.228 76.9834 177.102 76.4899 176.851C75.9964 176.59 75.6045 176.202 75.3142 175.69C75.0336 175.177 74.8933 174.553 74.8933 173.817V169.158H76.1996V173.643C76.1996 174.427 76.398 175.032 76.7947 175.457C77.1914 175.873 77.7333 176.082 78.4203 176.082C79.1267 176.082 79.6831 175.864 80.0895 175.428C80.4959 174.993 80.6991 174.359 80.6991 173.527V169.158H82.02Z" fill="white"/>
<path d="M87.6262 173.121C87.6262 172.298 87.7907 171.582 88.1197 170.972C88.4487 170.353 88.9035 169.874 89.4841 169.535C90.0743 169.197 90.7468 169.027 91.5016 169.027C92.4789 169.027 93.282 169.265 93.911 169.739C94.5497 170.213 94.9706 170.871 95.1738 171.713H93.7514C93.6159 171.229 93.3498 170.847 92.953 170.566C92.566 170.285 92.0822 170.145 91.5016 170.145C90.7468 170.145 90.1372 170.406 89.6728 170.929C89.2083 171.442 88.9761 172.172 88.9761 173.121C88.9761 174.079 89.2083 174.819 89.6728 175.341C90.1372 175.864 90.7468 176.125 91.5016 176.125C92.0822 176.125 92.566 175.99 92.953 175.719C93.3401 175.448 93.6062 175.061 93.7514 174.557H95.1738C94.9609 175.37 94.5351 176.023 93.8965 176.517C93.2579 177.001 92.4595 177.243 91.5016 177.243C90.7468 177.243 90.0743 177.073 89.4841 176.735C88.9035 176.396 88.4487 175.917 88.1197 175.298C87.7907 174.678 87.6262 173.953 87.6262 173.121Z" fill="white"/>
<path d="M96.4427 173.106C96.4427 172.293 96.6072 171.582 96.9362 170.972C97.2652 170.353 97.7151 169.874 98.286 169.535C98.8666 169.197 99.5101 169.027 100.216 169.027C100.913 169.027 101.518 169.177 102.031 169.477C102.544 169.777 102.926 170.155 103.177 170.61V169.158H104.513V177.112H103.177V175.632C102.916 176.096 102.524 176.483 102.002 176.793C101.489 177.093 100.889 177.243 100.202 177.243C99.4956 177.243 98.8569 177.069 98.286 176.72C97.7151 176.372 97.2652 175.883 96.9362 175.254C96.6072 174.625 96.4427 173.909 96.4427 173.106ZM103.177 173.121C103.177 172.521 103.056 171.998 102.815 171.553C102.573 171.108 102.244 170.769 101.828 170.537C101.421 170.295 100.971 170.174 100.478 170.174C99.9842 170.174 99.5343 170.29 99.1279 170.522C98.7214 170.755 98.3973 171.093 98.1554 171.538C97.9135 171.984 97.7925 172.506 97.7925 173.106C97.7925 173.716 97.9135 174.248 98.1554 174.703C98.3973 175.148 98.7214 175.491 99.1279 175.733C99.5343 175.965 99.9842 176.082 100.478 176.082C100.971 176.082 101.421 175.965 101.828 175.733C102.244 175.491 102.573 175.148 102.815 174.703C103.056 174.248 103.177 173.72 103.177 173.121Z" fill="white"/>
<path d="M110.62 169.013C111.588 169.013 112.372 169.308 112.972 169.898C113.572 170.479 113.871 171.321 113.871 172.424V177.112H112.565V172.613C112.565 171.819 112.367 171.214 111.97 170.798C111.573 170.372 111.031 170.16 110.344 170.16C109.648 170.16 109.091 170.377 108.675 170.813C108.269 171.248 108.066 171.882 108.066 172.714V177.112H106.745V169.158H108.066V170.29C108.327 169.884 108.68 169.569 109.125 169.347C109.58 169.124 110.078 169.013 110.62 169.013Z" fill="white"/>
<path d="M122.714 177.243C122.105 177.243 121.558 177.141 121.074 176.938C120.591 176.725 120.208 176.435 119.928 176.067C119.647 175.69 119.492 175.259 119.463 174.775H120.828C120.866 175.172 121.05 175.496 121.379 175.748C121.718 175.999 122.158 176.125 122.7 176.125C123.203 176.125 123.6 176.014 123.89 175.791C124.18 175.569 124.326 175.288 124.326 174.949C124.326 174.601 124.171 174.345 123.861 174.18C123.551 174.006 123.073 173.837 122.424 173.672C121.834 173.517 121.35 173.362 120.973 173.208C120.605 173.043 120.286 172.806 120.015 172.496C119.754 172.177 119.623 171.761 119.623 171.248C119.623 170.842 119.744 170.469 119.986 170.131C120.228 169.792 120.571 169.526 121.016 169.332C121.461 169.129 121.969 169.027 122.54 169.027C123.421 169.027 124.132 169.25 124.674 169.695C125.216 170.14 125.506 170.75 125.545 171.524H124.224C124.195 171.108 124.026 170.774 123.716 170.522C123.416 170.271 123.01 170.145 122.497 170.145C122.023 170.145 121.645 170.247 121.365 170.45C121.084 170.653 120.944 170.919 120.944 171.248C120.944 171.509 121.026 171.727 121.19 171.901C121.365 172.066 121.577 172.201 121.829 172.308C122.09 172.405 122.448 172.516 122.903 172.642C123.474 172.796 123.939 172.951 124.297 173.106C124.655 173.251 124.959 173.474 125.211 173.774C125.472 174.074 125.608 174.466 125.617 174.949C125.617 175.385 125.496 175.777 125.255 176.125C125.013 176.473 124.669 176.749 124.224 176.952C123.789 177.146 123.285 177.243 122.714 177.243Z" fill="white"/>
<path d="M134.739 172.83C134.739 173.082 134.725 173.348 134.696 173.629H128.338C128.387 174.412 128.653 175.027 129.137 175.472C129.63 175.907 130.225 176.125 130.922 176.125C131.493 176.125 131.967 175.994 132.344 175.733C132.731 175.462 133.002 175.104 133.157 174.659H134.58C134.367 175.424 133.941 176.048 133.302 176.531C132.664 177.006 131.87 177.243 130.922 177.243C130.167 177.243 129.49 177.073 128.89 176.735C128.3 176.396 127.835 175.917 127.496 175.298C127.158 174.669 126.988 173.943 126.988 173.121C126.988 172.298 127.153 171.577 127.482 170.958C127.811 170.339 128.271 169.864 128.861 169.535C129.461 169.197 130.148 169.027 130.922 169.027C131.677 169.027 132.344 169.192 132.925 169.521C133.505 169.85 133.951 170.305 134.26 170.885C134.58 171.456 134.739 172.105 134.739 172.83ZM133.375 172.554C133.375 172.051 133.264 171.621 133.041 171.263C132.818 170.895 132.514 170.619 132.127 170.435C131.749 170.242 131.328 170.145 130.864 170.145C130.196 170.145 129.625 170.358 129.151 170.784C128.687 171.209 128.421 171.8 128.353 172.554H133.375Z" fill="white"/>
<path d="M137.803 166.371V177.112H136.483V166.371H137.803Z" fill="white"/>
<path d="M147.312 172.83C147.312 173.082 147.297 173.348 147.268 173.629H140.911C140.959 174.412 141.225 175.027 141.709 175.472C142.203 175.907 142.798 176.125 143.495 176.125C144.065 176.125 144.54 175.994 144.917 175.733C145.304 175.462 145.575 175.104 145.73 174.659H147.152C146.939 175.424 146.514 176.048 145.875 176.531C145.236 177.006 144.443 177.243 143.495 177.243C142.74 177.243 142.062 177.073 141.463 176.735C140.872 176.396 140.408 175.917 140.069 175.298C139.73 174.669 139.561 173.943 139.561 173.121C139.561 172.298 139.726 171.577 140.055 170.958C140.384 170.339 140.843 169.864 141.434 169.535C142.033 169.197 142.72 169.027 143.495 169.027C144.249 169.027 144.917 169.192 145.498 169.521C146.078 169.85 146.523 170.305 146.833 170.885C147.152 171.456 147.312 172.105 147.312 172.83ZM145.948 172.554C145.948 172.051 145.836 171.621 145.614 171.263C145.391 170.895 145.086 170.619 144.699 170.435C144.322 170.242 143.901 170.145 143.437 170.145C142.769 170.145 142.198 170.358 141.724 170.784C141.259 171.209 140.993 171.8 140.925 172.554H145.948Z" fill="white"/>
<path d="M148.562 173.121C148.562 172.298 148.726 171.582 149.055 170.972C149.384 170.353 149.839 169.874 150.42 169.535C151.01 169.197 151.682 169.027 152.437 169.027C153.415 169.027 154.218 169.265 154.847 169.739C155.485 170.213 155.906 170.871 156.109 171.713H154.687C154.552 171.229 154.285 170.847 153.889 170.566C153.502 170.285 153.018 170.145 152.437 170.145C151.682 170.145 151.073 170.406 150.608 170.929C150.144 171.442 149.912 172.172 149.912 173.121C149.912 174.079 150.144 174.819 150.608 175.341C151.073 175.864 151.682 176.125 152.437 176.125C153.018 176.125 153.502 175.99 153.889 175.719C154.276 175.448 154.542 175.061 154.687 174.557H156.109C155.897 175.37 155.471 176.023 154.832 176.517C154.193 177.001 153.395 177.243 152.437 177.243C151.682 177.243 151.01 177.073 150.42 176.735C149.839 176.396 149.384 175.917 149.055 175.298C148.726 174.678 148.562 173.953 148.562 173.121Z" fill="white"/>
<path d="M159.483 170.247V174.935C159.483 175.322 159.565 175.598 159.73 175.762C159.894 175.917 160.18 175.994 160.586 175.994H161.559V177.112H160.368C159.633 177.112 159.081 176.943 158.714 176.604C158.346 176.265 158.162 175.709 158.162 174.935V170.247H157.132V169.158H158.162V167.155H159.483V169.158H161.559V170.247H159.483Z" fill="white"/>
<path d="M168.64 170.247V174.935C168.64 175.322 168.722 175.598 168.886 175.762C169.051 175.917 169.336 175.994 169.743 175.994H170.715V177.112H169.525C168.79 177.112 168.238 176.943 167.87 176.604C167.503 176.265 167.319 175.709 167.319 174.935V170.247H166.288V169.158H167.319V167.155H168.64V169.158H170.715V170.247H168.64Z" fill="white"/>
<path d="M176.263 169.013C176.863 169.013 177.405 169.144 177.889 169.405C178.373 169.656 178.75 170.039 179.021 170.551C179.302 171.064 179.442 171.688 179.442 172.424V177.112H178.136V172.613C178.136 171.819 177.937 171.214 177.541 170.798C177.144 170.372 176.602 170.16 175.915 170.16C175.218 170.16 174.662 170.377 174.246 170.813C173.84 171.248 173.636 171.882 173.636 172.714V177.112H172.315V166.371H173.636V170.29C173.898 169.884 174.256 169.569 174.71 169.347C175.175 169.124 175.693 169.013 176.263 169.013Z" fill="white"/>
<path d="M182.282 167.866C182.03 167.866 181.817 167.779 181.643 167.605C181.469 167.431 181.382 167.218 181.382 166.966C181.382 166.715 181.469 166.502 181.643 166.328C181.817 166.154 182.03 166.066 182.282 166.066C182.524 166.066 182.727 166.154 182.892 166.328C183.066 166.502 183.153 166.715 183.153 166.966C183.153 167.218 183.066 167.431 182.892 167.605C182.727 167.779 182.524 167.866 182.282 167.866ZM182.921 169.158V177.112H181.6V169.158H182.921Z" fill="white"/>
<path d="M187.987 177.243C187.378 177.243 186.831 177.141 186.347 176.938C185.864 176.725 185.481 176.435 185.201 176.067C184.92 175.69 184.765 175.259 184.736 174.775H186.101C186.139 175.172 186.323 175.496 186.652 175.748C186.991 175.999 187.431 176.125 187.973 176.125C188.476 176.125 188.873 176.014 189.163 175.791C189.453 175.569 189.599 175.288 189.599 174.949C189.599 174.601 189.444 174.345 189.134 174.18C188.824 174.006 188.346 173.837 187.697 173.672C187.107 173.517 186.623 173.362 186.246 173.208C185.878 173.043 185.559 172.806 185.288 172.496C185.027 172.177 184.896 171.761 184.896 171.248C184.896 170.842 185.017 170.469 185.259 170.131C185.501 169.792 185.844 169.526 186.289 169.332C186.734 169.129 187.242 169.027 187.813 169.027C188.694 169.027 189.405 169.25 189.947 169.695C190.489 170.14 190.779 170.75 190.818 171.524H189.497C189.468 171.108 189.299 170.774 188.989 170.522C188.689 170.271 188.283 170.145 187.77 170.145C187.296 170.145 186.918 170.247 186.638 170.45C186.357 170.653 186.217 170.919 186.217 171.248C186.217 171.509 186.299 171.727 186.463 171.901C186.638 172.066 186.851 172.201 187.102 172.308C187.363 172.405 187.721 172.516 188.176 172.642C188.747 172.796 189.212 172.951 189.57 173.106C189.928 173.251 190.232 173.474 190.484 173.774C190.745 174.074 190.881 174.466 190.89 174.949C190.89 175.385 190.769 175.777 190.528 176.125C190.286 176.473 189.942 176.749 189.497 176.952C189.062 177.146 188.558 177.243 187.987 177.243Z" fill="white"/>
<path d="M197.945 170.639C198.216 170.164 198.613 169.777 199.136 169.477C199.658 169.177 200.253 169.027 200.921 169.027C201.637 169.027 202.28 169.197 202.851 169.535C203.422 169.874 203.872 170.353 204.201 170.972C204.53 171.582 204.695 172.293 204.695 173.106C204.695 173.909 204.53 174.625 204.201 175.254C203.872 175.883 203.417 176.372 202.837 176.72C202.266 177.069 201.627 177.243 200.921 177.243C200.234 177.243 199.629 177.093 199.107 176.793C198.594 176.493 198.207 176.111 197.945 175.646V177.112H196.625V166.371H197.945V170.639ZM203.345 173.106C203.345 172.506 203.224 171.984 202.982 171.538C202.74 171.093 202.411 170.755 201.995 170.522C201.589 170.29 201.139 170.174 200.645 170.174C200.161 170.174 199.711 170.295 199.295 170.537C198.889 170.769 198.56 171.113 198.308 171.567C198.066 172.013 197.945 172.53 197.945 173.121C197.945 173.72 198.066 174.248 198.308 174.703C198.56 175.148 198.889 175.491 199.295 175.733C199.711 175.965 200.161 176.082 200.645 176.082C201.139 176.082 201.589 175.965 201.995 175.733C202.411 175.491 202.74 175.148 202.982 174.703C203.224 174.248 203.345 173.716 203.345 173.106Z" fill="white"/>
<path d="M213.487 169.158V177.112H212.166V175.936C211.915 176.343 211.562 176.662 211.107 176.894C210.662 177.117 210.168 177.228 209.626 177.228C209.007 177.228 208.451 177.102 207.957 176.851C207.464 176.59 207.072 176.202 206.782 175.69C206.501 175.177 206.361 174.553 206.361 173.817V169.158H207.667V173.643C207.667 174.427 207.865 175.032 208.262 175.457C208.659 175.873 209.201 176.082 209.888 176.082C210.594 176.082 211.15 175.864 211.557 175.428C211.963 174.993 212.166 174.359 212.166 173.527V169.158H213.487Z" fill="white"/>
<path d="M218.533 177.243C217.924 177.243 217.377 177.141 216.893 176.938C216.409 176.725 216.027 176.435 215.746 176.067C215.466 175.69 215.311 175.259 215.282 174.775H216.646C216.685 175.172 216.869 175.496 217.198 175.748C217.537 175.999 217.977 176.125 218.519 176.125C219.022 176.125 219.419 176.014 219.709 175.791C219.999 175.569 220.144 175.288 220.144 174.949C220.144 174.601 219.99 174.345 219.68 174.18C219.37 174.006 218.891 173.837 218.243 173.672C217.653 173.517 217.169 173.362 216.792 173.208C216.424 173.043 216.104 172.806 215.834 172.496C215.572 172.177 215.442 171.761 215.442 171.248C215.442 170.842 215.563 170.469 215.805 170.131C216.046 169.792 216.39 169.526 216.835 169.332C217.28 169.129 217.788 169.027 218.359 169.027C219.24 169.027 219.951 169.25 220.493 169.695C221.035 170.14 221.325 170.75 221.364 171.524H220.043C220.014 171.108 219.844 170.774 219.535 170.522C219.235 170.271 218.828 170.145 218.316 170.145C217.841 170.145 217.464 170.247 217.183 170.45C216.903 170.653 216.762 170.919 216.762 171.248C216.762 171.509 216.845 171.727 217.009 171.901C217.183 172.066 217.396 172.201 217.648 172.308C217.909 172.405 218.267 172.516 218.722 172.642C219.293 172.796 219.757 172.951 220.115 173.106C220.473 173.251 220.778 173.474 221.03 173.774C221.291 174.074 221.427 174.466 221.436 174.949C221.436 175.385 221.315 175.777 221.073 176.125C220.831 176.473 220.488 176.749 220.043 176.952C219.607 177.146 219.104 177.243 218.533 177.243Z" fill="white"/>
<path d="M223.983 167.866C223.731 167.866 223.518 167.779 223.344 167.605C223.17 167.431 223.083 167.218 223.083 166.966C223.083 166.715 223.17 166.502 223.344 166.328C223.518 166.154 223.731 166.066 223.983 166.066C224.225 166.066 224.428 166.154 224.593 166.328C224.767 166.502 224.854 166.715 224.854 166.966C224.854 167.218 224.767 167.431 224.593 167.605C224.428 167.779 224.225 167.866 223.983 167.866ZM224.622 169.158V177.112H223.301V169.158H224.622Z" fill="white"/>
<path d="M230.748 169.013C231.716 169.013 232.5 169.308 233.099 169.898C233.699 170.479 233.999 171.321 233.999 172.424V177.112H232.693V172.613C232.693 171.819 232.495 171.214 232.098 170.798C231.701 170.372 231.159 170.16 230.472 170.16C229.776 170.16 229.219 170.377 228.803 170.813C228.397 171.248 228.194 171.882 228.194 172.714V177.112H226.873V169.158H228.194V170.29C228.455 169.884 228.808 169.569 229.253 169.347C229.708 169.124 230.206 169.013 230.748 169.013Z" fill="white"/>
<path d="M243.414 172.83C243.414 173.082 243.4 173.348 243.371 173.629H237.013C237.062 174.412 237.328 175.027 237.812 175.472C238.305 175.907 238.9 176.125 239.597 176.125C240.168 176.125 240.642 175.994 241.019 175.733C241.406 175.462 241.677 175.104 241.832 174.659H243.255C243.042 175.424 242.616 176.048 241.977 176.531C241.339 177.006 240.545 177.243 239.597 177.243C238.842 177.243 238.165 177.073 237.565 176.735C236.975 176.396 236.51 175.917 236.171 175.298C235.833 174.669 235.663 173.943 235.663 173.121C235.663 172.298 235.828 171.577 236.157 170.958C236.486 170.339 236.946 169.864 237.536 169.535C238.136 169.197 238.823 169.027 239.597 169.027C240.352 169.027 241.019 169.192 241.6 169.521C242.18 169.85 242.626 170.305 242.935 170.885C243.255 171.456 243.414 172.105 243.414 172.83ZM242.05 172.554C242.05 172.051 241.939 171.621 241.716 171.263C241.493 170.895 241.189 170.619 240.802 170.435C240.424 170.242 240.003 170.145 239.539 170.145C238.871 170.145 238.3 170.358 237.826 170.784C237.362 171.209 237.096 171.8 237.028 172.554H242.05Z" fill="white"/>
<path d="M247.973 177.243C247.364 177.243 246.817 177.141 246.333 176.938C245.849 176.725 245.467 176.435 245.187 176.067C244.906 175.69 244.751 175.259 244.722 174.775H246.087C246.125 175.172 246.309 175.496 246.638 175.748C246.977 175.999 247.417 176.125 247.959 176.125C248.462 176.125 248.859 176.014 249.149 175.791C249.439 175.569 249.585 175.288 249.585 174.949C249.585 174.601 249.43 174.345 249.12 174.18C248.81 174.006 248.331 173.837 247.683 173.672C247.093 173.517 246.609 173.362 246.232 173.208C245.864 173.043 245.545 172.806 245.274 172.496C245.012 172.177 244.882 171.761 244.882 171.248C244.882 170.842 245.003 170.469 245.245 170.131C245.487 169.792 245.83 169.526 246.275 169.332C246.72 169.129 247.228 169.027 247.799 169.027C248.68 169.027 249.391 169.25 249.933 169.695C250.475 170.14 250.765 170.75 250.804 171.524H249.483C249.454 171.108 249.285 170.774 248.975 170.522C248.675 170.271 248.269 170.145 247.756 170.145C247.282 170.145 246.904 170.247 246.624 170.45C246.343 170.653 246.203 170.919 246.203 171.248C246.203 171.509 246.285 171.727 246.449 171.901C246.624 172.066 246.836 172.201 247.088 172.308C247.349 172.405 247.707 172.516 248.162 172.642C248.733 172.796 249.198 172.951 249.556 173.106C249.914 173.251 250.218 173.474 250.47 173.774C250.731 174.074 250.867 174.466 250.876 174.949C250.876 175.385 250.755 175.777 250.514 176.125C250.272 176.473 249.928 176.749 249.483 176.952C249.048 177.146 248.544 177.243 247.973 177.243Z" fill="white"/>
<path d="M255.557 177.243C254.947 177.243 254.4 177.141 253.917 176.938C253.433 176.725 253.051 176.435 252.77 176.067C252.489 175.69 252.335 175.259 252.305 174.775H253.67C253.709 175.172 253.892 175.496 254.221 175.748C254.56 175.999 255 176.125 255.542 176.125C256.045 176.125 256.442 176.014 256.732 175.791C257.023 175.569 257.168 175.288 257.168 174.949C257.168 174.601 257.013 174.345 256.703 174.18C256.394 174.006 255.915 173.837 255.266 173.672C254.676 173.517 254.192 173.362 253.815 173.208C253.447 173.043 253.128 172.806 252.857 172.496C252.596 172.177 252.465 171.761 252.465 171.248C252.465 170.842 252.586 170.469 252.828 170.131C253.07 169.792 253.413 169.526 253.859 169.332C254.304 169.129 254.812 169.027 255.383 169.027C256.263 169.027 256.974 169.25 257.516 169.695C258.058 170.14 258.348 170.75 258.387 171.524H257.066C257.037 171.108 256.868 170.774 256.558 170.522C256.258 170.271 255.852 170.145 255.339 170.145C254.865 170.145 254.488 170.247 254.207 170.45C253.926 170.653 253.786 170.919 253.786 171.248C253.786 171.509 253.868 171.727 254.033 171.901C254.207 172.066 254.42 172.201 254.671 172.308C254.933 172.405 255.291 172.516 255.745 172.642C256.316 172.796 256.781 172.951 257.139 173.106C257.497 173.251 257.802 173.474 258.053 173.774C258.315 174.074 258.45 174.466 258.46 174.949C258.46 175.385 258.339 175.777 258.097 176.125C257.855 176.473 257.511 176.749 257.066 176.952C256.631 177.146 256.128 177.243 255.557 177.243Z" fill="white"/>
<path d="M263.7 173.121C263.7 172.298 263.865 171.582 264.194 170.972C264.523 170.353 264.978 169.874 265.558 169.535C266.148 169.197 266.821 169.027 267.576 169.027C268.553 169.027 269.356 169.265 269.985 169.739C270.624 170.213 271.045 170.871 271.248 171.713H269.825C269.69 171.229 269.424 170.847 269.027 170.566C268.64 170.285 268.156 170.145 267.576 170.145C266.821 170.145 266.211 170.406 265.747 170.929C265.282 171.442 265.05 172.172 265.05 173.121C265.05 174.079 265.282 174.819 265.747 175.341C266.211 175.864 266.821 176.125 267.576 176.125C268.156 176.125 268.64 175.99 269.027 175.719C269.414 175.448 269.68 175.061 269.825 174.557H271.248C271.035 175.37 270.609 176.023 269.971 176.517C269.332 177.001 268.534 177.243 267.576 177.243C266.821 177.243 266.148 177.073 265.558 176.735C264.978 176.396 264.523 175.917 264.194 175.298C263.865 174.678 263.7 173.953 263.7 173.121Z" fill="white"/>
<path d="M274.331 166.371V177.112H273.01V166.371H274.331Z" fill="white"/>
<path d="M276.089 173.106C276.089 172.293 276.253 171.582 276.582 170.972C276.911 170.353 277.361 169.874 277.932 169.535C278.513 169.197 279.156 169.027 279.863 169.027C280.559 169.027 281.164 169.177 281.677 169.477C282.19 169.777 282.572 170.155 282.823 170.61V169.158H284.159V177.112H282.823V175.632C282.562 176.096 282.17 176.483 281.648 176.793C281.135 177.093 280.535 177.243 279.848 177.243C279.142 177.243 278.503 177.069 277.932 176.72C277.361 176.372 276.911 175.883 276.582 175.254C276.253 174.625 276.089 173.909 276.089 173.106ZM282.823 173.121C282.823 172.521 282.703 171.998 282.461 171.553C282.219 171.108 281.89 170.769 281.474 170.537C281.067 170.295 280.617 170.174 280.124 170.174C279.63 170.174 279.18 170.29 278.774 170.522C278.368 170.755 278.043 171.093 277.801 171.538C277.56 171.984 277.439 172.506 277.439 173.106C277.439 173.716 277.56 174.248 277.801 174.703C278.043 175.148 278.368 175.491 278.774 175.733C279.18 175.965 279.63 176.082 280.124 176.082C280.617 176.082 281.067 175.965 281.474 175.733C281.89 175.491 282.219 175.148 282.461 174.703C282.703 174.248 282.823 173.72 282.823 173.121Z" fill="white"/>
<path d="M289.207 177.243C288.597 177.243 288.05 177.141 287.567 176.938C287.083 176.725 286.701 176.435 286.42 176.067C286.139 175.69 285.984 175.259 285.955 174.775H287.32C287.358 175.172 287.542 175.496 287.871 175.748C288.21 175.999 288.65 176.125 289.192 176.125C289.695 176.125 290.092 176.014 290.382 175.791C290.673 175.569 290.818 175.288 290.818 174.949C290.818 174.601 290.663 174.345 290.353 174.18C290.044 174.006 289.565 173.837 288.916 173.672C288.326 173.517 287.842 173.362 287.465 173.208C287.097 173.043 286.778 172.806 286.507 172.496C286.246 172.177 286.115 171.761 286.115 171.248C286.115 170.842 286.236 170.469 286.478 170.131C286.72 169.792 287.063 169.526 287.508 169.332C287.954 169.129 288.462 169.027 289.033 169.027C289.913 169.027 290.624 169.25 291.166 169.695C291.708 170.14 291.998 170.75 292.037 171.524H290.716C290.687 171.108 290.518 170.774 290.208 170.522C289.908 170.271 289.502 170.145 288.989 170.145C288.515 170.145 288.137 170.247 287.857 170.45C287.576 170.653 287.436 170.919 287.436 171.248C287.436 171.509 287.518 171.727 287.683 171.901C287.857 172.066 288.07 172.201 288.321 172.308C288.583 172.405 288.941 172.516 289.395 172.642C289.966 172.796 290.431 172.951 290.789 173.106C291.147 173.251 291.452 173.474 291.703 173.774C291.964 174.074 292.1 174.466 292.11 174.949C292.11 175.385 291.989 175.777 291.747 176.125C291.505 176.473 291.161 176.749 290.716 176.952C290.281 177.146 289.778 177.243 289.207 177.243Z" fill="white"/>
<path d="M296.79 177.243C296.18 177.243 295.634 177.141 295.15 176.938C294.666 176.725 294.284 176.435 294.003 176.067C293.723 175.69 293.568 175.259 293.539 174.775H294.903C294.942 175.172 295.126 175.496 295.455 175.748C295.793 175.999 296.234 176.125 296.776 176.125C297.279 176.125 297.675 176.014 297.966 175.791C298.256 175.569 298.401 175.288 298.401 174.949C298.401 174.601 298.246 174.345 297.937 174.18C297.627 174.006 297.148 173.837 296.5 173.672C295.909 173.517 295.426 173.362 295.048 173.208C294.681 173.043 294.361 172.806 294.09 172.496C293.829 172.177 293.698 171.761 293.698 171.248C293.698 170.842 293.819 170.469 294.061 170.131C294.303 169.792 294.647 169.526 295.092 169.332C295.537 169.129 296.045 169.027 296.616 169.027C297.496 169.027 298.208 169.25 298.749 169.695C299.291 170.14 299.582 170.75 299.62 171.524H298.3C298.271 171.108 298.101 170.774 297.792 170.522C297.492 170.271 297.085 170.145 296.572 170.145C296.098 170.145 295.721 170.247 295.44 170.45C295.16 170.653 295.019 170.919 295.019 171.248C295.019 171.509 295.102 171.727 295.266 171.901C295.44 172.066 295.653 172.201 295.905 172.308C296.166 172.405 296.524 172.516 296.979 172.642C297.55 172.796 298.014 172.951 298.372 173.106C298.73 173.251 299.035 173.474 299.287 173.774C299.548 174.074 299.683 174.466 299.693 174.949C299.693 175.385 299.572 175.777 299.33 176.125C299.088 176.473 298.745 176.749 298.3 176.952C297.864 177.146 297.361 177.243 296.79 177.243Z" fill="white"/>
<path d="M304.934 173.121C304.934 172.298 305.098 171.582 305.427 170.972C305.756 170.353 306.211 169.874 306.791 169.535C307.382 169.197 308.054 169.027 308.809 169.027C309.786 169.027 310.589 169.265 311.218 169.739C311.857 170.213 312.278 170.871 312.481 171.713H311.059C310.923 171.229 310.657 170.847 310.26 170.566C309.873 170.285 309.39 170.145 308.809 170.145C308.054 170.145 307.445 170.406 306.98 170.929C306.516 171.442 306.283 172.172 306.283 173.121C306.283 174.079 306.516 174.819 306.98 175.341C307.445 175.864 308.054 176.125 308.809 176.125C309.39 176.125 309.873 175.99 310.26 175.719C310.647 175.448 310.914 175.061 311.059 174.557H312.481C312.268 175.37 311.842 176.023 311.204 176.517C310.565 177.001 309.767 177.243 308.809 177.243C308.054 177.243 307.382 177.073 306.791 176.735C306.211 176.396 305.756 175.917 305.427 175.298C305.098 174.678 304.934 173.953 304.934 173.121Z" fill="white"/>
<path d="M313.75 173.106C313.75 172.293 313.915 171.582 314.244 170.972C314.573 170.353 315.022 169.874 315.593 169.535C316.174 169.197 316.817 169.027 317.524 169.027C318.221 169.027 318.825 169.177 319.338 169.477C319.851 169.777 320.233 170.155 320.485 170.61V169.158H321.82V177.112H320.485V175.632C320.224 176.096 319.832 176.483 319.309 176.793C318.796 177.093 318.196 177.243 317.509 177.243C316.803 177.243 316.164 177.069 315.593 176.72C315.022 176.372 314.573 175.883 314.244 175.254C313.915 174.625 313.75 173.909 313.75 173.106ZM320.485 173.121C320.485 172.521 320.364 171.998 320.122 171.553C319.88 171.108 319.551 170.769 319.135 170.537C318.729 170.295 318.279 170.174 317.785 170.174C317.292 170.174 316.842 170.29 316.435 170.522C316.029 170.755 315.705 171.093 315.463 171.538C315.221 171.984 315.1 172.506 315.1 173.106C315.1 173.716 315.221 174.248 315.463 174.703C315.705 175.148 316.029 175.491 316.435 175.733C316.842 175.965 317.292 176.082 317.785 176.082C318.279 176.082 318.729 175.965 319.135 175.733C319.551 175.491 319.88 175.148 320.122 174.703C320.364 174.248 320.485 173.72 320.485 173.121Z" fill="white"/>
<path d="M325.373 170.45C325.605 169.995 325.934 169.642 326.36 169.39C326.795 169.139 327.323 169.013 327.942 169.013V170.377H327.594C326.113 170.377 325.373 171.18 325.373 172.787V177.112H324.052V169.158H325.373V170.45Z" fill="white"/>
<path d="M28.2143 192.624C28.4756 192.169 28.8626 191.792 29.3755 191.492C29.898 191.182 30.5028 191.027 31.1898 191.027C31.8962 191.027 32.5348 191.197 33.1057 191.535C33.6863 191.874 34.1411 192.353 34.4701 192.972C34.7991 193.582 34.9636 194.293 34.9636 195.106C34.9636 195.909 34.7991 196.625 34.4701 197.254C34.1411 197.883 33.6863 198.372 33.1057 198.72C32.5348 199.069 31.8962 199.243 31.1898 199.243C30.5124 199.243 29.9125 199.093 29.39 198.793C28.8771 198.483 28.4852 198.101 28.2143 197.646V202.886H26.8935V191.158H28.2143V192.624ZM33.6137 195.106C33.6137 194.506 33.4928 193.984 33.2509 193.538C33.0089 193.093 32.6799 192.755 32.2639 192.522C31.8575 192.29 31.4075 192.174 30.914 192.174C30.4302 192.174 29.9802 192.295 29.5641 192.537C29.1577 192.769 28.8287 193.113 28.5772 193.567C28.3353 194.013 28.2143 194.53 28.2143 195.121C28.2143 195.72 28.3353 196.248 28.5772 196.703C28.8287 197.148 29.1577 197.491 29.5641 197.733C29.9802 197.965 30.4302 198.082 30.914 198.082C31.4075 198.082 31.8575 197.965 32.2639 197.733C32.6799 197.491 33.0089 197.148 33.2509 196.703C33.4928 196.248 33.6137 195.716 33.6137 195.106Z" fill="white"/>
<path d="M43.9594 194.83C43.9594 195.082 43.9449 195.348 43.9159 195.629H37.5585C37.6069 196.412 37.873 197.027 38.3568 197.472C38.8503 197.907 39.4454 198.125 40.1421 198.125C40.713 198.125 41.1871 197.994 41.5645 197.733C41.9516 197.462 42.2225 197.104 42.3773 196.659H43.7998C43.5869 197.424 43.1611 198.048 42.5225 198.531C41.8838 199.006 41.0904 199.243 40.1421 199.243C39.3873 199.243 38.71 199.073 38.1101 198.735C37.5198 198.396 37.0553 197.917 36.7167 197.298C36.378 196.669 36.2086 195.943 36.2086 195.121C36.2086 194.298 36.3731 193.577 36.7021 192.958C37.0311 192.339 37.4908 191.864 38.081 191.535C38.681 191.197 39.368 191.027 40.1421 191.027C40.8968 191.027 41.5645 191.192 42.1451 191.521C42.7257 191.85 43.1708 192.305 43.4804 192.885C43.7998 193.456 43.9594 194.105 43.9594 194.83ZM42.5951 194.554C42.5951 194.051 42.4838 193.621 42.2612 193.263C42.0387 192.895 41.7339 192.619 41.3468 192.435C40.9694 192.242 40.5485 192.145 40.084 192.145C39.4164 192.145 38.8455 192.358 38.3713 192.784C37.9068 193.209 37.6407 193.8 37.573 194.554H42.5951Z" fill="white"/>
<path d="M47.0237 192.45C47.2559 191.995 47.5849 191.642 48.0107 191.39C48.4461 191.139 48.9735 191.013 49.5928 191.013V192.377H49.2444C47.7639 192.377 47.0237 193.18 47.0237 194.787V199.112H45.7029V191.158H47.0237V192.45Z" fill="white"/>
<path d="M53.9333 199.243C53.3237 199.243 52.777 199.141 52.2932 198.938C51.8093 198.725 51.4271 198.435 51.1465 198.067C50.8659 197.69 50.7111 197.259 50.682 196.775H52.0464C52.0851 197.172 52.269 197.496 52.598 197.748C52.9366 197.999 53.3769 198.125 53.9188 198.125C54.422 198.125 54.8187 198.014 55.109 197.791C55.3993 197.569 55.5444 197.288 55.5444 196.949C55.5444 196.601 55.3896 196.345 55.08 196.18C54.7703 196.006 54.2913 195.837 53.643 195.672C53.0528 195.517 52.5689 195.362 52.1916 195.208C51.8239 195.043 51.5045 194.806 51.2336 194.496C50.9723 194.177 50.8417 193.761 50.8417 193.248C50.8417 192.842 50.9627 192.469 51.2046 192.131C51.4465 191.792 51.79 191.526 52.2351 191.332C52.6802 191.129 53.1882 191.027 53.7591 191.027C54.6397 191.027 55.3509 191.25 55.8928 191.695C56.4347 192.14 56.7249 192.75 56.7636 193.524H55.4428C55.4138 193.108 55.2445 192.774 54.9348 192.522C54.6348 192.271 54.2284 192.145 53.7156 192.145C53.2414 192.145 52.8641 192.247 52.5835 192.45C52.3028 192.653 52.1625 192.919 52.1625 193.248C52.1625 193.509 52.2448 193.727 52.4093 193.901C52.5835 194.066 52.7963 194.201 53.0479 194.308C53.3092 194.405 53.6672 194.516 54.122 194.642C54.6929 194.796 55.1574 194.951 55.5154 195.106C55.8734 195.251 56.1782 195.474 56.4298 195.774C56.6911 196.074 56.8265 196.466 56.8362 196.949C56.8362 197.385 56.7153 197.777 56.4734 198.125C56.2314 198.473 55.8879 198.749 55.4428 198.952C55.0074 199.146 54.5042 199.243 53.9333 199.243Z" fill="white"/>
<path d="M62.1698 199.243C61.4247 199.243 60.7473 199.073 60.1377 198.735C59.5378 198.396 59.0636 197.917 58.7153 197.298C58.3766 196.669 58.2073 195.943 58.2073 195.121C58.2073 194.308 58.3815 193.592 58.7298 192.972C59.0878 192.343 59.5716 191.864 60.1813 191.535C60.7909 191.197 61.4731 191.027 62.2278 191.027C62.9826 191.027 63.6648 191.197 64.2744 191.535C64.884 191.864 65.363 192.339 65.7113 192.958C66.0693 193.577 66.2483 194.298 66.2483 195.121C66.2483 195.943 66.0645 196.669 65.6968 197.298C65.3388 197.917 64.8501 198.396 64.2308 198.735C63.6115 199.073 62.9245 199.243 62.1698 199.243ZM62.1698 198.082C62.6439 198.082 63.089 197.97 63.5051 197.748C63.9212 197.525 64.255 197.191 64.5066 196.746C64.7679 196.301 64.8985 195.759 64.8985 195.121C64.8985 194.482 64.7727 193.94 64.5211 193.495C64.2695 193.05 63.9405 192.721 63.5341 192.508C63.1277 192.285 62.6874 192.174 62.2133 192.174C61.7295 192.174 61.2844 192.285 60.878 192.508C60.4812 192.721 60.1619 193.05 59.92 193.495C59.6781 193.94 59.5571 194.482 59.5571 195.121C59.5571 195.769 59.6732 196.316 59.9055 196.761C60.1474 197.206 60.4667 197.54 60.8634 197.762C61.2602 197.975 61.6956 198.082 62.1698 198.082Z" fill="white"/>
<path d="M71.8604 191.013C72.828 191.013 73.6118 191.308 74.2117 191.898C74.8117 192.479 75.1116 193.321 75.1116 194.424V199.112H73.8053V194.613C73.8053 193.819 73.607 193.214 73.2102 192.798C72.8135 192.372 72.2716 192.16 71.5846 192.16C70.8879 192.16 70.3315 192.377 69.9154 192.813C69.509 193.248 69.3058 193.882 69.3058 194.714V199.112H67.985V191.158H69.3058V192.29C69.5671 191.884 69.9203 191.569 70.3654 191.347C70.8202 191.124 71.3185 191.013 71.8604 191.013Z" fill="white"/>
<path d="M77.4724 188.995H78.9384L77.545 192.29H76.6161L77.4724 188.995Z" fill="white"/>
<path d="M83.2601 199.243C82.6505 199.243 82.1038 199.141 81.62 198.938C81.1361 198.725 80.7539 198.435 80.4733 198.067C80.1927 197.69 80.0379 197.259 80.0088 196.775H81.3732C81.4119 197.172 81.5958 197.496 81.9248 197.748C82.2634 197.999 82.7037 198.125 83.2456 198.125C83.7488 198.125 84.1455 198.014 84.4358 197.791C84.7261 197.569 84.8712 197.288 84.8712 196.949C84.8712 196.601 84.7164 196.345 84.4068 196.18C84.0971 196.006 83.6181 195.837 82.9698 195.672C82.3796 195.517 81.8957 195.362 81.5183 195.208C81.1507 195.043 80.8313 194.806 80.5604 194.496C80.2991 194.177 80.1685 193.761 80.1685 193.248C80.1685 192.842 80.2895 192.469 80.5314 192.131C80.7733 191.792 81.1168 191.526 81.5619 191.332C82.007 191.129 82.515 191.027 83.0859 191.027C83.9665 191.027 84.6777 191.25 85.2196 191.695C85.7614 192.14 86.0517 192.75 86.0904 193.524H84.7696C84.7406 193.108 84.5713 192.774 84.2616 192.522C83.9616 192.271 83.5552 192.145 83.0424 192.145C82.5682 192.145 82.1909 192.247 81.9102 192.45C81.6296 192.653 81.4893 192.919 81.4893 193.248C81.4893 193.509 81.5716 193.727 81.7361 193.901C81.9102 194.066 82.1231 194.201 82.3747 194.308C82.636 194.405 82.994 194.516 83.4488 194.642C84.0197 194.796 84.4842 194.951 84.8422 195.106C85.2002 195.251 85.505 195.474 85.7566 195.774C86.0179 196.074 86.1533 196.466 86.163 196.949C86.163 197.385 86.0421 197.777 85.8001 198.125C85.5582 198.473 85.2147 198.749 84.7696 198.952C84.3342 199.146 83.831 199.243 83.2601 199.243Z" fill="white"/>
<path d="M91.4037 195.121C91.4037 194.298 91.5682 193.582 91.8972 192.972C92.2262 192.353 92.681 191.874 93.2615 191.535C93.8518 191.197 94.5243 191.027 95.2791 191.027C96.2564 191.027 97.0595 191.265 97.6885 191.739C98.3271 192.213 98.748 192.871 98.9512 193.713H97.5288C97.3934 193.229 97.1273 192.847 96.7305 192.566C96.3435 192.285 95.8596 192.145 95.2791 192.145C94.5243 192.145 93.9147 192.406 93.4502 192.929C92.9858 193.442 92.7535 194.172 92.7535 195.121C92.7535 196.079 92.9858 196.819 93.4502 197.341C93.9147 197.864 94.5243 198.125 95.2791 198.125C95.8596 198.125 96.3435 197.99 96.7305 197.719C97.1176 197.448 97.3837 197.061 97.5288 196.557H98.9512C98.7384 197.37 98.3126 198.023 97.674 198.517C97.0353 199.001 96.237 199.243 95.2791 199.243C94.5243 199.243 93.8518 199.073 93.2615 198.735C92.681 198.396 92.2262 197.917 91.8972 197.298C91.5682 196.678 91.4037 195.953 91.4037 195.121Z" fill="white"/>
<path d="M100.22 195.106C100.22 194.293 100.385 193.582 100.714 192.972C101.043 192.353 101.493 191.874 102.063 191.535C102.644 191.197 103.288 191.027 103.994 191.027C104.691 191.027 105.295 191.177 105.808 191.477C106.321 191.777 106.703 192.155 106.955 192.61V191.158H108.29V199.112H106.955V197.632C106.694 198.096 106.302 198.483 105.779 198.793C105.266 199.093 104.666 199.243 103.979 199.243C103.273 199.243 102.634 199.069 102.063 198.72C101.493 198.372 101.043 197.883 100.714 197.254C100.385 196.625 100.22 195.909 100.22 195.106ZM106.955 195.121C106.955 194.521 106.834 193.998 106.592 193.553C106.35 193.108 106.021 192.769 105.605 192.537C105.199 192.295 104.749 192.174 104.255 192.174C103.762 192.174 103.312 192.29 102.905 192.522C102.499 192.755 102.175 193.093 101.933 193.538C101.691 193.984 101.57 194.506 101.57 195.106C101.57 195.716 101.691 196.248 101.933 196.703C102.175 197.148 102.499 197.491 102.905 197.733C103.312 197.965 103.762 198.082 104.255 198.082C104.749 198.082 105.199 197.965 105.605 197.733C106.021 197.491 106.35 197.148 106.592 196.703C106.834 196.248 106.955 195.72 106.955 195.121Z" fill="white"/>
<path d="M114.398 191.013C115.365 191.013 116.149 191.308 116.749 191.898C117.349 192.479 117.649 193.321 117.649 194.424V199.112H116.343V194.613C116.343 193.819 116.144 193.214 115.748 192.798C115.351 192.372 114.809 192.16 114.122 192.16C113.425 192.16 112.869 192.377 112.453 192.813C112.046 193.248 111.843 193.882 111.843 194.714V199.112H110.522V191.158H111.843V192.29C112.104 191.884 112.458 191.569 112.903 191.347C113.357 191.124 113.856 191.013 114.398 191.013Z" fill="white"/>
<path d="M126.492 199.243C125.882 199.243 125.336 199.141 124.852 198.938C124.368 198.725 123.986 198.435 123.705 198.067C123.425 197.69 123.27 197.259 123.241 196.775H124.605C124.644 197.172 124.828 197.496 125.157 197.748C125.495 197.999 125.936 198.125 126.477 198.125C126.981 198.125 127.377 198.014 127.668 197.791C127.958 197.569 128.103 197.288 128.103 196.949C128.103 196.601 127.948 196.345 127.639 196.18C127.329 196.006 126.85 195.837 126.202 195.672C125.611 195.517 125.128 195.362 124.75 195.208C124.382 195.043 124.063 194.806 123.792 194.496C123.531 194.177 123.4 193.761 123.4 193.248C123.4 192.842 123.521 192.469 123.763 192.131C124.005 191.792 124.349 191.526 124.794 191.332C125.239 191.129 125.747 191.027 126.318 191.027C127.198 191.027 127.91 191.25 128.451 191.695C128.993 192.14 129.284 192.75 129.322 193.524H128.001C127.972 193.108 127.803 192.774 127.493 192.522C127.193 192.271 126.787 192.145 126.274 192.145C125.8 192.145 125.423 192.247 125.142 192.45C124.861 192.653 124.721 192.919 124.721 193.248C124.721 193.509 124.803 193.727 124.968 193.901C125.142 194.066 125.355 194.201 125.607 194.308C125.868 194.405 126.226 194.516 126.681 194.642C127.252 194.796 127.716 194.951 128.074 195.106C128.432 195.251 128.737 195.474 128.988 195.774C129.25 196.074 129.385 196.466 129.395 196.949C129.395 197.385 129.274 197.777 129.032 198.125C128.79 198.473 128.447 198.749 128.001 198.952C127.566 199.146 127.063 199.243 126.492 199.243Z" fill="white"/>
<path d="M138.517 194.83C138.517 195.082 138.502 195.348 138.473 195.629H132.116C132.164 196.412 132.43 197.027 132.914 197.472C133.408 197.907 134.003 198.125 134.699 198.125C135.27 198.125 135.744 197.994 136.122 197.733C136.509 197.462 136.78 197.104 136.935 196.659H138.357C138.144 197.424 137.718 198.048 137.08 198.531C136.441 199.006 135.648 199.243 134.699 199.243C133.945 199.243 133.267 199.073 132.667 198.735C132.077 198.396 131.613 197.917 131.274 197.298C130.935 196.669 130.766 195.943 130.766 195.121C130.766 194.298 130.93 193.577 131.259 192.958C131.588 192.339 132.048 191.864 132.638 191.535C133.238 191.197 133.925 191.027 134.699 191.027C135.454 191.027 136.122 191.192 136.702 191.521C137.283 191.85 137.728 192.305 138.038 192.885C138.357 193.456 138.517 194.105 138.517 194.83ZM137.152 194.554C137.152 194.051 137.041 193.621 136.818 193.263C136.596 192.895 136.291 192.619 135.904 192.435C135.527 192.242 135.106 192.145 134.641 192.145C133.974 192.145 133.403 192.358 132.929 192.784C132.464 193.209 132.198 193.8 132.13 194.554H137.152Z" fill="white"/>
<path d="M141.871 192.247V196.935C141.871 197.322 141.954 197.598 142.118 197.762C142.283 197.917 142.568 197.994 142.974 197.994H143.947V199.112H142.757C142.021 199.112 141.47 198.943 141.102 198.604C140.734 198.265 140.55 197.709 140.55 196.935V192.247H139.52V191.158H140.55V189.155H141.871V191.158H143.947V192.247H141.871Z" fill="white"/>
<path d="M148.88 196.775V195.774L153.974 188.72H155.556V195.629H157.008V196.775H155.556V199.112H154.25V196.775H148.88ZM154.308 190.099L150.404 195.629H154.308V190.099Z" fill="white"/>
<path d="M171.98 191.013C172.599 191.013 173.151 191.144 173.634 191.405C174.118 191.656 174.501 192.039 174.781 192.551C175.062 193.064 175.202 193.688 175.202 194.424V199.112H173.896V194.613C173.896 193.819 173.697 193.214 173.301 192.798C172.914 192.372 172.386 192.16 171.719 192.16C171.032 192.16 170.485 192.382 170.078 192.827C169.672 193.263 169.469 193.896 169.469 194.729V199.112H168.162V194.613C168.162 193.819 167.964 193.214 167.567 192.798C167.18 192.372 166.653 192.16 165.985 192.16C165.298 192.16 164.752 192.382 164.345 192.827C163.939 193.263 163.736 193.896 163.736 194.729V199.112H162.415V191.158H163.736V192.305C163.997 191.889 164.345 191.569 164.781 191.347C165.226 191.124 165.714 191.013 166.247 191.013C166.914 191.013 167.504 191.163 168.017 191.463C168.53 191.763 168.912 192.203 169.164 192.784C169.387 192.222 169.754 191.787 170.267 191.477C170.78 191.168 171.351 191.013 171.98 191.013Z" fill="white"/>
<path d="M184.626 194.83C184.626 195.082 184.611 195.348 184.582 195.629H178.225C178.273 196.412 178.54 197.027 179.023 197.472C179.517 197.907 180.112 198.125 180.809 198.125C181.38 198.125 181.854 197.994 182.231 197.733C182.618 197.462 182.889 197.104 183.044 196.659H184.466C184.253 197.424 183.828 198.048 183.189 198.531C182.55 199.006 181.757 199.243 180.809 199.243C180.054 199.243 179.377 199.073 178.777 198.735C178.186 198.396 177.722 197.917 177.383 197.298C177.045 196.669 176.875 195.943 176.875 195.121C176.875 194.298 177.04 193.577 177.369 192.958C177.698 192.339 178.157 191.864 178.748 191.535C179.347 191.197 180.035 191.027 180.809 191.027C181.563 191.027 182.231 191.192 182.812 191.521C183.392 191.85 183.837 192.305 184.147 192.885C184.466 193.456 184.626 194.105 184.626 194.83ZM183.262 194.554C183.262 194.051 183.15 193.621 182.928 193.263C182.705 192.895 182.4 192.619 182.013 192.435C181.636 192.242 181.215 192.145 180.751 192.145C180.083 192.145 179.512 192.358 179.038 192.784C178.573 193.209 178.307 193.8 178.24 194.554H183.262Z" fill="white"/>
<path d="M195.935 191.013C196.554 191.013 197.105 191.144 197.589 191.405C198.073 191.656 198.455 192.039 198.736 192.551C199.016 193.064 199.157 193.688 199.157 194.424V199.112H197.85V194.613C197.85 193.819 197.652 193.214 197.255 192.798C196.868 192.372 196.341 192.16 195.673 192.16C194.986 192.16 194.439 192.382 194.033 192.827C193.627 193.263 193.423 193.896 193.423 194.729V199.112H192.117V194.613C192.117 193.819 191.919 193.214 191.522 192.798C191.135 192.372 190.608 192.16 189.94 192.16C189.253 192.16 188.706 192.382 188.3 192.827C187.893 193.263 187.69 193.896 187.69 194.729V199.112H186.369V191.158H187.69V192.305C187.951 191.889 188.3 191.569 188.735 191.347C189.18 191.124 189.669 191.013 190.201 191.013C190.869 191.013 191.459 191.163 191.972 191.463C192.485 191.763 192.867 192.203 193.119 192.784C193.341 192.222 193.709 191.787 194.222 191.477C194.735 191.168 195.306 191.013 195.935 191.013Z" fill="white"/>
<path d="M202.644 192.639C202.915 192.164 203.312 191.777 203.834 191.477C204.357 191.177 204.952 191.027 205.62 191.027C206.336 191.027 206.979 191.197 207.55 191.535C208.121 191.874 208.571 192.353 208.9 192.972C209.229 193.582 209.393 194.293 209.393 195.106C209.393 195.909 209.229 196.625 208.9 197.254C208.571 197.883 208.116 198.372 207.536 198.72C206.965 199.069 206.326 199.243 205.62 199.243C204.933 199.243 204.328 199.093 203.805 198.793C203.293 198.493 202.905 198.111 202.644 197.646V199.112H201.323V188.371H202.644V192.639ZM208.044 195.106C208.044 194.506 207.923 193.984 207.681 193.538C207.439 193.093 207.11 192.755 206.694 192.522C206.287 192.29 205.837 192.174 205.344 192.174C204.86 192.174 204.41 192.295 203.994 192.537C203.588 192.769 203.259 193.113 203.007 193.567C202.765 194.013 202.644 194.53 202.644 195.121C202.644 195.72 202.765 196.248 203.007 196.703C203.259 197.148 203.588 197.491 203.994 197.733C204.41 197.965 204.86 198.082 205.344 198.082C205.837 198.082 206.287 197.965 206.694 197.733C207.11 197.491 207.439 197.148 207.681 196.703C207.923 196.248 208.044 195.716 208.044 195.106Z" fill="white"/>
<path d="M218.389 194.83C218.389 195.082 218.375 195.348 218.346 195.629H211.988C212.037 196.412 212.303 197.027 212.787 197.472C213.28 197.907 213.875 198.125 214.572 198.125C215.143 198.125 215.617 197.994 215.994 197.733C216.381 197.462 216.652 197.104 216.807 196.659H218.23C218.017 197.424 217.591 198.048 216.952 198.531C216.314 199.006 215.52 199.243 214.572 199.243C213.817 199.243 213.14 199.073 212.54 198.735C211.95 198.396 211.485 197.917 211.147 197.298C210.808 196.669 210.639 195.943 210.639 195.121C210.639 194.298 210.803 193.577 211.132 192.958C211.461 192.339 211.921 191.864 212.511 191.535C213.111 191.197 213.798 191.027 214.572 191.027C215.327 191.027 215.994 191.192 216.575 191.521C217.156 191.85 217.601 192.305 217.91 192.885C218.23 193.456 218.389 194.105 218.389 194.83ZM217.025 194.554C217.025 194.051 216.914 193.621 216.691 193.263C216.469 192.895 216.164 192.619 215.777 192.435C215.399 192.242 214.978 192.145 214.514 192.145C213.846 192.145 213.275 192.358 212.801 192.784C212.337 193.209 212.071 193.8 212.003 194.554H217.025Z" fill="white"/>
<path d="M221.454 192.45C221.686 191.995 222.015 191.642 222.441 191.39C222.876 191.139 223.403 191.013 224.023 191.013V192.377H223.674C222.194 192.377 221.454 193.18 221.454 194.787V199.112H220.133V191.158H221.454V192.45Z" fill="white"/>
<path d="M228.363 199.243C227.754 199.243 227.207 199.141 226.723 198.938C226.239 198.725 225.857 198.435 225.576 198.067C225.296 197.69 225.141 197.259 225.112 196.775H226.476C226.515 197.172 226.699 197.496 227.028 197.748C227.367 197.999 227.807 198.125 228.349 198.125C228.852 198.125 229.249 198.014 229.539 197.791C229.829 197.569 229.974 197.288 229.974 196.949C229.974 196.601 229.82 196.345 229.51 196.18C229.2 196.006 228.721 195.837 228.073 195.672C227.483 195.517 226.999 195.362 226.621 195.208C226.254 195.043 225.934 194.806 225.663 194.496C225.402 194.177 225.272 193.761 225.272 193.248C225.272 192.842 225.393 192.469 225.634 192.131C225.876 191.792 226.22 191.526 226.665 191.332C227.11 191.129 227.618 191.027 228.189 191.027C229.07 191.027 229.781 191.25 230.323 191.695C230.865 192.14 231.155 192.75 231.194 193.524H229.873C229.844 193.108 229.674 192.774 229.365 192.522C229.065 192.271 228.658 192.145 228.145 192.145C227.671 192.145 227.294 192.247 227.013 192.45C226.733 192.653 226.592 192.919 226.592 193.248C226.592 193.509 226.675 193.727 226.839 193.901C227.013 194.066 227.226 194.201 227.478 194.308C227.739 194.405 228.097 194.516 228.552 194.642C229.123 194.796 229.587 194.951 229.945 195.106C230.303 195.251 230.608 195.474 230.86 195.774C231.121 196.074 231.256 196.466 231.266 196.949C231.266 197.385 231.145 197.777 230.903 198.125C230.661 198.473 230.318 198.749 229.873 198.952C229.437 199.146 228.934 199.243 228.363 199.243Z" fill="white"/>
<path d="M236.507 195.106C236.507 194.293 236.671 193.582 237 192.972C237.329 192.353 237.779 191.874 238.35 191.535C238.931 191.197 239.574 191.027 240.281 191.027C240.977 191.027 241.582 191.177 242.095 191.477C242.608 191.777 242.99 192.155 243.242 192.61V191.158H244.577V199.112H243.242V197.632C242.98 198.096 242.588 198.483 242.066 198.793C241.553 199.093 240.953 199.243 240.266 199.243C239.56 199.243 238.921 199.069 238.35 198.72C237.779 198.372 237.329 197.883 237 197.254C236.671 196.625 236.507 195.909 236.507 195.106ZM243.242 195.121C243.242 194.521 243.121 193.998 242.879 193.553C242.637 193.108 242.308 192.769 241.892 192.537C241.485 192.295 241.035 192.174 240.542 192.174C240.048 192.174 239.598 192.29 239.192 192.522C238.786 192.755 238.461 193.093 238.219 193.538C237.978 193.984 237.857 194.506 237.857 195.106C237.857 195.716 237.978 196.248 238.219 196.703C238.461 197.148 238.786 197.491 239.192 197.733C239.598 197.965 240.048 198.082 240.542 198.082C241.035 198.082 241.485 197.965 241.892 197.733C242.308 197.491 242.637 197.148 242.879 196.703C243.121 196.248 243.242 195.72 243.242 195.121Z" fill="white"/>
<path d="M250.684 191.013C251.652 191.013 252.436 191.308 253.036 191.898C253.636 192.479 253.936 193.321 253.936 194.424V199.112H252.629V194.613C252.629 193.819 252.431 193.214 252.034 192.798C251.637 192.372 251.096 192.16 250.409 192.16C249.712 192.16 249.155 192.377 248.739 192.813C248.333 193.248 248.13 193.882 248.13 194.714V199.112H246.809V191.158H248.13V192.29C248.391 191.884 248.744 191.569 249.189 191.347C249.644 191.124 250.142 191.013 250.684 191.013Z" fill="white"/>
<path d="M255.6 195.106C255.6 194.293 255.764 193.582 256.093 192.972C256.422 192.353 256.872 191.874 257.443 191.535C258.024 191.197 258.672 191.027 259.388 191.027C260.007 191.027 260.583 191.173 261.115 191.463C261.647 191.743 262.054 192.116 262.334 192.581V188.371H263.67V199.112H262.334V197.617C262.073 198.091 261.686 198.483 261.173 198.793C260.66 199.093 260.06 199.243 259.373 199.243C258.667 199.243 258.024 199.069 257.443 198.72C256.872 198.372 256.422 197.883 256.093 197.254C255.764 196.625 255.6 195.909 255.6 195.106ZM262.334 195.121C262.334 194.521 262.214 193.998 261.972 193.553C261.73 193.108 261.401 192.769 260.985 192.537C260.578 192.295 260.128 192.174 259.635 192.174C259.141 192.174 258.691 192.29 258.285 192.522C257.878 192.755 257.554 193.093 257.312 193.538C257.07 193.984 256.95 194.506 256.95 195.106C256.95 195.716 257.07 196.248 257.312 196.703C257.554 197.148 257.878 197.491 258.285 197.733C258.691 197.965 259.141 198.082 259.635 198.082C260.128 198.082 260.578 197.965 260.985 197.733C261.401 197.491 261.73 197.148 261.972 196.703C262.214 196.248 262.334 195.72 262.334 195.121Z" fill="white"/>
<path d="M271.383 192.247V196.935C271.383 197.322 271.465 197.598 271.629 197.762C271.794 197.917 272.079 197.994 272.486 197.994H273.458V199.112H272.268C271.533 199.112 270.981 198.943 270.613 198.604C270.246 198.265 270.062 197.709 270.062 196.935V192.247H269.031V191.158H270.062V189.155H271.383V191.158H273.458V192.247H271.383Z" fill="white"/>
<path d="M279.006 191.013C279.606 191.013 280.148 191.144 280.632 191.405C281.116 191.656 281.493 192.039 281.764 192.551C282.045 193.064 282.185 193.688 282.185 194.424V199.112H280.879V194.613C280.879 193.819 280.68 193.214 280.284 192.798C279.887 192.372 279.345 192.16 278.658 192.16C277.961 192.16 277.405 192.377 276.989 192.813C276.583 193.248 276.379 193.882 276.379 194.714V199.112H275.058V188.371H276.379V192.29C276.641 191.884 276.999 191.569 277.453 191.347C277.918 191.124 278.436 191.013 279.006 191.013Z" fill="white"/>
<path d="M291.6 194.83C291.6 195.082 291.585 195.348 291.556 195.629H285.199C285.247 196.412 285.514 197.027 285.997 197.472C286.491 197.907 287.086 198.125 287.783 198.125C288.354 198.125 288.828 197.994 289.205 197.733C289.592 197.462 289.863 197.104 290.018 196.659H291.44C291.227 197.424 290.802 198.048 290.163 198.531C289.524 199.006 288.731 199.243 287.783 199.243C287.028 199.243 286.351 199.073 285.751 198.735C285.16 198.396 284.696 197.917 284.357 197.298C284.019 196.669 283.849 195.943 283.849 195.121C283.849 194.298 284.014 193.577 284.343 192.958C284.672 192.339 285.131 191.864 285.722 191.535C286.322 191.197 287.009 191.027 287.783 191.027C288.537 191.027 289.205 191.192 289.786 191.521C290.366 191.85 290.811 192.305 291.121 192.885C291.44 193.456 291.6 194.105 291.6 194.83ZM290.236 194.554C290.236 194.051 290.124 193.621 289.902 193.263C289.679 192.895 289.374 192.619 288.987 192.435C288.61 192.242 288.189 192.145 287.725 192.145C287.057 192.145 286.486 192.358 286.012 192.784C285.547 193.209 285.281 193.8 285.214 194.554H290.236Z" fill="white"/>
<path d="M294.664 192.45C294.897 191.995 295.226 191.642 295.651 191.39C296.087 191.139 296.614 191.013 297.233 191.013V192.377H296.885C295.405 192.377 294.664 193.18 294.664 194.787V199.112H293.343V191.158H294.664V192.45Z" fill="white"/>
<path d="M306.015 194.83C306.015 195.082 306.001 195.348 305.972 195.629H299.614C299.663 196.412 299.929 197.027 300.413 197.472C300.906 197.907 301.501 198.125 302.198 198.125C302.769 198.125 303.243 197.994 303.62 197.733C304.008 197.462 304.278 197.104 304.433 196.659H305.856C305.643 197.424 305.217 198.048 304.578 198.531C303.94 199.006 303.146 199.243 302.198 199.243C301.443 199.243 300.766 199.073 300.166 198.735C299.576 198.396 299.111 197.917 298.773 197.298C298.434 196.669 298.265 195.943 298.265 195.121C298.265 194.298 298.429 193.577 298.758 192.958C299.087 192.339 299.547 191.864 300.137 191.535C300.737 191.197 301.424 191.027 302.198 191.027C302.953 191.027 303.62 191.192 304.201 191.521C304.782 191.85 305.227 192.305 305.536 192.885C305.856 193.456 306.015 194.105 306.015 194.83ZM304.651 194.554C304.651 194.051 304.54 193.621 304.317 193.263C304.095 192.895 303.79 192.619 303.403 192.435C303.025 192.242 302.604 192.145 302.14 192.145C301.472 192.145 300.901 192.358 300.427 192.784C299.963 193.209 299.697 193.8 299.629 194.554H304.651Z" fill="white"/>
<path d="M315.576 191.013C316.176 191.013 316.718 191.144 317.202 191.405C317.686 191.656 318.063 192.039 318.334 192.551C318.615 193.064 318.755 193.688 318.755 194.424V199.112H317.449V194.613C317.449 193.819 317.25 193.214 316.854 192.798C316.457 192.372 315.915 192.16 315.228 192.16C314.531 192.16 313.975 192.377 313.559 192.813C313.152 193.248 312.949 193.882 312.949 194.714V199.112H311.628V188.371H312.949V192.29C313.21 191.884 313.568 191.569 314.023 191.347C314.488 191.124 315.005 191.013 315.576 191.013Z" fill="white"/>
<path d="M320.419 195.106C320.419 194.293 320.584 193.582 320.913 192.972C321.242 192.353 321.692 191.874 322.262 191.535C322.843 191.197 323.487 191.027 324.193 191.027C324.89 191.027 325.494 191.177 326.007 191.477C326.52 191.777 326.902 192.155 327.154 192.61V191.158H328.489V199.112H327.154V197.632C326.893 198.096 326.501 198.483 325.978 198.793C325.465 199.093 324.865 199.243 324.178 199.243C323.472 199.243 322.833 199.069 322.262 198.72C321.692 198.372 321.242 197.883 320.913 197.254C320.584 196.625 320.419 195.909 320.419 195.106ZM327.154 195.121C327.154 194.521 327.033 193.998 326.791 193.553C326.549 193.108 326.22 192.769 325.804 192.537C325.398 192.295 324.948 192.174 324.454 192.174C323.961 192.174 323.511 192.29 323.104 192.522C322.698 192.755 322.374 193.093 322.132 193.538C321.89 193.984 321.769 194.506 321.769 195.106C321.769 195.716 321.89 196.248 322.132 196.703C322.374 197.148 322.698 197.491 323.104 197.733C323.511 197.965 323.961 198.082 324.454 198.082C324.948 198.082 325.398 197.965 325.804 197.733C326.22 197.491 326.549 197.148 326.791 196.703C327.033 196.248 327.154 195.72 327.154 195.121Z" fill="white"/>
<path d="M333.682 197.893L336.15 191.158H337.558L334.437 199.112H332.898L329.778 191.158H331.2L333.682 197.893Z" fill="white"/>
<path d="M346.115 194.83C346.115 195.082 346.1 195.348 346.071 195.629H339.714C339.762 196.412 340.028 197.027 340.512 197.472C341.006 197.907 341.601 198.125 342.297 198.125C342.868 198.125 343.342 197.994 343.72 197.733C344.107 197.462 344.378 197.104 344.533 196.659H345.955C345.742 197.424 345.316 198.048 344.678 198.531C344.039 199.006 343.246 199.243 342.297 199.243C341.543 199.243 340.865 199.073 340.265 198.735C339.675 198.396 339.211 197.917 338.872 197.298C338.533 196.669 338.364 195.943 338.364 195.121C338.364 194.298 338.528 193.577 338.857 192.958C339.186 192.339 339.646 191.864 340.236 191.535C340.836 191.197 341.523 191.027 342.297 191.027C343.052 191.027 343.72 191.192 344.3 191.521C344.881 191.85 345.326 192.305 345.636 192.885C345.955 193.456 346.115 194.105 346.115 194.83ZM344.75 194.554C344.75 194.051 344.639 193.621 344.416 193.263C344.194 192.895 343.889 192.619 343.502 192.435C343.125 192.242 342.704 192.145 342.239 192.145C341.572 192.145 341.001 192.358 340.527 192.784C340.062 193.209 339.796 193.8 339.728 194.554H344.75Z" fill="white"/>
<path d="M109.894 210.371V221.112H108.573V210.371H109.894Z" fill="white"/>
<path d="M115.614 221.243C114.869 221.243 114.192 221.073 113.582 220.735C112.982 220.396 112.508 219.917 112.16 219.298C111.821 218.669 111.652 217.943 111.652 217.121C111.652 216.308 111.826 215.592 112.174 214.972C112.532 214.343 113.016 213.864 113.626 213.535C114.235 213.197 114.918 213.027 115.672 213.027C116.427 213.027 117.109 213.197 117.719 213.535C118.328 213.864 118.807 214.339 119.156 214.958C119.514 215.577 119.693 216.298 119.693 217.121C119.693 217.943 119.509 218.669 119.141 219.298C118.783 219.917 118.295 220.396 117.675 220.735C117.056 221.073 116.369 221.243 115.614 221.243ZM115.614 220.082C116.088 220.082 116.534 219.97 116.95 219.748C117.366 219.525 117.7 219.191 117.951 218.746C118.212 218.301 118.343 217.759 118.343 217.121C118.343 216.482 118.217 215.94 117.966 215.495C117.714 215.05 117.385 214.721 116.979 214.508C116.572 214.285 116.132 214.174 115.658 214.174C115.174 214.174 114.729 214.285 114.322 214.508C113.926 214.721 113.606 215.05 113.364 215.495C113.123 215.94 113.002 216.482 113.002 217.121C113.002 217.769 113.118 218.316 113.35 218.761C113.592 219.206 113.911 219.54 114.308 219.762C114.705 219.975 115.14 220.082 115.614 220.082Z" fill="white"/>
<path d="M123.041 214.247V218.935C123.041 219.322 123.123 219.598 123.287 219.762C123.452 219.917 123.737 219.994 124.144 219.994H125.116V221.112H123.926C123.191 221.112 122.639 220.943 122.271 220.604C121.904 220.265 121.72 219.709 121.72 218.935V214.247H120.689V213.158H121.72V211.155H123.041V213.158H125.116V214.247H123.041Z" fill="white"/>
<path d="M134.055 221.243C133.31 221.243 132.633 221.073 132.023 220.735C131.423 220.396 130.949 219.917 130.601 219.298C130.262 218.669 130.093 217.943 130.093 217.121C130.093 216.308 130.267 215.592 130.615 214.972C130.973 214.343 131.457 213.864 132.067 213.535C132.676 213.197 133.358 213.027 134.113 213.027C134.868 213.027 135.55 213.197 136.16 213.535C136.769 213.864 137.248 214.339 137.597 214.958C137.955 215.577 138.134 216.298 138.134 217.121C138.134 217.943 137.95 218.669 137.582 219.298C137.224 219.917 136.735 220.396 136.116 220.735C135.497 221.073 134.81 221.243 134.055 221.243ZM134.055 220.082C134.529 220.082 134.974 219.97 135.39 219.748C135.807 219.525 136.14 219.191 136.392 218.746C136.653 218.301 136.784 217.759 136.784 217.121C136.784 216.482 136.658 215.94 136.406 215.495C136.155 215.05 135.826 214.721 135.419 214.508C135.013 214.285 134.573 214.174 134.099 214.174C133.615 214.174 133.17 214.285 132.763 214.508C132.367 214.721 132.047 215.05 131.805 215.495C131.563 215.94 131.442 216.482 131.442 217.121C131.442 217.769 131.559 218.316 131.791 218.761C132.033 219.206 132.352 219.54 132.749 219.762C133.146 219.975 133.581 220.082 134.055 220.082Z" fill="white"/>
<path d="M143.107 214.247H141.438V221.112H140.117V214.247H139.087V213.158H140.117V212.592C140.117 211.702 140.344 211.053 140.799 210.647C141.264 210.231 142.004 210.023 143.02 210.023V211.126C142.439 211.126 142.028 211.242 141.786 211.474C141.554 211.697 141.438 212.069 141.438 212.592V213.158H143.107V214.247Z" fill="white"/>
<path d="M151.753 214.247H150.084V221.112H148.763V214.247H147.733V213.158H148.763V212.592C148.763 211.702 148.991 211.053 149.446 210.647C149.91 210.231 150.65 210.023 151.666 210.023V211.126C151.086 211.126 150.675 211.242 150.433 211.474C150.2 211.697 150.084 212.069 150.084 212.592V213.158H151.753V214.247Z" fill="white"/>
<path d="M160.551 216.83C160.551 217.082 160.536 217.348 160.507 217.629H154.15C154.198 218.412 154.464 219.027 154.948 219.472C155.442 219.907 156.037 220.125 156.733 220.125C157.304 220.125 157.778 219.994 158.156 219.733C158.543 219.462 158.814 219.104 158.969 218.659H160.391C160.178 219.424 159.752 220.048 159.114 220.531C158.475 221.006 157.682 221.243 156.733 221.243C155.979 221.243 155.301 221.073 154.701 220.735C154.111 220.396 153.647 219.917 153.308 219.298C152.969 218.669 152.8 217.943 152.8 217.121C152.8 216.298 152.964 215.577 153.293 214.958C153.622 214.339 154.082 213.864 154.672 213.535C155.272 213.197 155.959 213.027 156.733 213.027C157.488 213.027 158.156 213.192 158.736 213.521C159.317 213.85 159.762 214.305 160.072 214.885C160.391 215.456 160.551 216.105 160.551 216.83ZM159.186 216.554C159.186 216.051 159.075 215.621 158.853 215.263C158.63 214.895 158.325 214.619 157.938 214.435C157.561 214.242 157.14 214.145 156.675 214.145C156.008 214.145 155.437 214.358 154.963 214.784C154.498 215.209 154.232 215.8 154.164 216.554H159.186Z" fill="white"/>
<path d="M161.801 217.106C161.801 216.293 161.965 215.582 162.294 214.972C162.623 214.353 163.073 213.874 163.644 213.535C164.225 213.197 164.868 213.027 165.575 213.027C166.271 213.027 166.876 213.177 167.389 213.477C167.902 213.777 168.284 214.155 168.535 214.61V213.158H169.871V221.112H168.535V219.632C168.274 220.096 167.882 220.483 167.36 220.793C166.847 221.093 166.247 221.243 165.56 221.243C164.854 221.243 164.215 221.069 163.644 220.72C163.073 220.372 162.623 219.883 162.294 219.254C161.965 218.625 161.801 217.909 161.801 217.106ZM168.535 217.121C168.535 216.521 168.415 215.998 168.173 215.553C167.931 215.108 167.602 214.769 167.186 214.537C166.779 214.295 166.329 214.174 165.836 214.174C165.342 214.174 164.892 214.29 164.486 214.522C164.08 214.755 163.755 215.093 163.513 215.538C163.272 215.984 163.151 216.506 163.151 217.106C163.151 217.716 163.272 218.248 163.513 218.703C163.755 219.148 164.08 219.491 164.486 219.733C164.892 219.965 165.342 220.082 165.836 220.082C166.329 220.082 166.779 219.965 167.186 219.733C167.602 219.491 167.931 219.148 168.173 218.703C168.415 218.248 168.535 217.72 168.535 217.121Z" fill="white"/>
<path d="M173.714 214.247V218.935C173.714 219.322 173.796 219.598 173.961 219.762C174.125 219.917 174.411 219.994 174.817 219.994H175.79V221.112H174.599C173.864 221.112 173.312 220.943 172.945 220.604C172.577 220.265 172.393 219.709 172.393 218.935V214.247H171.363V213.158H172.393V211.155H173.714V213.158H175.79V214.247H173.714Z" fill="white"/>
<path d="M184.444 213.158V221.112H183.123V219.936C182.872 220.343 182.518 220.662 182.064 220.894C181.618 221.117 181.125 221.228 180.583 221.228C179.964 221.228 179.407 221.102 178.914 220.851C178.42 220.59 178.029 220.202 177.738 219.69C177.458 219.177 177.317 218.553 177.317 217.817V213.158H178.624V217.643C178.624 218.427 178.822 219.032 179.219 219.457C179.615 219.873 180.157 220.082 180.844 220.082C181.551 220.082 182.107 219.864 182.514 219.428C182.92 218.993 183.123 218.359 183.123 217.527V213.158H184.444Z" fill="white"/>
<path d="M187.995 214.45C188.227 213.995 188.556 213.642 188.982 213.39C189.417 213.139 189.945 213.013 190.564 213.013V214.377H190.216C188.735 214.377 187.995 215.18 187.995 216.787V221.112H186.674V213.158H187.995V214.45Z" fill="white"/>
<path d="M199.346 216.83C199.346 217.082 199.332 217.348 199.302 217.629H192.945C192.993 218.412 193.26 219.027 193.743 219.472C194.237 219.907 194.832 220.125 195.529 220.125C196.1 220.125 196.574 219.994 196.951 219.733C197.338 219.462 197.609 219.104 197.764 218.659H199.186C198.973 219.424 198.548 220.048 197.909 220.531C197.27 221.006 196.477 221.243 195.529 221.243C194.774 221.243 194.097 221.073 193.497 220.735C192.906 220.396 192.442 219.917 192.103 219.298C191.765 218.669 191.595 217.943 191.595 217.121C191.595 216.298 191.76 215.577 192.089 214.958C192.418 214.339 192.877 213.864 193.468 213.535C194.068 213.197 194.755 213.027 195.529 213.027C196.283 213.027 196.951 213.192 197.532 213.521C198.112 213.85 198.557 214.305 198.867 214.885C199.186 215.456 199.346 216.105 199.346 216.83ZM197.982 216.554C197.982 216.051 197.87 215.621 197.648 215.263C197.425 214.895 197.12 214.619 196.733 214.435C196.356 214.242 195.935 214.145 195.471 214.145C194.803 214.145 194.232 214.358 193.758 214.784C193.293 215.209 193.027 215.8 192.96 216.554H197.982Z" fill="white"/>
<path d="M203.905 221.243C203.296 221.243 202.749 221.141 202.265 220.938C201.781 220.725 201.399 220.435 201.119 220.067C200.838 219.69 200.683 219.259 200.654 218.775H202.018C202.057 219.172 202.241 219.496 202.57 219.748C202.909 219.999 203.349 220.125 203.891 220.125C204.394 220.125 204.791 220.014 205.081 219.791C205.371 219.569 205.516 219.288 205.516 218.949C205.516 218.601 205.362 218.345 205.052 218.18C204.742 218.006 204.263 217.837 203.615 217.672C203.025 217.517 202.541 217.362 202.164 217.208C201.796 217.043 201.477 216.806 201.206 216.496C200.944 216.177 200.814 215.761 200.814 215.248C200.814 214.842 200.935 214.469 201.177 214.131C201.418 213.792 201.762 213.526 202.207 213.332C202.652 213.129 203.16 213.027 203.731 213.027C204.612 213.027 205.323 213.25 205.865 213.695C206.407 214.14 206.697 214.75 206.736 215.524H205.415C205.386 215.108 205.216 214.774 204.907 214.522C204.607 214.271 204.2 214.145 203.688 214.145C203.213 214.145 202.836 214.247 202.555 214.45C202.275 214.653 202.135 214.919 202.135 215.248C202.135 215.509 202.217 215.727 202.381 215.901C202.555 216.066 202.768 216.201 203.02 216.308C203.281 216.405 203.639 216.516 204.094 216.642C204.665 216.796 205.129 216.951 205.487 217.106C205.845 217.251 206.15 217.474 206.402 217.774C206.663 218.074 206.799 218.466 206.808 218.949C206.808 219.385 206.687 219.777 206.445 220.125C206.203 220.473 205.86 220.749 205.415 220.952C204.979 221.146 204.476 221.243 203.905 221.243Z" fill="white"/>
<path d="M214.154 214.247V218.935C214.154 219.322 214.236 219.598 214.4 219.762C214.565 219.917 214.85 219.994 215.257 219.994H216.229V221.112H215.039C214.303 221.112 213.752 220.943 213.384 220.604C213.017 220.265 212.833 219.709 212.833 218.935V214.247H211.802V213.158H212.833V211.155H214.154V213.158H216.229V214.247H214.154Z" fill="white"/>
<path d="M221.777 213.013C222.377 213.013 222.919 213.144 223.403 213.405C223.887 213.656 224.264 214.039 224.535 214.551C224.816 215.064 224.956 215.688 224.956 216.424V221.112H223.65V216.613C223.65 215.819 223.451 215.214 223.055 214.798C222.658 214.372 222.116 214.16 221.429 214.16C220.732 214.16 220.176 214.377 219.76 214.813C219.353 215.248 219.15 215.882 219.15 216.714V221.112H217.829V210.371H219.15V214.29C219.412 213.884 219.77 213.569 220.224 213.347C220.689 213.124 221.206 213.013 221.777 213.013Z" fill="white"/>
<path d="M227.796 211.866C227.544 211.866 227.331 211.779 227.157 211.605C226.983 211.431 226.896 211.218 226.896 210.966C226.896 210.715 226.983 210.502 227.157 210.328C227.331 210.154 227.544 210.066 227.796 210.066C228.038 210.066 228.241 210.154 228.405 210.328C228.58 210.502 228.667 210.715 228.667 210.966C228.667 211.218 228.58 211.431 228.405 211.605C228.241 211.779 228.038 211.866 227.796 211.866ZM228.434 213.158V221.112H227.114V213.158H228.434Z" fill="white"/>
<path d="M233.501 221.243C232.892 221.243 232.345 221.141 231.861 220.938C231.377 220.725 230.995 220.435 230.715 220.067C230.434 219.69 230.279 219.259 230.25 218.775H231.615C231.653 219.172 231.837 219.496 232.166 219.748C232.505 219.999 232.945 220.125 233.487 220.125C233.99 220.125 234.387 220.014 234.677 219.791C234.967 219.569 235.113 219.288 235.113 218.949C235.113 218.601 234.958 218.345 234.648 218.18C234.338 218.006 233.859 217.837 233.211 217.672C232.621 217.517 232.137 217.362 231.76 217.208C231.392 217.043 231.073 216.806 230.802 216.496C230.54 216.177 230.41 215.761 230.41 215.248C230.41 214.842 230.531 214.469 230.773 214.131C231.015 213.792 231.358 213.526 231.803 213.332C232.248 213.129 232.756 213.027 233.327 213.027C234.208 213.027 234.919 213.25 235.461 213.695C236.003 214.14 236.293 214.75 236.332 215.524H235.011C234.982 215.108 234.813 214.774 234.503 214.522C234.203 214.271 233.797 214.145 233.284 214.145C232.81 214.145 232.432 214.247 232.152 214.45C231.871 214.653 231.731 214.919 231.731 215.248C231.731 215.509 231.813 215.727 231.977 215.901C232.152 216.066 232.364 216.201 232.616 216.308C232.877 216.405 233.235 216.516 233.69 216.642C234.261 216.796 234.725 216.951 235.083 217.106C235.442 217.251 235.746 217.474 235.998 217.774C236.259 218.074 236.395 218.466 236.404 218.949C236.404 219.385 236.283 219.777 236.041 220.125C235.8 220.473 235.456 220.749 235.011 220.952C234.575 221.146 234.072 221.243 233.501 221.243Z" fill="white"/>
<path d="M241.645 217.121C241.645 216.298 241.809 215.582 242.138 214.972C242.467 214.353 242.922 213.874 243.503 213.535C244.093 213.197 244.766 213.027 245.52 213.027C246.498 213.027 247.301 213.265 247.93 213.739C248.568 214.213 248.989 214.871 249.193 215.713H247.77C247.635 215.229 247.369 214.847 246.972 214.566C246.585 214.285 246.101 214.145 245.52 214.145C244.766 214.145 244.156 214.406 243.692 214.929C243.227 215.442 242.995 216.172 242.995 217.121C242.995 218.079 243.227 218.819 243.692 219.341C244.156 219.864 244.766 220.125 245.52 220.125C246.101 220.125 246.585 219.99 246.972 219.719C247.359 219.448 247.625 219.061 247.77 218.557H249.193C248.98 219.37 248.554 220.023 247.915 220.517C247.277 221.001 246.478 221.243 245.52 221.243C244.766 221.243 244.093 221.073 243.503 220.735C242.922 220.396 242.467 219.917 242.138 219.298C241.809 218.678 241.645 217.953 241.645 217.121Z" fill="white"/>
<path d="M250.461 217.106C250.461 216.293 250.626 215.582 250.955 214.972C251.284 214.353 251.734 213.874 252.305 213.535C252.885 213.197 253.529 213.027 254.235 213.027C254.932 213.027 255.537 213.177 256.05 213.477C256.562 213.777 256.945 214.155 257.196 214.61V213.158H258.532V221.112H257.196V219.632C256.935 220.096 256.543 220.483 256.021 220.793C255.508 221.093 254.908 221.243 254.221 221.243C253.514 221.243 252.876 221.069 252.305 220.72C251.734 220.372 251.284 219.883 250.955 219.254C250.626 218.625 250.461 217.909 250.461 217.106ZM257.196 217.121C257.196 216.521 257.075 215.998 256.833 215.553C256.591 215.108 256.262 214.769 255.846 214.537C255.44 214.295 254.99 214.174 254.497 214.174C254.003 214.174 253.553 214.29 253.147 214.522C252.74 214.755 252.416 215.093 252.174 215.538C251.932 215.984 251.811 216.506 251.811 217.106C251.811 217.716 251.932 218.248 252.174 218.703C252.416 219.148 252.74 219.491 253.147 219.733C253.553 219.965 254.003 220.082 254.497 220.082C254.99 220.082 255.44 219.965 255.846 219.733C256.262 219.491 256.591 219.148 256.833 218.703C257.075 218.248 257.196 217.72 257.196 217.121Z" fill="white"/>
<path d="M262.084 214.45C262.317 213.995 262.646 213.642 263.071 213.39C263.507 213.139 264.034 213.013 264.654 213.013V214.377H264.305C262.825 214.377 262.084 215.18 262.084 216.787V221.112H260.764V213.158H262.084V214.45Z" fill="white"/>
<path d="M145.887 270.747L142.404 264.695H140.509V270.747H138.027V255.616H143.253C144.414 255.616 145.394 255.819 146.192 256.225C147.005 256.632 147.607 257.176 147.999 257.858C148.405 258.54 148.609 259.302 148.609 260.144C148.609 261.131 148.318 262.031 147.738 262.844C147.172 263.642 146.294 264.187 145.103 264.477L148.848 270.747H145.887ZM140.509 262.713H143.253C144.182 262.713 144.878 262.481 145.343 262.017C145.822 261.552 146.061 260.928 146.061 260.144C146.061 259.36 145.829 258.751 145.365 258.315C144.9 257.865 144.196 257.64 143.253 257.64H140.509V262.713Z" fill="#FD5901"/>
<path d="M156.138 270.943C155.195 270.943 154.346 270.776 153.591 270.442C152.851 270.094 152.263 269.629 151.827 269.049C151.392 268.454 151.16 267.793 151.131 267.068H153.7C153.743 267.576 153.983 268.004 154.418 268.352C154.868 268.686 155.427 268.853 156.095 268.853C156.791 268.853 157.328 268.722 157.706 268.461C158.098 268.185 158.293 267.837 158.293 267.416C158.293 266.966 158.076 266.632 157.64 266.414C157.219 266.197 156.544 265.957 155.616 265.696C154.716 265.449 153.983 265.21 153.417 264.978C152.851 264.745 152.357 264.39 151.936 263.911C151.53 263.432 151.326 262.8 151.326 262.017C151.326 261.378 151.515 260.797 151.893 260.275C152.27 259.738 152.807 259.317 153.504 259.012C154.215 258.707 155.028 258.555 155.942 258.555C157.306 258.555 158.402 258.903 159.23 259.6C160.072 260.282 160.521 261.218 160.58 262.408H158.098C158.054 261.871 157.836 261.443 157.444 261.124C157.052 260.805 156.523 260.645 155.855 260.645C155.202 260.645 154.701 260.768 154.353 261.015C154.004 261.262 153.83 261.588 153.83 261.995C153.83 262.314 153.946 262.583 154.179 262.8C154.411 263.018 154.694 263.192 155.028 263.323C155.362 263.439 155.855 263.591 156.508 263.78C157.379 264.012 158.09 264.252 158.642 264.499C159.208 264.731 159.694 265.079 160.101 265.544C160.507 266.008 160.717 266.625 160.732 267.394C160.732 268.076 160.543 268.686 160.166 269.223C159.788 269.76 159.251 270.181 158.555 270.486C157.873 270.791 157.067 270.943 156.138 270.943Z" fill="#FD5901"/>
<path d="M171.834 266.436C171.98 267.162 172.292 267.714 172.771 268.091C173.25 268.468 173.895 268.657 174.708 268.657C175.739 268.657 176.494 268.251 176.973 267.438C177.452 266.625 177.691 265.239 177.691 263.279C177.343 263.773 176.849 264.157 176.211 264.433C175.586 264.695 174.904 264.825 174.164 264.825C173.221 264.825 172.364 264.636 171.595 264.259C170.826 263.867 170.216 263.294 169.766 262.539C169.331 261.77 169.113 260.841 169.113 259.752C169.113 258.156 169.577 256.886 170.506 255.942C171.45 254.984 172.742 254.505 174.382 254.505C176.356 254.505 177.756 255.166 178.584 256.487C179.425 257.793 179.846 259.803 179.846 262.517C179.846 264.39 179.687 265.921 179.367 267.111C179.063 268.301 178.526 269.201 177.756 269.811C176.987 270.421 175.92 270.725 174.556 270.725C173.003 270.725 171.805 270.319 170.964 269.506C170.122 268.693 169.65 267.67 169.548 266.436H171.834ZM174.599 262.735C175.47 262.735 176.152 262.467 176.646 261.929C177.154 261.378 177.408 260.652 177.408 259.752C177.408 258.751 177.139 257.974 176.602 257.423C176.08 256.857 175.361 256.574 174.447 256.574C173.533 256.574 172.807 256.864 172.27 257.444C171.747 258.011 171.486 258.758 171.486 259.687C171.486 260.572 171.74 261.305 172.248 261.886C172.771 262.452 173.554 262.735 174.599 262.735Z" fill="#FD5901"/>
<path d="M182.563 262.604C182.563 260.093 182.984 258.134 183.826 256.726C184.682 255.304 186.148 254.592 188.223 254.592C190.299 254.592 191.758 255.304 192.6 256.726C193.456 258.134 193.884 260.093 193.884 262.604C193.884 265.144 193.456 267.133 192.6 268.57C191.758 269.992 190.299 270.704 188.223 270.704C186.148 270.704 184.682 269.992 183.826 268.57C182.984 267.133 182.563 265.144 182.563 262.604ZM191.446 262.604C191.446 261.429 191.366 260.434 191.206 259.622C191.061 258.809 190.756 258.148 190.292 257.64C189.827 257.118 189.138 256.857 188.223 256.857C187.309 256.857 186.62 257.118 186.155 257.64C185.691 258.148 185.379 258.809 185.219 259.622C185.074 260.434 185.001 261.429 185.001 262.604C185.001 263.824 185.074 264.847 185.219 265.674C185.364 266.502 185.669 267.169 186.133 267.677C186.612 268.185 187.309 268.439 188.223 268.439C189.138 268.439 189.827 268.185 190.292 267.677C190.771 267.169 191.083 266.502 191.228 265.674C191.373 264.847 191.446 263.824 191.446 262.604Z" fill="#FD5901"/>
<path d="M204.893 250.194L198.971 274.557H196.532L202.432 250.194H204.893Z" fill="#FD5901"/>
<path d="M223.958 255.616V270.747H221.476V260.384L216.86 270.747H215.14L210.503 260.384V270.747H208.021V255.616H210.698L216.011 267.481L221.301 255.616H223.958Z" fill="#FD5901"/>
<path d="M228.483 257.161C228.033 257.161 227.655 257.009 227.35 256.704C227.046 256.399 226.893 256.022 226.893 255.572C226.893 255.122 227.046 254.745 227.35 254.44C227.655 254.135 228.033 253.983 228.483 253.983C228.918 253.983 229.288 254.135 229.593 254.44C229.898 254.745 230.05 255.122 230.05 255.572C230.05 256.022 229.898 256.399 229.593 256.704C229.288 257.009 228.918 257.161 228.483 257.161ZM229.702 258.751V270.747H227.22V258.751H229.702Z" fill="#FD5901"/>
</svg>
