<svg width="41" height="42" viewBox="0 0 41 42" fill="none" xmlns="http://www.w3.org/2000/svg">
<circle cx="20.6065" cy="20.9503" r="20.0772" fill="#D9D9D9"/>
<path d="M28.1359 9.65698H13.078C10.9448 9.65698 9.31348 11.2883 9.31348 13.4215V28.4794C9.31348 30.6126 10.9448 32.2439 13.078 32.2439H28.1359C30.2691 32.2439 31.9003 30.6126 31.9003 28.4794V13.4215C31.9003 11.2883 30.2691 9.65698 28.1359 9.65698ZM20.6069 17.1859C22.7401 17.1859 24.3714 18.8172 24.3714 20.9504C24.3714 23.0836 22.7401 24.7149 20.6069 24.7149C18.4737 24.7149 16.8424 23.0836 16.8424 20.9504C16.8424 18.8172 18.4737 17.1859 20.6069 17.1859ZM25.3753 14.6763C25.3753 13.7979 26.1281 13.1705 26.881 13.1705C27.6339 13.1705 28.3868 13.9234 28.3868 14.6763C28.3868 15.4292 27.7594 16.1821 26.881 16.1821C26.0027 16.1821 25.3753 15.5547 25.3753 14.6763ZM28.1359 29.7342H13.078C12.3251 29.7342 11.8231 29.2323 11.8231 28.4794V20.9504H14.3328C14.3328 24.4639 17.0934 27.2245 20.6069 27.2245C24.1204 27.2245 26.881 24.4639 26.881 20.9504H29.3907V28.4794C29.3907 29.2323 28.8888 29.7342 28.1359 29.7342Z" fill="#1B1B1B"/>
</svg>
