<svg width="41" height="42" viewBox="0 0 41 42" fill="none" xmlns="http://www.w3.org/2000/svg">
<circle cx="20.1387" cy="20.9503" r="20.0772" fill="#D9D9D9"/>
<path d="M28.7852 14.6912C29.7991 14.0688 30.4704 13.2193 30.7992 12.1389C29.8732 12.6397 28.8795 13.0036 27.8491 13.2193C26.9669 12.2707 25.8501 11.7888 24.5112 11.7888C23.2024 11.7888 22.0969 12.2481 21.1947 13.1415C20.759 13.5658 20.4145 14.0745 20.1824 14.6366C19.9502 15.1987 19.8352 15.8023 19.8445 16.4103C19.8445 16.7981 19.8935 17.1444 19.9913 17.438C16.1315 17.3063 12.9367 15.7051 10.4195 12.6233C9.99289 13.3774 9.77957 14.1454 9.77957 14.9397C9.77957 16.5722 10.4685 17.8659 11.8438 18.8158C11.0595 18.7493 10.3681 18.5511 9.77957 18.2261C9.77957 19.3918 10.1221 20.3656 10.8085 21.2226C11.4753 22.0577 12.4149 22.6313 13.4625 22.8426C13.071 22.943 12.6581 22.9907 12.234 22.9907C11.8425 22.9907 11.5652 22.958 11.4008 22.8865C11.6894 23.8364 12.234 24.6069 13.0208 25.1966C13.7986 25.7872 14.7447 26.1139 15.7212 26.129C14.0497 27.4403 12.1386 28.089 9.97658 28.089C9.44704 28.089 9.07185 28.0815 8.84473 28.0413C10.9742 29.4241 13.3445 30.1105 15.9671 30.1105C18.6512 30.1105 21.0228 29.4304 23.087 28.0702C25.1512 26.7175 26.6746 25.0486 27.6533 23.0835C28.6212 21.1821 29.1252 19.0785 29.124 16.9449V16.3576C30.0261 15.6925 30.8072 14.8771 31.4329 13.9471C30.5879 14.3134 29.6972 14.5637 28.7852 14.6912Z" fill="#1B1B1B"/>
</svg>
