<svg width="40" height="26" viewBox="0 0 40 26" fill="none" xmlns="http://www.w3.org/2000/svg">
<g clip-path="url(#clip0_20_2397)">
<path d="M25.4549 3.54224H15.0449V22.2247H25.4549V3.54224Z" fill="#FF5F00"/>
<path d="M15.7059 12.8836C15.7059 9.25275 17.3914 5.78693 20.2335 3.5424C15.078 -0.517565 7.60932 0.373646 3.54448 5.55587C-0.520363 10.7051 0.371919 18.1649 5.56037 22.2248C9.88959 25.6246 15.9373 25.6246 20.2665 22.2248C17.3914 19.9803 15.7059 16.5145 15.7059 12.8836Z" fill="#EB001B"/>
<path d="M39.5002 12.8834C39.5002 19.4519 34.1796 24.7662 27.6031 24.7662C24.9263 24.7662 22.3486 23.875 20.2666 22.2246C25.422 18.1646 26.3143 10.7048 22.2495 5.52262C21.6546 4.79645 20.9936 4.10328 20.2666 3.54215C25.422 -0.517809 32.9238 0.373402 36.9556 5.55563C38.608 7.63512 39.5002 10.2097 39.5002 12.8834Z" fill="#F79E1B"/>
<path d="M38.3768 20.2443V19.8482H38.5421V19.7822H38.1455V19.8482H38.3107V20.2443H38.3768ZM39.1369 20.2443V19.7822H39.0047L38.8726 20.1123L38.7404 19.7822H38.6082V20.2443H38.7073V19.8812L38.8395 20.1783H38.9386L39.0708 19.8812V20.2443H39.1369Z" fill="#F79E1B"/>
</g>
<rect x="0.75" y="0.75" width="39.0003" height="24.2656" stroke="#F7F7F7" stroke-width="0.5"/>
<defs>
<clipPath id="clip0_20_2397">
<rect x="1" y="1" width="38.5003" height="23.7656" fill="white"/>
</clipPath>
</defs>
</svg>
