<svg width="162" height="18" viewBox="0 0 162 18" fill="none" xmlns="http://www.w3.org/2000/svg">
<g clip-path="url(#clip0_178_92)">
<path d="M10.5 10.125H12.375L13.125 7.125H10.5V5.625C10.5 4.8525 10.5 4.125 12 4.125H13.125V1.605C12.8805 1.57275 11.9572 1.5 10.9822 1.5C8.946 1.5 7.5 2.74275 7.5 5.025V7.125H5.25V10.125H7.5V16.5H10.5V10.125Z" fill="white"/>
</g>
<g clip-path="url(#clip1_178_92)">
<path d="M57 1.5C59.0378 1.5 59.292 1.5075 60.0915 1.545C60.8903 1.5825 61.434 1.70775 61.9125 1.89375C62.4075 2.08425 62.8245 2.34225 63.2415 2.7585C63.6229 3.13342 63.918 3.58694 64.1063 4.0875C64.2915 4.56525 64.4175 5.10975 64.455 5.9085C64.4903 6.708 64.5 6.96225 64.5 9C64.5 11.0378 64.4925 11.292 64.455 12.0915C64.4175 12.8903 64.2915 13.434 64.1063 13.9125C63.9185 14.4133 63.6233 14.867 63.2415 15.2415C62.8665 15.6227 62.413 15.9178 61.9125 16.1063C61.4347 16.2915 60.8903 16.4175 60.0915 16.455C59.292 16.4903 59.0378 16.5 57 16.5C54.9622 16.5 54.708 16.4925 53.9085 16.455C53.1097 16.4175 52.566 16.2915 52.0875 16.1063C51.5867 15.9184 51.1331 15.6232 50.7585 15.2415C50.3771 14.8666 50.0819 14.4131 49.8938 13.9125C49.7078 13.4347 49.5825 12.8903 49.545 12.0915C49.5097 11.292 49.5 11.0378 49.5 9C49.5 6.96225 49.5075 6.708 49.545 5.9085C49.5825 5.109 49.7078 4.566 49.8938 4.0875C50.0814 3.58663 50.3766 3.13299 50.7585 2.7585C51.1333 2.37692 51.5868 2.0818 52.0875 1.89375C52.566 1.70775 53.109 1.5825 53.9085 1.545C54.708 1.50975 54.9622 1.5 57 1.5ZM57 5.25C56.0054 5.25 55.0516 5.64509 54.3483 6.34835C53.6451 7.05161 53.25 8.00544 53.25 9C53.25 9.99456 53.6451 10.9484 54.3483 11.6517C55.0516 12.3549 56.0054 12.75 57 12.75C57.9946 12.75 58.9484 12.3549 59.6517 11.6517C60.3549 10.9484 60.75 9.99456 60.75 9C60.75 8.00544 60.3549 7.05161 59.6517 6.34835C58.9484 5.64509 57.9946 5.25 57 5.25ZM61.875 5.0625C61.875 4.81386 61.7762 4.5754 61.6004 4.39959C61.4246 4.22377 61.1861 4.125 60.9375 4.125C60.6889 4.125 60.4504 4.22377 60.2746 4.39959C60.0988 4.5754 60 4.81386 60 5.0625C60 5.31114 60.0988 5.5496 60.2746 5.72541C60.4504 5.90123 60.6889 6 60.9375 6C61.1861 6 61.4246 5.90123 61.6004 5.72541C61.7762 5.5496 61.875 5.31114 61.875 5.0625ZM57 6.75C57.5967 6.75 58.169 6.98705 58.591 7.40901C59.0129 7.83097 59.25 8.40326 59.25 9C59.25 9.59674 59.0129 10.169 58.591 10.591C58.169 11.0129 57.5967 11.25 57 11.25C56.4033 11.25 55.831 11.0129 55.409 10.591C54.9871 10.169 54.75 9.59674 54.75 9C54.75 8.40326 54.9871 7.83097 55.409 7.40901C55.831 6.98705 56.4033 6.75 57 6.75Z" fill="white"/>
</g>
<g clip-path="url(#clip2_178_92)">
<path d="M112.621 4.24201C112.049 4.49528 111.442 4.66161 110.82 4.73551C111.475 4.34358 111.966 3.72677 112.2 3.00001C111.585 3.36601 110.911 3.62251 110.208 3.76126C109.736 3.25619 109.11 2.92123 108.428 2.80844C107.746 2.69566 107.046 2.81137 106.436 3.1376C105.827 3.46382 105.342 3.98227 105.058 4.61235C104.773 5.24243 104.705 5.94884 104.863 6.62176C103.616 6.55925 102.396 6.23515 101.282 5.6705C100.169 5.10586 99.1861 4.31329 98.3985 3.34426C98.1197 3.82309 97.9732 4.36743 97.974 4.92151C97.974 6.00901 98.5275 6.96976 99.369 7.53226C98.871 7.51658 98.384 7.38209 97.9485 7.14001V7.17901C97.9486 7.90328 98.1993 8.60522 98.6579 9.1658C99.1165 9.72638 99.7548 10.1111 100.465 10.2548C100.002 10.38 99.5177 10.3985 99.0472 10.3088C99.2474 10.9322 99.6375 11.4774 100.163 11.8681C100.688 12.2588 101.323 12.4754 101.977 12.4875C101.327 12.9985 100.582 13.3762 99.7851 13.5991C98.9884 13.822 98.1556 13.8857 97.3342 13.7865C98.768 14.7086 100.437 15.1981 102.142 15.1965C107.911 15.1965 111.067 10.4168 111.067 6.27151C111.067 6.13651 111.063 6.00001 111.057 5.86651C111.671 5.42263 112.201 4.87277 112.622 4.24276L112.621 4.24201Z" fill="white"/>
</g>
<g clip-path="url(#clip3_178_92)">
<path d="M160.157 4.8735C160.5 6.21 160.5 9 160.5 9C160.5 9 160.5 11.79 160.157 13.1265C159.967 13.8653 159.41 14.4465 158.704 14.643C157.422 15 153 15 153 15C153 15 148.58 15 147.296 14.643C146.587 14.4435 146.031 13.863 145.843 13.1265C145.5 11.79 145.5 9 145.5 9C145.5 9 145.5 6.21 145.843 4.8735C146.033 4.13475 146.59 3.5535 147.296 3.357C148.58 3 153 3 153 3C153 3 157.422 3 158.704 3.357C159.412 3.5565 159.969 4.137 160.157 4.8735ZM151.5 11.625L156 9L151.5 6.375V11.625Z" fill="white"/>
</g>
<defs>
<clipPath id="clip0_178_92">
<rect width="18" height="18" fill="white"/>
</clipPath>
<clipPath id="clip1_178_92">
<rect width="18" height="18" fill="white" transform="translate(48)"/>
</clipPath>
<clipPath id="clip2_178_92">
<rect width="18" height="18" fill="white" transform="translate(96)"/>
</clipPath>
<clipPath id="clip3_178_92">
<rect width="18" height="18" fill="white" transform="translate(144)"/>
</clipPath>
</defs>
</svg>
