<svg width="276" height="24" viewBox="0 0 276 24" fill="none" xmlns="http://www.w3.org/2000/svg">
<g clip-path="url(#clip0_85_240)">
<path d="M14 13.5H16.5L17.5 9.5H14V7.5C14 6.47 14 5.5 16 5.5H17.5V2.14C17.174 2.097 15.943 2 14.643 2C11.928 2 10 3.657 10 6.7V9.5H7V13.5H10V22H14V13.5Z" fill="#5956E9"/>
</g>
<line x1="54.5" y1="2" x2="54.5" y2="22" stroke="white"/>
<g clip-path="url(#clip1_85_240)">
<path d="M96 2C98.717 2 99.056 2.01 100.122 2.06C101.187 2.11 101.912 2.277 102.55 2.525C103.21 2.779 103.766 3.123 104.322 3.678C104.83 4.1779 105.224 4.78259 105.475 5.45C105.722 6.087 105.89 6.813 105.94 7.878C105.987 8.944 106 9.283 106 12C106 14.717 105.99 15.056 105.94 16.122C105.89 17.187 105.722 17.912 105.475 18.55C105.225 19.2178 104.831 19.8226 104.322 20.322C103.822 20.8303 103.217 21.2238 102.55 21.475C101.913 21.722 101.187 21.89 100.122 21.94C99.056 21.987 98.717 22 96 22C93.283 22 92.944 21.99 91.878 21.94C90.813 21.89 90.088 21.722 89.45 21.475C88.7823 21.2245 88.1775 20.8309 87.678 20.322C87.1694 19.8222 86.7759 19.2175 86.525 18.55C86.277 17.913 86.11 17.187 86.06 16.122C86.013 15.056 86 14.717 86 12C86 9.283 86.01 8.944 86.06 7.878C86.11 6.812 86.277 6.088 86.525 5.45C86.7752 4.78218 87.1688 4.17732 87.678 3.678C88.1777 3.16923 88.7824 2.77573 89.45 2.525C90.088 2.277 90.812 2.11 91.878 2.06C92.944 2.013 93.283 2 96 2ZM96 7C94.6739 7 93.4021 7.52678 92.4645 8.46447C91.5268 9.40215 91 10.6739 91 12C91 13.3261 91.5268 14.5979 92.4645 15.5355C93.4021 16.4732 94.6739 17 96 17C97.3261 17 98.5979 16.4732 99.5355 15.5355C100.473 14.5979 101 13.3261 101 12C101 10.6739 100.473 9.40215 99.5355 8.46447C98.5979 7.52678 97.3261 7 96 7ZM102.5 6.75C102.5 6.41848 102.368 6.10054 102.134 5.86612C101.899 5.6317 101.582 5.5 101.25 5.5C100.918 5.5 100.601 5.6317 100.366 5.86612C100.132 6.10054 100 6.41848 100 6.75C100 7.08152 100.132 7.39946 100.366 7.63388C100.601 7.8683 100.918 8 101.25 8C101.582 8 101.899 7.8683 102.134 7.63388C102.368 7.39946 102.5 7.08152 102.5 6.75ZM96 9C96.7956 9 97.5587 9.31607 98.1213 9.87868C98.6839 10.4413 99 11.2044 99 12C99 12.7956 98.6839 13.5587 98.1213 14.1213C97.5587 14.6839 96.7956 15 96 15C95.2044 15 94.4413 14.6839 93.8787 14.1213C93.3161 13.5587 93 12.7956 93 12C93 11.2044 93.3161 10.4413 93.8787 9.87868C94.4413 9.31607 95.2044 9 96 9Z" fill="white"/>
</g>
<line x1="138.5" y1="2" x2="138.5" y2="22" stroke="white"/>
<g clip-path="url(#clip2_85_240)">
<path d="M190.162 5.65593C189.399 5.99362 188.589 6.2154 187.76 6.31393C188.634 5.79136 189.288 4.96894 189.6 3.99993C188.78 4.48793 187.881 4.82993 186.944 5.01493C186.315 4.34151 185.48 3.89489 184.571 3.74451C183.662 3.59413 182.728 3.74842 181.915 4.18338C181.103 4.61834 180.456 5.30961 180.077 6.14972C179.698 6.98983 179.607 7.93171 179.818 8.82893C178.155 8.74558 176.528 8.31345 175.043 7.56059C173.558 6.80773 172.248 5.75097 171.198 4.45893C170.826 5.09738 170.631 5.82315 170.632 6.56193C170.632 8.01193 171.37 9.29293 172.492 10.0429C171.828 10.022 171.179 9.84271 170.598 9.51993V9.57193C170.598 10.5376 170.932 11.4735 171.544 12.221C172.155 12.9684 173.006 13.4814 173.953 13.6729C173.337 13.84 172.69 13.8646 172.063 13.7449C172.33 14.5762 172.85 15.3031 173.551 15.824C174.251 16.3449 175.097 16.6337 175.97 16.6499C175.102 17.3313 174.109 17.8349 173.047 18.1321C171.985 18.4293 170.874 18.5142 169.779 18.3819C171.691 19.6114 173.916 20.264 176.189 20.2619C183.882 20.2619 188.089 13.8889 188.089 8.36193C188.089 8.18193 188.084 7.99993 188.076 7.82193C188.895 7.23009 189.602 6.49695 190.163 5.65693L190.162 5.65593Z" fill="white"/>
</g>
<line x1="222.5" y1="2" x2="222.5" y2="22" stroke="white"/>
<g clip-path="url(#clip3_85_240)">
<path d="M273.543 6.498C274 8.28 274 12 274 12C274 12 274 15.72 273.543 17.502C273.289 18.487 272.546 19.262 271.605 19.524C269.896 20 264 20 264 20C264 20 258.107 20 256.395 19.524C255.45 19.258 254.708 18.484 254.457 17.502C254 15.72 254 12 254 12C254 12 254 8.28 254.457 6.498C254.711 5.513 255.454 4.738 256.395 4.476C258.107 4 264 4 264 4C264 4 269.896 4 271.605 4.476C272.55 4.742 273.292 5.516 273.543 6.498ZM262 15.5L268 12L262 8.5V15.5Z" fill="white"/>
</g>
<defs>
<clipPath id="clip0_85_240">
<rect width="24" height="24" fill="white"/>
</clipPath>
<clipPath id="clip1_85_240">
<rect width="24" height="24" fill="white" transform="translate(84)"/>
</clipPath>
<clipPath id="clip2_85_240">
<rect width="24" height="24" fill="white" transform="translate(168)"/>
</clipPath>
<clipPath id="clip3_85_240">
<rect width="24" height="24" fill="white" transform="translate(252)"/>
</clipPath>
</defs>
</svg>
