<svg width="282" height="24" viewBox="0 0 282 24" fill="none" xmlns="http://www.w3.org/2000/svg">
<g clip-path="url(#clip0_85_119)">
<path d="M14 13.5H16.5L17.5 9.5H14V7.5C14 6.47 14 5.5 16 5.5H17.5V2.14C17.174 2.097 15.943 2 14.643 2C11.928 2 10 3.657 10 6.7V9.5H7V13.5H10V22H14V13.5Z" fill="#5956E9"/>
</g>
<line x1="55.5" y1="1" x2="55.5" y2="24" stroke="#6C6C72"/>
<g clip-path="url(#clip1_85_119)">
<path d="M98 2C100.717 2 101.056 2.01 102.122 2.06C103.187 2.11 103.912 2.277 104.55 2.525C105.21 2.779 105.766 3.123 106.322 3.678C106.83 4.1779 107.224 4.78259 107.475 5.45C107.722 6.087 107.89 6.813 107.94 7.878C107.987 8.944 108 9.283 108 12C108 14.717 107.99 15.056 107.94 16.122C107.89 17.187 107.722 17.912 107.475 18.55C107.225 19.2178 106.831 19.8226 106.322 20.322C105.822 20.8303 105.217 21.2238 104.55 21.475C103.913 21.722 103.187 21.89 102.122 21.94C101.056 21.987 100.717 22 98 22C95.283 22 94.944 21.99 93.878 21.94C92.813 21.89 92.088 21.722 91.45 21.475C90.7823 21.2245 90.1775 20.8309 89.678 20.322C89.1694 19.8222 88.7759 19.2175 88.525 18.55C88.277 17.913 88.11 17.187 88.06 16.122C88.013 15.056 88 14.717 88 12C88 9.283 88.01 8.944 88.06 7.878C88.11 6.812 88.277 6.088 88.525 5.45C88.7752 4.78218 89.1688 4.17732 89.678 3.678C90.1777 3.16923 90.7824 2.77573 91.45 2.525C92.088 2.277 92.812 2.11 93.878 2.06C94.944 2.013 95.283 2 98 2ZM98 7C96.6739 7 95.4021 7.52678 94.4645 8.46447C93.5268 9.40215 93 10.6739 93 12C93 13.3261 93.5268 14.5979 94.4645 15.5355C95.4021 16.4732 96.6739 17 98 17C99.3261 17 100.598 16.4732 101.536 15.5355C102.473 14.5979 103 13.3261 103 12C103 10.6739 102.473 9.40215 101.536 8.46447C100.598 7.52678 99.3261 7 98 7ZM104.5 6.75C104.5 6.41848 104.368 6.10054 104.134 5.86612C103.899 5.6317 103.582 5.5 103.25 5.5C102.918 5.5 102.601 5.6317 102.366 5.86612C102.132 6.10054 102 6.41848 102 6.75C102 7.08152 102.132 7.39946 102.366 7.63388C102.601 7.8683 102.918 8 103.25 8C103.582 8 103.899 7.8683 104.134 7.63388C104.368 7.39946 104.5 7.08152 104.5 6.75ZM98 9C98.7956 9 99.5587 9.31607 100.121 9.87868C100.684 10.4413 101 11.2044 101 12C101 12.7956 100.684 13.5587 100.121 14.1213C99.5587 14.6839 98.7956 15 98 15C97.2044 15 96.4413 14.6839 95.8787 14.1213C95.3161 13.5587 95 12.7956 95 12C95 11.2044 95.3161 10.4413 95.8787 9.87868C96.4413 9.31607 97.2044 9 98 9Z" fill="#232233"/>
</g>
<line x1="141.5" y1="1" x2="141.5" y2="24" stroke="#6C6C72"/>
<g clip-path="url(#clip2_85_119)">
<path d="M194.162 5.65593C193.399 5.99362 192.589 6.2154 191.76 6.31393C192.634 5.79136 193.288 4.96894 193.6 3.99993C192.78 4.48793 191.881 4.82993 190.944 5.01493C190.315 4.34151 189.48 3.89489 188.571 3.74451C187.662 3.59413 186.728 3.74842 185.915 4.18338C185.103 4.61834 184.456 5.30961 184.077 6.14972C183.698 6.98983 183.607 7.93171 183.818 8.82893C182.155 8.74558 180.528 8.31345 179.043 7.56059C177.558 6.80773 176.248 5.75097 175.198 4.45893C174.826 5.09738 174.631 5.82315 174.632 6.56193C174.632 8.01193 175.37 9.29293 176.492 10.0429C175.828 10.022 175.179 9.84271 174.598 9.51993V9.57193C174.598 10.5376 174.932 11.4735 175.544 12.221C176.155 12.9684 177.006 13.4814 177.953 13.6729C177.337 13.84 176.69 13.8646 176.063 13.7449C176.33 14.5762 176.85 15.3031 177.551 15.824C178.251 16.3449 179.097 16.6337 179.97 16.6499C179.102 17.3313 178.109 17.8349 177.047 18.1321C175.985 18.4293 174.874 18.5142 173.779 18.3819C175.691 19.6114 177.916 20.264 180.189 20.2619C187.882 20.2619 192.089 13.8889 192.089 8.36193C192.089 8.18193 192.084 7.99993 192.076 7.82193C192.895 7.23009 193.602 6.49695 194.163 5.65693L194.162 5.65593Z" fill="#232233"/>
</g>
<line x1="227.5" y1="1" x2="227.5" y2="24" stroke="#6C6C72"/>
<g clip-path="url(#clip3_85_119)">
<path d="M279.543 6.498C280 8.28 280 12 280 12C280 12 280 15.72 279.543 17.502C279.289 18.487 278.546 19.262 277.605 19.524C275.896 20 270 20 270 20C270 20 264.107 20 262.395 19.524C261.45 19.258 260.708 18.484 260.457 17.502C260 15.72 260 12 260 12C260 12 260 8.28 260.457 6.498C260.711 5.513 261.454 4.738 262.395 4.476C264.107 4 270 4 270 4C270 4 275.896 4 277.605 4.476C278.55 4.742 279.292 5.516 279.543 6.498ZM268 15.5L274 12L268 8.5V15.5Z" fill="#232233"/>
</g>
<defs>
<clipPath id="clip0_85_119">
<rect width="24" height="24" fill="white"/>
</clipPath>
<clipPath id="clip1_85_119">
<rect width="24" height="24" fill="white" transform="translate(86)"/>
</clipPath>
<clipPath id="clip2_85_119">
<rect width="24" height="24" fill="white" transform="translate(172)"/>
</clipPath>
<clipPath id="clip3_85_119">
<rect width="24" height="24" fill="white" transform="translate(258)"/>
</clipPath>
</defs>
</svg>
