<svg width="216" height="79" viewBox="0 0 216 79" fill="none" xmlns="http://www.w3.org/2000/svg">
<path d="M77.956 0.938309C65.194 0.904448 50.8192 1.93097 34.0897 4.50707C32.1151 4.7833 13.0906 15.6353 7.96158 23.1252C2.83255 30.6156 1.07803 44.8732 1.07803 44.8732C-0.306704 50.712 0.534471 60.3628 0.920752 61.3011C1.44203 63.3327 4.38703 65.0378 9.44522 66.2706C10.0351 56.8889 17.8097 49.5786 27.2106 49.567C37.0534 49.567 45.0321 57.5465 45.0321 67.3885C45.0258 68.1744 44.9675 68.9591 44.8574 69.7374C45.1203 69.7409 45.4188 69.748 45.6683 69.7507L152.27 70.6373C152.069 69.5661 151.965 68.4786 151.962 67.3885C151.962 57.5465 159.941 49.567 169.783 49.567C179.626 49.567 187.605 57.5465 187.605 67.3885C187.605 68.5772 187.486 69.7632 187.25 70.9278L214.956 71.1582C215.543 60.9946 218.013 50.3204 211.827 41.4319C209.396 37.9389 197.601 31.6131 167.705 26.8806C152.259 19.1238 137.184 10.3289 120.768 5.28898C108.11 2.77838 94.3651 0.981526 77.956 0.938309ZM70.2941 6.27764C72.9664 6.29724 75.4178 6.40684 77.4289 6.63852L80.6756 28.1812C62.2169 25.912 43.4077 23.8759 33.4646 15.9289C33.6205 13.4784 37.0111 9.93104 40.8186 8.57482C42.975 7.80672 58.7146 6.19298 70.2945 6.27764H70.2941ZM85.7208 6.43268C96.8646 6.5503 113.358 7.63118 124.706 12.6435C130.143 15.1608 140.378 21.0526 147.222 26.2547L144.393 30.9484C125.812 30.1108 101.048 29.0758 90.8842 27.9276L85.7208 6.43268ZM27.2106 56.6956C24.3747 56.6956 21.6549 57.8221 19.6496 59.8274C17.6443 61.8327 16.5177 64.5525 16.5177 67.3885C16.5177 70.2244 17.6443 72.9442 19.6496 74.9495C21.6549 76.9548 24.3747 78.0814 27.2106 78.0814C30.0465 78.0814 32.7663 76.9548 34.7716 74.9495C36.7769 72.9442 37.9035 70.2244 37.9035 67.3885C37.9035 64.5525 36.7769 61.8327 34.7716 59.8274C32.7663 57.8221 30.0465 56.6956 27.2106 56.6956ZM169.783 56.6956C166.947 56.6956 164.227 57.8221 162.222 59.8274C160.216 61.8327 159.09 64.5525 159.09 67.3885C159.09 70.2244 160.216 72.9442 162.222 74.9495C164.227 76.9548 166.947 78.0814 169.783 78.0814C172.619 78.0814 175.338 76.9548 177.344 74.9495C179.349 72.9442 180.476 70.2244 180.476 67.3885C180.476 64.5525 179.349 61.8327 177.344 59.8274C175.338 57.8221 172.619 56.6956 169.783 56.6956Z" fill="#FD5901"/>
</svg>
