<svg width="49" height="49" viewBox="0 0 49 49" fill="none" xmlns="http://www.w3.org/2000/svg">
<path fill-rule="evenodd" clip-rule="evenodd" d="M0.18457 24.0188C0.18457 17.6486 2.71512 11.5394 7.21952 7.03495C11.7239 2.53055 17.8332 0 24.2034 0C30.5736 0 36.6829 2.53055 41.1873 7.03495C45.6917 11.5394 48.2222 17.6486 48.2222 24.0188C48.2222 30.389 45.6917 36.4983 41.1873 41.0027C36.6829 45.5071 30.5736 48.0376 24.2034 48.0376C17.8332 48.0376 11.7239 45.5071 7.21952 41.0027C2.71512 36.4983 0.18457 30.389 0.18457 24.0188ZM22.8327 34.2989L36.6612 17.0117L34.1632 15.0134L22.3716 29.7481L14.0194 22.7891L11.9698 25.2486L22.8327 34.3021V34.2989Z" fill="#45CB80"/>
</svg>
