<svg width="49" height="49" viewBox="0 0 49 49" fill="none" xmlns="http://www.w3.org/2000/svg">
<path fill-rule="evenodd" clip-rule="evenodd" d="M0 24.2071C0 17.8369 2.53055 11.7276 7.03495 7.22318C11.5394 2.71878 17.6486 0.188232 24.0188 0.188232C30.389 0.188232 36.4983 2.71878 41.0027 7.22318C45.5071 11.7276 48.0376 17.8369 48.0376 24.2071C48.0376 30.5772 45.5071 36.6865 41.0027 41.1909C36.4983 45.6953 30.389 48.2259 24.0188 48.2259C17.6486 48.2259 11.5394 45.6953 7.03495 41.1909C2.53055 36.6865 0 30.5772 0 24.2071ZM22.6481 34.4871L36.4766 17.2L33.9786 15.2016L22.187 29.9363L13.8348 22.9773L11.7852 25.4368L22.6481 34.4903V34.4871Z" fill="#45CB80"/>
</svg>
