<svg width="49" height="49" viewBox="0 0 49 49" fill="none" xmlns="http://www.w3.org/2000/svg">
<path fill-rule="evenodd" clip-rule="evenodd" d="M0 24.1126C0 17.7424 2.53055 11.6331 7.03495 7.1287C11.5394 2.6243 17.6486 0.09375 24.0188 0.09375C30.389 0.09375 36.4983 2.6243 41.0027 7.1287C45.5071 11.6331 48.0376 17.7424 48.0376 24.1126C48.0376 30.4828 45.5071 36.592 41.0027 41.0964C36.4983 45.6008 30.389 48.1314 24.0188 48.1314C17.6486 48.1314 11.5394 45.6008 7.03495 41.0964C2.53055 36.592 0 30.4828 0 24.1126ZM22.6481 34.3926L36.4766 17.1055L33.9786 15.1071L22.187 29.8419L13.8348 22.8828L11.7852 25.3423L22.6481 34.3958V34.3926Z" fill="#45CB80"/>
</svg>
