<svg width="49" height="49" viewBox="0 0 49 49" fill="none" xmlns="http://www.w3.org/2000/svg">
<path fill-rule="evenodd" clip-rule="evenodd" d="M0.18457 24.2071C0.18457 17.8369 2.71512 11.7276 7.21952 7.22318C11.7239 2.71878 17.8332 0.188232 24.2034 0.188232C30.5736 0.188232 36.6829 2.71878 41.1873 7.22318C45.6917 11.7276 48.2222 17.8369 48.2222 24.2071C48.2222 30.5772 45.6917 36.6865 41.1873 41.1909C36.6829 45.6953 30.5736 48.2259 24.2034 48.2259C17.8332 48.2259 11.7239 45.6953 7.21952 41.1909C2.71512 36.6865 0.18457 30.5772 0.18457 24.2071ZM22.8327 34.4871L36.6612 17.2L34.1632 15.2016L22.3716 29.9363L14.0194 22.9773L11.9698 25.4368L22.8327 34.4903V34.4871Z" fill="#45CB80"/>
</svg>
