<svg width="49" height="49" viewBox="0 0 49 49" fill="none" xmlns="http://www.w3.org/2000/svg">
<path fill-rule="evenodd" clip-rule="evenodd" d="M0.782227 24.1131C0.782227 17.7429 3.31277 11.6336 7.81718 7.12919C12.3216 2.62479 18.4309 0.0942383 24.801 0.0942383C31.1712 0.0942383 37.2805 2.62479 41.7849 7.12919C46.2893 11.6336 48.8199 17.7429 48.8199 24.1131C48.8199 30.4832 46.2893 36.5925 41.7849 41.0969C37.2805 45.6013 31.1712 48.1319 24.801 48.1319C18.4309 48.1319 12.3216 45.6013 7.81718 41.0969C3.31277 36.5925 0.782227 30.4832 0.782227 24.1131ZM23.4304 34.3931L37.2588 17.106L34.7609 15.1076L22.9692 29.8423L14.6171 22.8833L12.5675 25.3428L23.4304 34.3963V34.3931Z" fill="#45CB80"/>
</svg>
