<svg width="218" height="78" viewBox="0 0 218 78" fill="none" xmlns="http://www.w3.org/2000/svg">
<path d="M78.4033 0.223227C65.54 0.189098 51.0511 1.22377 34.1888 3.82031C32.1985 4.09874 13.0231 15.0368 7.85334 22.5862C2.68361 30.136 0.915157 44.5068 0.915157 44.5068C-0.480564 50.3919 0.367287 60.1193 0.756634 61.0651C1.28205 63.1129 4.25043 64.8315 9.34876 66.074C9.94333 56.6179 17.7797 49.2495 27.2551 49.2378C37.1761 49.2378 45.2181 57.2807 45.2181 67.2008C45.2118 67.993 45.153 68.7839 45.042 69.5683C45.307 69.5719 45.6079 69.5791 45.8593 69.5818L153.307 70.4754C153.104 69.3956 153 68.2995 152.996 67.2008C152.996 57.2807 161.039 49.2378 170.959 49.2378C180.88 49.2378 188.922 57.2807 188.922 67.2008C188.922 68.3989 188.803 69.5943 188.565 70.7682L216.491 71.0004C217.083 60.7561 219.571 49.9972 213.336 41.0382C210.886 37.5174 198.997 31.1415 168.865 26.3714C153.296 18.5531 138.102 9.68835 121.555 4.60843C108.797 2.0779 94.9426 0.266788 78.4033 0.223227ZM70.6805 5.60493C73.3741 5.62469 75.8449 5.73516 77.872 5.96868L81.1444 27.6823C62.5393 25.3952 43.5807 23.3429 33.5588 15.3328C33.7159 12.8629 37.1334 9.28733 40.9712 7.92035C43.1447 7.14615 59.0091 5.51961 70.681 5.60493H70.6805ZM86.2297 5.7612C97.4619 5.87976 114.087 6.96921 125.525 12.0213C131.004 14.5586 141.32 20.4971 148.219 25.7405L145.368 30.4715C126.639 29.6272 101.678 28.584 91.434 27.4268L86.2297 5.7612ZM27.2551 56.423C24.3967 56.423 21.6553 57.5585 19.6341 59.5797C17.6129 61.601 16.4774 64.3423 16.4774 67.2008C16.4774 70.0592 17.6129 72.8006 19.6341 74.8218C21.6553 76.843 24.3967 77.9785 27.2551 77.9785C30.1136 77.9785 32.8549 76.843 34.8762 74.8218C36.8974 72.8006 38.0329 70.0592 38.0329 67.2008C38.0329 64.3423 36.8974 61.601 34.8762 59.5797C32.8549 57.5585 30.1136 56.423 27.2551 56.423ZM170.959 56.423C168.1 56.423 165.359 57.5585 163.338 59.5797C161.316 61.601 160.181 64.3423 160.181 67.2008C160.181 70.0592 161.316 72.8006 163.338 74.8218C165.359 76.843 168.1 77.9785 170.959 77.9785C173.817 77.9785 176.559 76.843 178.58 74.8218C180.601 72.8006 181.736 70.0592 181.736 67.2008C181.736 64.3423 180.601 61.601 178.58 59.5797C176.559 57.5585 173.817 56.423 170.959 56.423Z" fill="#FD5901"/>
</svg>
